  0
SECTION
  2
HEADER
  9
$ACADVER
  1
AC1014
  9
$HANDSEED
  5
FFFF
  9
$MEASUREMENT
 70
     1
  0
ENDSEC
  0
SECTION
  2
TABLES
  0
TABLE
  2
VPORT
  5
8
330
0
100
AcDbSymbolTable
 70
     4
  0
VPORT
  5
2E
330
8
100
AcDbSymbolTableRecord
100
AcDbViewportTableRecord
  2
*ACTIVE
 70
     0
 10
0.0
 20
0.0
 11
1.0
 21
1.0
 12
210.0
 22
148.5
 13
0.0
 23
0.0
 14
10.0
 24
10.0
 15
10.0
 25
10.0
 16
0.0
 26
0.0
 36
1.0
 17
0.0
 27
0.0
 37
0.0
 40
341.0
 41
1.24
 42
50.0
 43
0.0
 44
0.0
 50
0.0
 51
0.0
 71
     0
 72
   100
 73
     1
 74
     3
 75
     0
 76
     0
 77
     0
 78
     0
  0
ENDTAB
  0
TABLE
  2
LTYPE
  5
5
330
0
100
AcDbSymbolTable
 70
     1
  0
LTYPE
  5
14
330
5
100
AcDbSymbolTableRecord
100
AcDbLinetypeTableRecord
  2
BYBLOCK
 70
     0
  3

 72
    65
 73
     0
 40
0.0
  0
LTYPE
  5
15
330
5
100
AcDbSymbolTableRecord
100
AcDbLinetypeTableRecord
  2
BYLAYER
 70
     0
  3

 72
    65
 73
     0
 40
0.0
  0
LTYPE
  5
16
330
5
100
AcDbSymbolTableRecord
100
AcDbLinetypeTableRecord
  2
CONTINUOUS
 70
     0
  3
Solid line
 72
    65
 73
     0
 40
0.0
  0
ENDTAB
  0
TABLE
  2
LAYER
  5
2
100
AcDbSymbolTable
 70
1
  0
LAYER
  5
50
100
AcDbSymbolTableRecord
100
AcDbLayerTableRecord
  2
0
 70
0
  6
CONTINUOUS
  0
ENDTAB
  0
TABLE
  2
STYLE
  5
3
330
0
100
AcDbSymbolTable
 70
     1
  0
STYLE
  5
11
330
3
100
AcDbSymbolTableRecord
100
AcDbTextStyleTableRecord
  2
STANDARD
 70
     0
 40
0.0
 41
1.0
 50
0.0
 71
     0
 42
2.5
  3
txt
  4

  0
ENDTAB
  0
TABLE
  2
VIEW
  5
6
330
0
100
AcDbSymbolTable
 70
     0
  0
ENDTAB
  0
TABLE
  2
UCS
  5
7
330
0
100
AcDbSymbolTable
 70
     0
  0
ENDTAB
  0
TABLE
  2
APPID
  5
9
330
0
100
AcDbSymbolTable
 70
     2
  0
APPID
  5
12
330
9
100
AcDbSymbolTableRecord
100
AcDbRegAppTableRecord
  2
ACAD
 70
     0
  0
ENDTAB
  0
TABLE
  2
DIMSTYLE
  5
A
330
0
100
AcDbSymbolTable
 70
     1
  0
DIMSTYLE
105
27
330
A
100
AcDbSymbolTableRecord
100
AcDbDimStyleTableRecord
  2
ISO-25
 70
     0
  3

  4

  5

  6

  7

 40
1.0
 41
2.5
 42
0.625
 43
3.75
 44
1.25
 45
0.0
 46
0.0
 47
0.0
 48
0.0
140
2.5
141
2.5
142
0.0
143
0.03937007874016
144
1.0
145
0.0
146
1.0
147
0.625
 71
     0
 72
     0
 73
     0
 74
     0
 75
     0
 76
     0
 77
     1
 78
     8
170
     0
171
     3
172
     1
173
     0
174
     0
175
     0
176
     0
177
     0
178
     0
270
     2
271
     2
272
     2
273
     2
274
     3
340
11
275
     0
280
     0
281
     0
282
     0
283
     0
284
     8
285
     0
286
     0
287
     3
288
     0
  0
ENDTAB
  0
TABLE
  2
BLOCK_RECORD
  5
1
330
0
100
AcDbSymbolTable
 70
     1
  0
BLOCK_RECORD
  5
1F
330
1
100
AcDbSymbolTableRecord
100
AcDbBlockTableRecord
  2
*MODEL_SPACE
  0
BLOCK_RECORD
  5
1B
330
1
100
AcDbSymbolTableRecord
100
AcDbBlockTableRecord
  2
*PAPER_SPACE
  0
ENDTAB
  0
ENDSEC
  0
SECTION
  2
BLOCKS
  0
BLOCK
  5
20
330
1F
100
AcDbEntity
  8
0
100
AcDbBlockBegin
  2
*MODEL_SPACE
 70
     0
 10
0.0
 20
0.0
 30
0.0
  3
*MODEL_SPACE
  1

  0
ENDBLK
  5
21
330
1F
100
AcDbEntity
  8
0
100
AcDbBlockEnd
  0
BLOCK
  5
1C
330
1B
100
AcDbEntity
 67
     1
  8
0
100
AcDbBlockBegin
  2
*PAPER_SPACE
  1

  0
ENDBLK
  5
1D
330
1B
100
AcDbEntity
 67
     1
  8
0
100
AcDbBlockEnd
  0
ENDSEC
  0
SECTION
  2
ENTITIES
  0
SPLINE
  5
100
100
AcDbEntity
  8
0
 62
7
100
AcDbSpline
 70
8
 71
3
 72
8
 73
4
 74
0
 40
0
 40
0
 40
0
 40
0
 40
1
 40
1
 40
1
 40
1
 10
228.452594
 20
-72.936970
 30
0.0
 10
228.007685
 20
-72.936970
 30
0.0
 10
227.606584
 20
-73.204976
 30
0.0
 10
227.436325
 20
-73.616019
 30
0.0
  0
SPLINE
  5
101
100
AcDbEntity
  8
0
 62
7
100
AcDbSpline
 70
8
 71
3
 72
8
 73
4
 74
0
 40
0
 40
0
 40
0
 40
0
 40
1
 40
1
 40
1
 40
1
 10
227.436325
 20
-73.616019
 30
0.0
 10
227.266066
 20
-74.027061
 30
0.0
 10
227.360177
 20
-74.500191
 30
0.0
 10
227.674775
 20
-74.814789
 30
0.0
  0
SPLINE
  5
102
100
AcDbEntity
  8
0
 62
7
100
AcDbSpline
 70
8
 71
3
 72
8
 73
4
 74
0
 40
0
 40
0
 40
0
 40
0
 40
1
 40
1
 40
1
 40
1
 10
227.674775
 20
-74.814789
 30
0.0
 10
227.989373
 20
-75.129387
 30
0.0
 10
228.462504
 20
-75.223499
 30
0.0
 10
228.873546
 20
-75.053239
 30
0.0
  0
SPLINE
  5
103
100
AcDbEntity
  8
0
 62
7
100
AcDbSpline
 70
8
 71
3
 72
8
 73
4
 74
0
 40
0
 40
0
 40
0
 40
0
 40
1
 40
1
 40
1
 40
1
 10
228.873546
 20
-75.053239
 30
0.0
 10
229.284588
 20
-74.882980
 30
0.0
 10
229.552595
 20
-74.481880
 30
0.0
 10
229.552595
 20
-74.036971
 30
0.0
  0
SPLINE
  5
104
100
AcDbEntity
  8
0
 62
7
100
AcDbSpline
 70
8
 71
3
 72
8
 73
4
 74
0
 40
0
 40
0
 40
0
 40
0
 40
1
 40
1
 40
1
 40
1
 10
229.552595
 20
-74.036971
 30
0.0
 10
229.552595
 20
-73.429457
 30
0.0
 10
229.060107
 20
-72.936970
 30
0.0
 10
228.452594
 20
-72.936970
 30
0.0
  0
SPLINE
  5
105
100
AcDbEntity
  8
0
 62
7
100
AcDbSpline
 70
8
 71
3
 72
8
 73
4
 74
0
 40
0
 40
0
 40
0
 40
0
 40
1
 40
1
 40
1
 40
1
 10
243.952613
 20
-72.936970
 30
0.0
 10
243.507704
 20
-72.936970
 30
0.0
 10
243.106603
 20
-73.204976
 30
0.0
 10
242.936344
 20
-73.616019
 30
0.0
  0
SPLINE
  5
106
100
AcDbEntity
  8
0
 62
7
100
AcDbSpline
 70
8
 71
3
 72
8
 73
4
 74
0
 40
0
 40
0
 40
0
 40
0
 40
1
 40
1
 40
1
 40
1
 10
242.936344
 20
-73.616019
 30
0.0
 10
242.766085
 20
-74.027061
 30
0.0
 10
242.860196
 20
-74.500191
 30
0.0
 10
243.174794
 20
-74.814789
 30
0.0
  0
SPLINE
  5
107
100
AcDbEntity
  8
0
 62
7
100
AcDbSpline
 70
8
 71
3
 72
8
 73
4
 74
0
 40
0
 40
0
 40
0
 40
0
 40
1
 40
1
 40
1
 40
1
 10
243.174794
 20
-74.814789
 30
0.0
 10
243.489393
 20
-75.129387
 30
0.0
 10
243.962523
 20
-75.223499
 30
0.0
 10
244.373565
 20
-75.053239
 30
0.0
  0
SPLINE
  5
108
100
AcDbEntity
  8
0
 62
7
100
AcDbSpline
 70
8
 71
3
 72
8
 73
4
 74
0
 40
0
 40
0
 40
0
 40
0
 40
1
 40
1
 40
1
 40
1
 10
244.373565
 20
-75.053239
 30
0.0
 10
244.784607
 20
-74.882980
 30
0.0
 10
245.052614
 20
-74.481880
 30
0.0
 10
245.052614
 20
-74.036971
 30
0.0
  0
SPLINE
  5
109
100
AcDbEntity
  8
0
 62
7
100
AcDbSpline
 70
8
 71
3
 72
8
 73
4
 74
0
 40
0
 40
0
 40
0
 40
0
 40
1
 40
1
 40
1
 40
1
 10
245.052614
 20
-74.036971
 30
0.0
 10
245.052614
 20
-73.745232
 30
0.0
 10
244.936721
 20
-73.465443
 30
0.0
 10
244.730431
 20
-73.259152
 30
0.0
  0
SPLINE
  5
10a
100
AcDbEntity
  8
0
 62
7
100
AcDbSpline
 70
8
 71
3
 72
8
 73
4
 74
0
 40
0
 40
0
 40
0
 40
0
 40
1
 40
1
 40
1
 40
1
 10
244.730431
 20
-73.259152
 30
0.0
 10
244.524141
 20
-73.052862
 30
0.0
 10
244.244351
 20
-72.936970
 30
0.0
 10
243.952613
 20
-72.936970
 30
0.0
  0
LWPOLYLINE
  5
10b
100
AcDbEntity
  8
0
 62
7
100
AcDbPolyline
 90
1
 70
1
 10
228.452594
 20
-72.936970
 30
0.0
  0
LWPOLYLINE
  5
10c
100
AcDbEntity
  8
0
 62
7
100
AcDbPolyline
 90
1
 70
1
 10
243.952613
 20
-72.936970
 30
0.0
  0
SPLINE
  5
10d
100
AcDbEntity
  8
0
 62
7
100
AcDbSpline
 70
8
 71
3
 72
8
 73
4
 74
0
 40
0
 40
0
 40
0
 40
0
 40
1
 40
1
 40
1
 40
1
 10
245.827186
 20
-18.126000
 30
0.0
 10
246.181608
 20
-18.126000
 30
0.0
 10
246.521513
 20
-18.266794
 30
0.0
 10
246.772127
 20
-18.517408
 30
0.0
  0
SPLINE
  5
10e
100
AcDbEntity
  8
0
 62
7
100
AcDbSpline
 70
8
 71
3
 72
8
 73
4
 74
0
 40
0
 40
0
 40
0
 40
0
 40
1
 40
1
 40
1
 40
1
 10
246.772127
 20
-18.517408
 30
0.0
 10
247.022741
 20
-18.768022
 30
0.0
 10
247.163535
 20
-19.107927
 30
0.0
 10
247.163535
 20
-19.462349
 30
0.0
  0
LWPOLYLINE
  5
10f
100
AcDbEntity
  8
0
 62
7
100
AcDbPolyline
 90
2
 70
0
 10
226.678034
 20
-18.126000
 30
0.0
 10
245.827186
 20
-18.126000
 30
0.0
  0
SPLINE
  5
110
100
AcDbEntity
  8
0
 62
7
100
AcDbSpline
 70
8
 71
3
 72
8
 73
4
 74
0
 40
0
 40
0
 40
0
 40
0
 40
1
 40
1
 40
1
 40
1
 10
247.163535
 20
-75.411539
 30
0.0
 10
247.163535
 20
-75.765961
 30
0.0
 10
247.022741
 20
-76.105866
 30
0.0
 10
246.772127
 20
-76.356480
 30
0.0
  0
SPLINE
  5
111
100
AcDbEntity
  8
0
 62
7
100
AcDbSpline
 70
8
 71
3
 72
8
 73
4
 74
0
 40
0
 40
0
 40
0
 40
0
 40
1
 40
1
 40
1
 40
1
 10
246.772127
 20
-76.356480
 30
0.0
 10
246.521513
 20
-76.607094
 30
0.0
 10
246.181608
 20
-76.747888
 30
0.0
 10
245.827186
 20
-76.747888
 30
0.0
  0
LWPOLYLINE
  5
112
100
AcDbEntity
  8
0
 62
7
100
AcDbPolyline
 90
2
 70
0
 10
247.163535
 20
-19.462349
 30
0.0
 10
247.163535
 20
-75.411539
 30
0.0
  0
SPLINE
  5
113
100
AcDbEntity
  8
0
 62
7
100
AcDbSpline
 70
8
 71
3
 72
8
 73
4
 74
0
 40
0
 40
0
 40
0
 40
0
 40
1
 40
1
 40
1
 40
1
 10
226.678034
 20
-76.747888
 30
0.0
 10
226.323613
 20
-76.747888
 30
0.0
 10
225.983707
 20
-76.607094
 30
0.0
 10
225.733093
 20
-76.356480
 30
0.0
  0
SPLINE
  5
114
100
AcDbEntity
  8
0
 62
7
100
AcDbSpline
 70
8
 71
3
 72
8
 73
4
 74
0
 40
0
 40
0
 40
0
 40
0
 40
1
 40
1
 40
1
 40
1
 10
225.733093
 20
-76.356480
 30
0.0
 10
225.482479
 20
-76.105866
 30
0.0
 10
225.341685
 20
-75.765961
 30
0.0
 10
225.341685
 20
-75.411539
 30
0.0
  0
LWPOLYLINE
  5
115
100
AcDbEntity
  8
0
 62
7
100
AcDbPolyline
 90
2
 70
0
 10
245.827186
 20
-76.747888
 30
0.0
 10
226.678034
 20
-76.747888
 30
0.0
  0
SPLINE
  5
116
100
AcDbEntity
  8
0
 62
7
100
AcDbSpline
 70
8
 71
3
 72
8
 73
4
 74
0
 40
0
 40
0
 40
0
 40
0
 40
1
 40
1
 40
1
 40
1
 10
225.341685
 20
-19.462349
 30
0.0
 10
225.341685
 20
-19.107927
 30
0.0
 10
225.482479
 20
-18.768022
 30
0.0
 10
225.733093
 20
-18.517408
 30
0.0
  0
SPLINE
  5
117
100
AcDbEntity
  8
0
 62
7
100
AcDbSpline
 70
8
 71
3
 72
8
 73
4
 74
0
 40
0
 40
0
 40
0
 40
0
 40
1
 40
1
 40
1
 40
1
 10
225.733093
 20
-18.517408
 30
0.0
 10
225.983707
 20
-18.266794
 30
0.0
 10
226.323613
 20
-18.126000
 30
0.0
 10
226.678034
 20
-18.126000
 30
0.0
  0
LWPOLYLINE
  5
118
100
AcDbEntity
  8
0
 62
7
100
AcDbPolyline
 90
2
 70
0
 10
225.341685
 20
-75.411539
 30
0.0
 10
225.341685
 20
-19.462349
 30
0.0
  0
SPLINE
  5
119
100
AcDbEntity
  8
0
 62
7
100
AcDbSpline
 70
8
 71
3
 72
8
 73
4
 74
0
 40
0
 40
0
 40
0
 40
0
 40
1
 40
1
 40
1
 40
1
 10
245.782845
 20
-109.418454
 30
0.0
 10
245.782845
 20
-108.729484
 30
0.0
 10
245.223338
 20
-108.169972
 30
0.0
 10
244.534362
 20
-108.169972
 30
0.0
  0
SPLINE
  5
11a
100
AcDbEntity
  8
0
 62
7
100
AcDbSpline
 70
8
 71
3
 72
8
 73
4
 74
0
 40
0
 40
0
 40
0
 40
0
 40
1
 40
1
 40
1
 40
1
 10
244.534362
 20
-108.169972
 30
0.0
 10
243.845387
 20
-108.169972
 30
0.0
 10
243.286233
 20
-108.729484
 30
0.0
 10
243.286233
 20
-109.418454
 30
0.0
  0
SPLINE
  5
11b
100
AcDbEntity
  8
0
 62
7
100
AcDbSpline
 70
8
 71
3
 72
8
 73
4
 74
0
 40
0
 40
0
 40
0
 40
0
 40
1
 40
1
 40
1
 40
1
 10
243.286233
 20
-109.418454
 30
0.0
 10
243.286233
 20
-110.107435
 30
0.0
 10
243.845387
 20
-110.666934
 30
0.0
 10
244.534362
 20
-110.666934
 30
0.0
  0
SPLINE
  5
11c
100
AcDbEntity
  8
0
 62
7
100
AcDbSpline
 70
8
 71
3
 72
8
 73
4
 74
0
 40
0
 40
0
 40
0
 40
0
 40
1
 40
1
 40
1
 40
1
 10
244.534362
 20
-110.666934
 30
0.0
 10
245.223338
 20
-110.666934
 30
0.0
 10
245.782845
 20
-110.107435
 30
0.0
 10
245.782845
 20
-109.418454
 30
0.0
  0
LWPOLYLINE
  5
11d
100
AcDbEntity
  8
0
 62
7
100
AcDbPolyline
 90
1
 70
1
 10
226.678034
 20
-18.126000
 30
0.0
  0
SPLINE
  5
11e
100
AcDbEntity
  8
0
 62
7
100
AcDbSpline
 70
8
 71
3
 72
8
 73
4
 74
0
 40
0
 40
0
 40
0
 40
0
 40
1
 40
1
 40
1
 40
1
 10
348.782933
 20
-90.418212
 30
0.0
 10
348.782933
 20
-89.729241
 30
0.0
 10
348.223426
 20
-89.169729
 30
0.0
 10
347.534450
 20
-89.169729
 30
0.0
  0
SPLINE
  5
11f
100
AcDbEntity
  8
0
 62
7
100
AcDbSpline
 70
8
 71
3
 72
8
 73
4
 74
0
 40
0
 40
0
 40
0
 40
0
 40
1
 40
1
 40
1
 40
1
 10
347.534450
 20
-89.169729
 30
0.0
 10
346.845474
 20
-89.169729
 30
0.0
 10
346.286321
 20
-89.729241
 30
0.0
 10
346.286321
 20
-90.418212
 30
0.0
  0
SPLINE
  5
120
100
AcDbEntity
  8
0
 62
7
100
AcDbSpline
 70
8
 71
3
 72
8
 73
4
 74
0
 40
0
 40
0
 40
0
 40
0
 40
1
 40
1
 40
1
 40
1
 10
346.286321
 20
-90.418212
 30
0.0
 10
346.286321
 20
-91.107192
 30
0.0
 10
346.845474
 20
-91.666692
 30
0.0
 10
347.534450
 20
-91.666692
 30
0.0
  0
SPLINE
  5
121
100
AcDbEntity
  8
0
 62
7
100
AcDbSpline
 70
8
 71
3
 72
8
 73
4
 74
0
 40
0
 40
0
 40
0
 40
0
 40
1
 40
1
 40
1
 40
1
 10
347.534450
 20
-91.666692
 30
0.0
 10
348.223426
 20
-91.666692
 30
0.0
 10
348.782933
 20
-91.107192
 30
0.0
 10
348.782933
 20
-90.418212
 30
0.0
  0
LWPOLYLINE
  5
122
100
AcDbEntity
  8
0
 62
7
100
AcDbPolyline
 90
1
 70
1
 10
245.782845
 20
-109.418454
 30
0.0
  0
SPLINE
  5
123
100
AcDbEntity
  8
0
 62
7
100
AcDbSpline
 70
8
 71
3
 72
8
 73
4
 74
0
 40
0
 40
0
 40
0
 40
0
 40
1
 40
1
 40
1
 40
1
 10
272.782998
 20
-87.918341
 30
0.0
 10
272.782998
 20
-87.229370
 30
0.0
 10
272.223491
 20
-86.669858
 30
0.0
 10
271.534515
 20
-86.669858
 30
0.0
  0
SPLINE
  5
124
100
AcDbEntity
  8
0
 62
7
100
AcDbSpline
 70
8
 71
3
 72
8
 73
4
 74
0
 40
0
 40
0
 40
0
 40
0
 40
1
 40
1
 40
1
 40
1
 10
271.534515
 20
-86.669858
 30
0.0
 10
270.845539
 20
-86.669858
 30
0.0
 10
270.286386
 20
-87.229370
 30
0.0
 10
270.286386
 20
-87.918341
 30
0.0
  0
SPLINE
  5
125
100
AcDbEntity
  8
0
 62
7
100
AcDbSpline
 70
8
 71
3
 72
8
 73
4
 74
0
 40
0
 40
0
 40
0
 40
0
 40
1
 40
1
 40
1
 40
1
 10
270.286386
 20
-87.918341
 30
0.0
 10
270.286386
 20
-88.607322
 30
0.0
 10
270.845539
 20
-89.166821
 30
0.0
 10
271.534515
 20
-89.166821
 30
0.0
  0
SPLINE
  5
126
100
AcDbEntity
  8
0
 62
7
100
AcDbSpline
 70
8
 71
3
 72
8
 73
4
 74
0
 40
0
 40
0
 40
0
 40
0
 40
1
 40
1
 40
1
 40
1
 10
271.534515
 20
-89.166821
 30
0.0
 10
272.223491
 20
-89.166821
 30
0.0
 10
272.782998
 20
-88.607322
 30
0.0
 10
272.782998
 20
-87.918341
 30
0.0
  0
LWPOLYLINE
  5
127
100
AcDbEntity
  8
0
 62
7
100
AcDbPolyline
 90
1
 70
1
 10
348.782933
 20
-90.418212
 30
0.0
  0
SPLINE
  5
128
100
AcDbEntity
  8
0
 62
7
100
AcDbSpline
 70
8
 71
3
 72
8
 73
4
 74
0
 40
0
 40
0
 40
0
 40
0
 40
1
 40
1
 40
1
 40
1
 10
272.782998
 20
-47.418249
 30
0.0
 10
272.782998
 20
-46.729278
 30
0.0
 10
272.223493
 20
-46.169766
 30
0.0
 10
271.534518
 20
-46.169766
 30
0.0
  0
SPLINE
  5
129
100
AcDbEntity
  8
0
 62
7
100
AcDbSpline
 70
8
 71
3
 72
8
 73
4
 74
0
 40
0
 40
0
 40
0
 40
0
 40
1
 40
1
 40
1
 40
1
 10
271.534518
 20
-46.169766
 30
0.0
 10
270.845542
 20
-46.169766
 30
0.0
 10
270.286388
 20
-46.729278
 30
0.0
 10
270.286388
 20
-47.418249
 30
0.0
  0
SPLINE
  5
12a
100
AcDbEntity
  8
0
 62
7
100
AcDbSpline
 70
8
 71
3
 72
8
 73
4
 74
0
 40
0
 40
0
 40
0
 40
0
 40
1
 40
1
 40
1
 40
1
 10
270.286388
 20
-47.418249
 30
0.0
 10
270.286388
 20
-48.107229
 30
0.0
 10
270.845542
 20
-48.666729
 30
0.0
 10
271.534518
 20
-48.666729
 30
0.0
  0
SPLINE
  5
12b
100
AcDbEntity
  8
0
 62
7
100
AcDbSpline
 70
8
 71
3
 72
8
 73
4
 74
0
 40
0
 40
0
 40
0
 40
0
 40
1
 40
1
 40
1
 40
1
 10
271.534518
 20
-48.666729
 30
0.0
 10
272.223493
 20
-48.666729
 30
0.0
 10
272.782998
 20
-48.107229
 30
0.0
 10
272.782998
 20
-47.418249
 30
0.0
  0
LWPOLYLINE
  5
12c
100
AcDbEntity
  8
0
 62
7
100
AcDbPolyline
 90
1
 70
1
 10
272.782998
 20
-87.918341
 30
0.0
  0
SPLINE
  5
12d
100
AcDbEntity
  8
0
 62
7
100
AcDbSpline
 70
8
 71
3
 72
8
 73
4
 74
0
 40
0
 40
0
 40
0
 40
0
 40
1
 40
1
 40
1
 40
1
 10
348.782933
 20
-51.918371
 30
0.0
 10
348.782933
 20
-51.229401
 30
0.0
 10
348.223426
 20
-50.669890
 30
0.0
 10
347.534450
 20
-50.669890
 30
0.0
  0
SPLINE
  5
12e
100
AcDbEntity
  8
0
 62
7
100
AcDbSpline
 70
8
 71
3
 72
8
 73
4
 74
0
 40
0
 40
0
 40
0
 40
0
 40
1
 40
1
 40
1
 40
1
 10
347.534450
 20
-50.669890
 30
0.0
 10
346.845474
 20
-50.669890
 30
0.0
 10
346.286321
 20
-51.229401
 30
0.0
 10
346.286321
 20
-51.918371
 30
0.0
  0
SPLINE
  5
12f
100
AcDbEntity
  8
0
 62
7
100
AcDbSpline
 70
8
 71
3
 72
8
 73
4
 74
0
 40
0
 40
0
 40
0
 40
0
 40
1
 40
1
 40
1
 40
1
 10
346.286321
 20
-51.918371
 30
0.0
 10
346.286321
 20
-52.607352
 30
0.0
 10
346.845474
 20
-53.166851
 30
0.0
 10
347.534450
 20
-53.166851
 30
0.0
  0
SPLINE
  5
130
100
AcDbEntity
  8
0
 62
7
100
AcDbSpline
 70
8
 71
3
 72
8
 73
4
 74
0
 40
0
 40
0
 40
0
 40
0
 40
1
 40
1
 40
1
 40
1
 10
347.534450
 20
-53.166851
 30
0.0
 10
348.223426
 20
-53.166851
 30
0.0
 10
348.782933
 20
-52.607352
 30
0.0
 10
348.782933
 20
-51.918371
 30
0.0
  0
LWPOLYLINE
  5
131
100
AcDbEntity
  8
0
 62
7
100
AcDbPolyline
 90
1
 70
1
 10
272.782998
 20
-47.418249
 30
0.0
  0
LWPOLYLINE
  5
132
100
AcDbEntity
  8
0
 62
7
100
AcDbPolyline
 90
1
 70
1
 10
348.782933
 20
-51.918371
 30
0.0
  0
LWPOLYLINE
  5
133
100
AcDbEntity
  8
0
 62
7
100
AcDbPolyline
 90
4
 70
1
 10
293.132299
 20
-66.607701
 30
0.0
 10
307.132795
 20
-66.607701
 30
0.0
 10
307.132795
 20
-80.608197
 30
0.0
 10
293.132299
 20
-80.608197
 30
0.0
  0
LWPOLYLINE
  5
134
100
AcDbEntity
  8
0
 62
7
100
AcDbPolyline
 90
4
 70
1
 10
293.132299
 20
-61.507375
 30
0.0
 10
293.132299
 20
-47.506879
 30
0.0
 10
307.132795
 20
-47.506879
 30
0.0
 10
307.132795
 20
-61.507375
 30
0.0
  0
LWPOLYLINE
  5
135
100
AcDbEntity
  8
0
 62
7
100
AcDbPolyline
 90
4
 70
1
 10
288.034514
 20
-83.016120
 30
0.0
 10
274.034018
 20
-83.016120
 30
0.0
 10
274.034018
 20
-69.018164
 30
0.0
 10
288.034514
 20
-69.018164
 30
0.0
  0
LWPOLYLINE
  5
136
100
AcDbEntity
  8
0
 62
7
100
AcDbPolyline
 90
4
 70
1
 10
288.034514
 20
-50.016402
 30
0.0
 10
288.034514
 20
-64.016898
 30
0.0
 10
274.034018
 20
-64.016898
 30
0.0
 10
274.034018
 20
-50.016402
 30
0.0
  0
LWPOLYLINE
  5
137
100
AcDbEntity
  8
0
 62
7
100
AcDbPolyline
 90
4
 70
1
 10
312.134061
 20
-102.116942
 30
0.0
 10
312.134061
 20
-88.116446
 30
0.0
 10
326.134557
 20
-88.116446
 30
0.0
 10
326.134557
 20
-102.116942
 30
0.0
  0
LWPOLYLINE
  5
138
100
AcDbEntity
  8
0
 62
7
100
AcDbPolyline
 90
4
 70
1
 10
331.232343
 20
-92.917051
 30
0.0
 10
345.232839
 20
-92.917051
 30
0.0
 10
345.232839
 20
-106.917547
 30
0.0
 10
331.232343
 20
-106.917547
 30
0.0
  0
SPLINE
  5
139
100
AcDbEntity
  8
0
 62
7
100
AcDbSpline
 70
8
 71
3
 72
8
 73
4
 74
0
 40
0
 40
0
 40
0
 40
0
 40
1
 40
1
 40
1
 40
1
 10
233.734333
 20
-88.916547
 30
0.0
 10
233.734333
 20
-88.916547
 30
0.0
 10
233.780343
 20
-102.050891
 30
0.0
 10
233.727543
 20
-101.806472
 30
0.0
  0
LWPOLYLINE
  5
13a
100
AcDbEntity
  8
0
 62
7
100
AcDbPolyline
 90
3
 70
0
 10
249.332489
 20
-94.916033
 30
0.0
 10
249.332489
 20
-88.916547
 30
0.0
 10
233.734333
 20
-88.916547
 30
0.0
  0
LWPOLYLINE
  5
13b
100
AcDbEntity
  8
0
 62
7
100
AcDbPolyline
 90
3
 70
0
 10
233.727543
 20
-101.806472
 30
0.0
 10
249.325700
 20
-101.806472
 30
0.0
 10
249.332489
 20
-94.916033
 30
0.0
  0
LWPOLYLINE
  5
13c
100
AcDbEntity
  8
0
 62
7
100
AcDbPolyline
 90
4
 70
1
 10
235.679975
 20
-133.379297
 30
0.0
 10
228.682267
 20
-121.255864
 30
0.0
 10
240.805701
 20
-114.255616
 30
0.0
 10
247.805948
 20
-126.379049
 30
0.0
  0
LWPOLYLINE
  5
13d
100
AcDbEntity
  8
0
 62
7
100
AcDbPolyline
 90
4
 70
1
 10
267.706870
 20
-123.767926
 30
0.0
 10
254.183895
 20
-127.389971
 30
0.0
 10
250.559311
 20
-113.866995
 30
0.0
 10
264.082286
 20
-110.244951
 30
0.0
  0
LWPOLYLINE
  5
13e
100
AcDbEntity
  8
0
 62
7
100
AcDbPolyline
 90
4
 70
1
 10
350.234105
 20
-35.817786
 30
0.0
 10
364.234601
 20
-35.817786
 30
0.0
 10
364.234601
 20
-49.815742
 30
0.0
 10
350.234105
 20
-49.815742
 30
0.0
  0
LWPOLYLINE
  5
13f
100
AcDbEntity
  8
0
 62
7
100
AcDbPolyline
 90
4
 70
1
 10
364.234601
 20
-54.717947
 30
0.0
 10
364.234601
 20
-68.715903
 30
0.0
 10
350.234105
 20
-68.715903
 30
0.0
 10
350.234105
 20
-54.717947
 30
0.0
  0
LWPOLYLINE
  5
140
100
AcDbEntity
  8
0
 62
7
100
AcDbPolyline
 90
4
 70
1
 10
350.234105
 20
-87.915785
 30
0.0
 10
350.234105
 20
-73.917829
 30
0.0
 10
364.234601
 20
-73.917829
 30
0.0
 10
364.234601
 20
-87.915785
 30
0.0
  0
LWPOLYLINE
  5
141
100
AcDbEntity
  8
0
 62
7
100
AcDbPolyline
 90
4
 70
1
 10
364.282861
 20
-106.917547
 30
0.0
 10
350.282365
 20
-106.917547
 30
0.0
 10
350.282365
 20
-92.917051
 30
0.0
 10
364.282861
 20
-92.917051
 30
0.0
  0
LWPOLYLINE
  5
142
100
AcDbEntity
  8
0
 62
7
100
AcDbPolyline
 90
4
 70
1
 10
331.232343
 20
-87.915785
 30
0.0
 10
331.232343
 20
-73.917829
 30
0.0
 10
345.232839
 20
-73.917829
 30
0.0
 10
345.232839
 20
-87.915785
 30
0.0
  0
LWPOLYLINE
  5
143
100
AcDbEntity
  8
0
 62
7
100
AcDbPolyline
 90
4
 70
1
 10
345.232839
 20
-54.717947
 30
0.0
 10
345.232839
 20
-68.715903
 30
0.0
 10
331.232343
 20
-68.715903
 30
0.0
 10
331.232343
 20
-54.717947
 30
0.0
  0
LWPOLYLINE
  5
144
100
AcDbEntity
  8
0
 62
7
100
AcDbPolyline
 90
4
 70
1
 10
331.232343
 20
-49.815742
 30
0.0
 10
331.232343
 20
-35.817786
 30
0.0
 10
345.232839
 20
-35.817786
 30
0.0
 10
345.232839
 20
-49.815742
 30
0.0
  0
LWPOLYLINE
  5
145
100
AcDbEntity
  8
0
 62
7
100
AcDbPolyline
 90
4
 70
1
 10
312.134061
 20
-121.217764
 30
0.0
 10
312.134061
 20
-107.217268
 30
0.0
 10
326.134557
 20
-107.217268
 30
0.0
 10
326.134557
 20
-121.217764
 30
0.0
  0
LWPOLYLINE
  5
146
100
AcDbEntity
  8
0
 62
7
100
AcDbPolyline
 90
4
 70
1
 10
326.134557
 20
-83.016120
 30
0.0
 10
312.134061
 20
-83.016120
 30
0.0
 10
312.134061
 20
-69.018164
 30
0.0
 10
326.134557
 20
-69.018164
 30
0.0
  0
LWPOLYLINE
  5
147
100
AcDbEntity
  8
0
 62
7
100
AcDbPolyline
 90
4
 70
1
 10
326.134557
 20
-49.957982
 30
0.0
 10
326.134557
 20
-63.955938
 30
0.0
 10
312.134061
 20
-63.955938
 30
0.0
 10
312.134061
 20
-49.957982
 30
0.0
  0
LWPOLYLINE
  5
148
100
AcDbEntity
  8
0
 62
7
100
AcDbPolyline
 90
4
 70
1
 10
312.134061
 20
-44.956716
 30
0.0
 10
312.134061
 20
-30.956220
 30
0.0
 10
326.134557
 20
-30.956220
 30
0.0
 10
326.134557
 20
-44.956716
 30
0.0
  0
LWPOLYLINE
  5
149
100
AcDbEntity
  8
0
 62
7
100
AcDbPolyline
 90
4
 70
1
 10
307.132795
 20
-118.708241
 30
0.0
 10
293.132299
 20
-118.708241
 30
0.0
 10
293.132299
 20
-104.707745
 30
0.0
 10
307.132795
 20
-104.707745
 30
0.0
  0
LWPOLYLINE
  5
14a
100
AcDbEntity
  8
0
 62
7
100
AcDbPolyline
 90
4
 70
1
 10
293.132299
 20
-99.607419
 30
0.0
 10
293.132299
 20
-85.606923
 30
0.0
 10
307.132795
 20
-85.606923
 30
0.0
 10
307.132795
 20
-99.607419
 30
0.0
  0
LWPOLYLINE
  5
14b
100
AcDbEntity
  8
0
 62
7
100
AcDbPolyline
 90
4
 70
1
 10
307.132795
 20
-42.416713
 30
0.0
 10
293.132299
 20
-42.416713
 30
0.0
 10
293.132299
 20
-28.416217
 30
0.0
 10
307.132795
 20
-28.416217
 30
0.0
  0
LWPOLYLINE
  5
14c
100
AcDbEntity
  8
0
 62
7
100
AcDbPolyline
 90
4
 70
1
 10
274.034018
 20
-107.118207
 30
0.0
 10
288.034514
 20
-107.118207
 30
0.0
 10
288.034514
 20
-121.116163
 30
0.0
 10
274.034018
 20
-121.116163
 30
0.0
  0
LWPOLYLINE
  5
14d
100
AcDbEntity
  8
0
 62
7
100
AcDbPolyline
 90
4
 70
1
 10
274.034018
 20
-102.116942
 30
0.0
 10
274.034018
 20
-88.116446
 30
0.0
 10
288.034514
 20
-88.116446
 30
0.0
 10
288.034514
 20
-102.116942
 30
0.0
  0
LWPOLYLINE
  5
14e
100
AcDbEntity
  8
0
 62
7
100
AcDbPolyline
 90
4
 70
1
 10
288.034514
 20
-44.916076
 30
0.0
 10
274.034018
 20
-44.916076
 30
0.0
 10
274.034018
 20
-30.918120
 30
0.0
 10
288.034514
 20
-30.918120
 30
0.0
  0
LWPOLYLINE
  5
14f
100
AcDbEntity
  8
0
 62
7
100
AcDbPolyline
 90
4
 70
1
 10
269.032752
 20
-104.517244
 30
0.0
 10
255.032256
 20
-104.517244
 30
0.0
 10
255.032256
 20
-90.516748
 30
0.0
 10
269.032752
 20
-90.516748
 30
0.0
  0
LWPOLYLINE
  5
150
100
AcDbEntity
  8
0
 62
7
100
AcDbPolyline
 90
4
 70
1
 10
269.032752
 20
-85.518023
 30
0.0
 10
255.032256
 20
-85.518023
 30
0.0
 10
255.032256
 20
-71.517527
 30
0.0
 10
269.032752
 20
-71.517527
 30
0.0
  0
LWPOLYLINE
  5
151
100
AcDbEntity
  8
0
 62
7
100
AcDbPolyline
 90
4
 70
1
 10
269.032752
 20
-66.516261
 30
0.0
 10
255.032256
 20
-66.516261
 30
0.0
 10
255.032256
 20
-52.515765
 30
0.0
 10
269.032752
 20
-52.515765
 30
0.0
  0
SPLINE
  5
152
100
AcDbEntity
  8
0
 62
7
100
AcDbSpline
 70
8
 71
3
 72
8
 73
4
 74
0
 40
0
 40
0
 40
0
 40
0
 40
1
 40
1
 40
1
 40
1
 10
223.293271
 20
-127.682264
 30
0.0
 10
222.050278
 20
-128.400221
 30
0.0
 10
221.624466
 20
-129.990466
 30
0.0
 10
222.342426
 20
-131.233493
 30
0.0
  0
SPLINE
  5
153
100
AcDbEntity
  8
0
 62
7
100
AcDbSpline
 70
8
 71
3
 72
8
 73
4
 74
0
 40
0
 40
0
 40
0
 40
0
 40
1
 40
1
 40
1
 40
1
 10
222.342426
 20
-131.233493
 30
0.0
 10
223.060383
 20
-132.477840
 30
0.0
 10
224.650641
 20
-132.903672
 30
0.0
 10
225.893635
 20
-132.185689
 30
0.0
  0
SPLINE
  5
154
100
AcDbEntity
  8
0
 62
7
100
AcDbSpline
 70
8
 71
3
 72
8
 73
4
 74
0
 40
0
 40
0
 40
0
 40
0
 40
1
 40
1
 40
1
 40
1
 10
225.893635
 20
-132.185689
 30
0.0
 10
227.138002
 20
-131.467757
 30
0.0
 10
227.563816
 20
-129.877487
 30
0.0
 10
226.845859
 20
-128.634486
 30
0.0
  0
SPLINE
  5
155
100
AcDbEntity
  8
0
 62
7
100
AcDbSpline
 70
8
 71
3
 72
8
 73
4
 74
0
 40
0
 40
0
 40
0
 40
0
 40
1
 40
1
 40
1
 40
1
 10
226.845859
 20
-128.634486
 30
0.0
 10
226.127899
 20
-127.390113
 30
0.0
 10
224.537644
 20
-126.964307
 30
0.0
 10
223.293271
 20
-127.682264
 30
0.0
  0
LWPOLYLINE
  5
156
100
AcDbEntity
  8
0
 62
7
100
AcDbPolyline
 90
4
 70
1
 10
269.032752
 20
-47.417979
 30
0.0
 10
255.032256
 20
-47.417979
 30
0.0
 10
255.032256
 20
-33.417483
 30
0.0
 10
269.032752
 20
-33.417483
 30
0.0
  0
SPLINE
  5
157
100
AcDbEntity
  8
0
 62
7
100
AcDbSpline
 70
8
 71
3
 72
8
 73
4
 74
0
 40
0
 40
0
 40
0
 40
0
 40
1
 40
1
 40
1
 40
1
 10
265.089425
 20
-21.474781
 30
0.0
 10
265.026548
 20
-20.040710
 30
0.0
 10
263.812596
 20
-18.928722
 30
0.0
 10
262.378503
 20
-18.991600
 30
0.0
  0
SPLINE
  5
158
100
AcDbEntity
  8
0
 62
7
100
AcDbSpline
 70
8
 71
3
 72
8
 73
4
 74
0
 40
0
 40
0
 40
0
 40
0
 40
1
 40
1
 40
1
 40
1
 10
262.378503
 20
-18.991600
 30
0.0
 10
260.943229
 20
-19.053858
 30
0.0
 10
259.831218
 20
-20.267812
 30
0.0
 10
259.894119
 20
-21.701880
 30
0.0
  0
SPLINE
  5
159
100
AcDbEntity
  8
0
 62
7
100
AcDbSpline
 70
8
 71
3
 72
8
 73
4
 74
0
 40
0
 40
0
 40
0
 40
0
 40
1
 40
1
 40
1
 40
1
 10
259.894119
 20
-21.701880
 30
0.0
 10
259.956364
 20
-23.137157
 30
0.0
 10
261.170308
 20
-24.249147
 30
0.0
 10
262.604401
 20
-24.186267
 30
0.0
  0
SPLINE
  5
15a
100
AcDbEntity
  8
0
 62
7
100
AcDbSpline
 70
8
 71
3
 72
8
 73
4
 74
0
 40
0
 40
0
 40
0
 40
0
 40
1
 40
1
 40
1
 40
1
 10
262.604401
 20
-24.186267
 30
0.0
 10
264.039680
 20
-24.124024
 30
0.0
 10
265.151696
 20
-22.910065
 30
0.0
 10
265.089425
 20
-21.474781
 30
0.0
  0
LWPOLYLINE
  5
15b
100
AcDbEntity
  8
0
 62
7
100
AcDbPolyline
 90
1
 70
1
 10
223.293271
 20
-127.682264
 30
0.0
  0
SPLINE
  5
15c
100
AcDbEntity
  8
0
 62
7
100
AcDbSpline
 70
8
 71
3
 72
8
 73
4
 74
0
 40
0
 40
0
 40
0
 40
0
 40
1
 40
1
 40
1
 40
1
 10
371.891211
 20
-47.086161
 30
0.0
 10
373.326656
 20
-47.085902
 30
0.0
 10
374.490541
 20
-45.921605
 30
0.0
 10
374.490277
 20
-44.486135
 30
0.0
  0
SPLINE
  5
15d
100
AcDbEntity
  8
0
 62
7
100
AcDbSpline
 70
8
 71
3
 72
8
 73
4
 74
0
 40
0
 40
0
 40
0
 40
0
 40
1
 40
1
 40
1
 40
1
 10
374.490277
 20
-44.486135
 30
0.0
 10
374.490683
 20
-43.049512
 30
0.0
 10
373.326394
 20
-41.885606
 30
0.0
 10
371.890942
 20
-41.885896
 30
0.0
  0
SPLINE
  5
15e
100
AcDbEntity
  8
0
 62
7
100
AcDbSpline
 70
8
 71
3
 72
8
 73
4
 74
0
 40
0
 40
0
 40
0
 40
0
 40
1
 40
1
 40
1
 40
1
 10
371.890942
 20
-41.885896
 30
0.0
 10
370.454319
 20
-41.885472
 30
0.0
 10
369.290433
 20
-43.049758
 30
0.0
 10
369.290703
 20
-44.485228
 30
0.0
  0
SPLINE
  5
15f
100
AcDbEntity
  8
0
 62
7
100
AcDbSpline
 70
8
 71
3
 72
8
 73
4
 74
0
 40
0
 40
0
 40
0
 40
0
 40
1
 40
1
 40
1
 40
1
 10
369.290703
 20
-44.485228
 30
0.0
 10
369.290276
 20
-45.921859
 30
0.0
 10
370.454575
 20
-47.085770
 30
0.0
 10
371.891211
 20
-47.086161
 30
0.0
  0
LWPOLYLINE
  5
160
100
AcDbEntity
  8
0
 62
7
100
AcDbPolyline
 90
1
 70
1
 10
265.089425
 20
-21.474781
 30
0.0
  0
SPLINE
  5
161
100
AcDbEntity
  8
0
 62
7
100
AcDbSpline
 70
8
 71
3
 72
8
 73
4
 74
0
 40
0
 40
0
 40
0
 40
0
 40
1
 40
1
 40
1
 40
1
 10
371.896192
 20
-102.403751
 30
0.0
 10
373.331637
 20
-102.403492
 30
0.0
 10
374.495522
 20
-101.239195
 30
0.0
 10
374.495258
 20
-99.803725
 30
0.0
  0
SPLINE
  5
162
100
AcDbEntity
  8
0
 62
7
100
AcDbSpline
 70
8
 71
3
 72
8
 73
4
 74
0
 40
0
 40
0
 40
0
 40
0
 40
1
 40
1
 40
1
 40
1
 10
374.495258
 20
-99.803725
 30
0.0
 10
374.495664
 20
-98.367102
 30
0.0
 10
373.331375
 20
-97.203197
 30
0.0
 10
371.895923
 20
-97.203486
 30
0.0
  0
SPLINE
  5
163
100
AcDbEntity
  8
0
 62
7
100
AcDbSpline
 70
8
 71
3
 72
8
 73
4
 74
0
 40
0
 40
0
 40
0
 40
0
 40
1
 40
1
 40
1
 40
1
 10
371.895923
 20
-97.203486
 30
0.0
 10
370.459300
 20
-97.203062
 30
0.0
 10
369.295414
 20
-98.367349
 30
0.0
 10
369.295684
 20
-99.802819
 30
0.0
  0
SPLINE
  5
164
100
AcDbEntity
  8
0
 62
7
100
AcDbSpline
 70
8
 71
3
 72
8
 73
4
 74
0
 40
0
 40
0
 40
0
 40
0
 40
1
 40
1
 40
1
 40
1
 10
369.295684
 20
-99.802819
 30
0.0
 10
369.295257
 20
-101.239449
 30
0.0
 10
370.459556
 20
-102.403360
 30
0.0
 10
371.896192
 20
-102.403751
 30
0.0
  0
LWPOLYLINE
  5
165
100
AcDbEntity
  8
0
 62
7
100
AcDbPolyline
 90
1
 70
1
 10
371.891211
 20
-47.086161
 30
0.0
  0
SPLINE
  5
166
100
AcDbEntity
  8
0
 62
7
100
AcDbSpline
 70
8
 71
3
 72
8
 73
4
 74
0
 40
0
 40
0
 40
0
 40
0
 40
1
 40
1
 40
1
 40
1
 10
166.916443
 20
-199.192843
 30
0.0
 10
166.916443
 20
-197.744533
 30
0.0
 10
168.100179
 20
-196.571814
 30
0.0
 10
169.554010
 20
-196.592490
 30
0.0
  0
SPLINE
  5
167
100
AcDbEntity
  8
0
 62
7
100
AcDbSpline
 70
8
 71
3
 72
8
 73
4
 74
0
 40
0
 40
0
 40
0
 40
0
 40
1
 40
1
 40
1
 40
1
 10
169.554010
 20
-196.592490
 30
0.0
 10
170.934809
 20
-196.611794
 30
0.0
 10
172.097872
 20
-197.774835
 30
0.0
 10
172.115786
 20
-199.155632
 30
0.0
  0
SPLINE
  5
168
100
AcDbEntity
  8
0
 62
7
100
AcDbSpline
 70
8
 71
3
 72
8
 73
4
 74
0
 40
0
 40
0
 40
0
 40
0
 40
1
 40
1
 40
1
 40
1
 10
172.115786
 20
-199.155632
 30
0.0
 10
172.136459
 20
-200.608107
 30
0.0
 10
170.965122
 20
-201.791825
 30
0.0
 10
169.516807
 20
-201.791825
 30
0.0
  0
SPLINE
  5
169
100
AcDbEntity
  8
0
 62
7
100
AcDbSpline
 70
8
 71
3
 72
8
 73
4
 74
0
 40
0
 40
0
 40
0
 40
0
 40
1
 40
1
 40
1
 40
1
 10
169.516807
 20
-201.791825
 30
0.0
 10
168.080885
 20
-201.791825
 30
0.0
 10
166.916443
 20
-200.628757
 30
0.0
 10
166.916443
 20
-199.192843
 30
0.0
  0
LWPOLYLINE
  5
16a
100
AcDbEntity
  8
0
 62
7
100
AcDbPolyline
 90
1
 70
1
 10
371.896192
 20
-102.403751
 30
0.0
  0
SPLINE
  5
16b
100
AcDbEntity
  8
0
 62
7
100
AcDbSpline
 70
8
 71
3
 72
8
 73
4
 74
0
 40
0
 40
0
 40
0
 40
0
 40
1
 40
1
 40
1
 40
1
 10
174.625197
 20
-203.524030
 30
0.0
 10
175.023452
 20
-203.524030
 30
0.0
 10
175.271501
 20
-203.074780
 30
0.0
 10
175.041364
 20
-202.748187
 30
0.0
  0
SPLINE
  5
16c
100
AcDbEntity
  8
0
 62
7
100
AcDbSpline
 70
8
 71
3
 72
8
 73
4
 74
0
 40
0
 40
0
 40
0
 40
0
 40
1
 40
1
 40
1
 40
1
 10
175.041364
 20
-202.748187
 30
0.0
 10
174.885649
 20
-202.527714
 30
0.0
 10
174.747844
 20
-202.268634
 30
0.0
 10
174.651380
 20
-201.969599
 30
0.0
  0
SPLINE
  5
16d
100
AcDbEntity
  8
0
 62
7
100
AcDbSpline
 70
8
 71
3
 72
8
 73
4
 74
0
 40
0
 40
0
 40
0
 40
0
 40
1
 40
1
 40
1
 40
1
 10
174.651380
 20
-201.969599
 30
0.0
 10
174.545271
 20
-201.636122
 30
0.0
 10
174.514954
 20
-201.328808
 30
0.0
 10
174.516333
 20
-201.076636
 30
0.0
  0
LWPOLYLINE
  5
16e
100
AcDbEntity
  8
0
 62
7
100
AcDbPolyline
 90
1
 70
1
 10
166.916443
 20
-199.192843
 30
0.0
  0
SPLINE
  5
16f
100
AcDbEntity
  8
0
 62
7
100
AcDbSpline
 70
8
 71
3
 72
8
 73
4
 74
0
 40
0
 40
0
 40
0
 40
0
 40
1
 40
1
 40
1
 40
1
 10
174.516333
 20
-199.323755
 30
0.0
 10
174.516333
 20
-196.756472
 30
0.0
 10
172.636688
 20
-194.504760
 30
0.0
 10
170.085935
 20
-194.223632
 30
0.0
  0
SPLINE
  5
170
100
AcDbEntity
  8
0
 62
7
100
AcDbSpline
 70
8
 71
3
 72
8
 73
4
 74
0
 40
0
 40
0
 40
0
 40
0
 40
1
 40
1
 40
1
 40
1
 10
170.085935
 20
-194.223632
 30
0.0
 10
167.069408
 20
-193.891527
 30
0.0
 10
164.517276
 20
-196.243849
 30
0.0
 10
164.517276
 20
-199.192843
 30
0.0
  0
LWPOLYLINE
  5
171
100
AcDbEntity
  8
0
 62
7
100
AcDbPolyline
 90
2
 70
0
 10
174.516333
 20
-201.076636
 30
0.0
 10
174.516333
 20
-199.323755
 30
0.0
  0
SPLINE
  5
172
100
AcDbEntity
  8
0
 62
7
100
AcDbSpline
 70
8
 71
3
 72
8
 73
4
 74
0
 40
0
 40
0
 40
0
 40
0
 40
1
 40
1
 40
1
 40
1
 10
164.517276
 20
-201.073867
 30
0.0
 10
164.517276
 20
-201.330179
 30
0.0
 10
164.482808
 20
-202.115675
 30
0.0
 10
163.920584
 20
-202.869446
 30
0.0
  0
SPLINE
  5
173
100
AcDbEntity
  8
0
 62
7
100
AcDbSpline
 70
8
 71
3
 72
8
 73
4
 74
0
 40
0
 40
0
 40
0
 40
0
 40
1
 40
1
 40
1
 40
1
 10
163.920584
 20
-202.869446
 30
0.0
 10
163.719390
 20
-203.138179
 30
0.0
 10
163.910952
 20
-203.521262
 30
0.0
 10
164.247182
 20
-203.521262
 30
0.0
  0
LWPOLYLINE
  5
174
100
AcDbEntity
  8
0
 62
7
100
AcDbPolyline
 90
2
 70
0
 10
164.517276
 20
-199.192843
 30
0.0
 10
164.517276
 20
-201.073867
 30
0.0
  0
SPLINE
  5
175
100
AcDbEntity
  8
0
 62
7
100
AcDbSpline
 70
8
 71
3
 72
8
 73
4
 74
0
 40
0
 40
0
 40
0
 40
0
 40
1
 40
1
 40
1
 40
1
 10
181.440983
 20
-199.526345
 30
0.0
 10
181.440983
 20
-198.078010
 30
0.0
 10
182.624721
 20
-196.906688
 30
0.0
 10
184.077170
 20
-196.925966
 30
0.0
  0
SPLINE
  5
176
100
AcDbEntity
  8
0
 62
7
100
AcDbSpline
 70
8
 71
3
 72
8
 73
4
 74
0
 40
0
 40
0
 40
0
 40
0
 40
1
 40
1
 40
1
 40
1
 10
184.077170
 20
-196.925966
 30
0.0
 10
185.457969
 20
-196.945271
 30
0.0
 10
186.621034
 20
-198.108338
 30
0.0
 10
186.640328
 20
-199.489134
 30
0.0
  0
SPLINE
  5
177
100
AcDbEntity
  8
0
 62
7
100
AcDbSpline
 70
8
 71
3
 72
8
 73
4
 74
0
 40
0
 40
0
 40
0
 40
0
 40
1
 40
1
 40
1
 40
1
 10
186.640328
 20
-199.489134
 30
0.0
 10
186.661001
 20
-200.941584
 30
0.0
 10
185.488284
 20
-202.126699
 30
0.0
 10
184.039965
 20
-202.126699
 30
0.0
  0
SPLINE
  5
178
100
AcDbEntity
  8
0
 62
7
100
AcDbSpline
 70
8
 71
3
 72
8
 73
4
 74
0
 40
0
 40
0
 40
0
 40
0
 40
1
 40
1
 40
1
 40
1
 10
184.039965
 20
-202.126699
 30
0.0
 10
182.604048
 20
-202.126699
 30
0.0
 10
181.440983
 20
-200.962260
 30
0.0
 10
181.440983
 20
-199.526345
 30
0.0
  0
LWPOLYLINE
  5
179
100
AcDbEntity
  8
0
 62
7
100
AcDbPolyline
 90
2
 70
0
 10
164.247182
 20
-203.521262
 30
0.0
 10
174.625197
 20
-203.524030
 30
0.0
  0
SPLINE
  5
17a
100
AcDbEntity
  8
0
 62
7
100
AcDbSpline
 70
8
 71
3
 72
8
 73
4
 74
0
 40
0
 40
0
 40
0
 40
0
 40
1
 40
1
 40
1
 40
1
 10
189.148357
 20
-203.858879
 30
0.0
 10
189.547991
 20
-203.858879
 30
0.0
 10
189.796038
 20
-203.408283
 30
0.0
 10
189.565906
 20
-203.083061
 30
0.0
  0
SPLINE
  5
17b
100
AcDbEntity
  8
0
 62
7
100
AcDbSpline
 70
8
 71
3
 72
8
 73
4
 74
0
 40
0
 40
0
 40
0
 40
0
 40
1
 40
1
 40
1
 40
1
 10
189.565906
 20
-203.083061
 30
0.0
 10
189.408807
 20
-202.861191
 30
0.0
 10
189.271004
 20
-202.602111
 30
0.0
 10
189.175922
 20
-202.303076
 30
0.0
  0
SPLINE
  5
17c
100
AcDbEntity
  8
0
 62
7
100
AcDbSpline
 70
8
 71
3
 72
8
 73
4
 74
0
 40
0
 40
0
 40
0
 40
0
 40
1
 40
1
 40
1
 40
1
 10
189.175922
 20
-202.303076
 30
0.0
 10
189.069813
 20
-201.970971
 30
0.0
 10
189.039493
 20
-201.662285
 30
0.0
 10
189.040875
 20
-201.410113
 30
0.0
  0
LWPOLYLINE
  5
17d
100
AcDbEntity
  8
0
 62
7
100
AcDbPolyline
 90
1
 70
1
 10
181.440983
 20
-199.526345
 30
0.0
  0
SPLINE
  5
17e
100
AcDbEntity
  8
0
 62
7
100
AcDbSpline
 70
8
 71
3
 72
8
 73
4
 74
0
 40
0
 40
0
 40
0
 40
0
 40
1
 40
1
 40
1
 40
1
 10
189.040875
 20
-199.657257
 30
0.0
 10
189.040875
 20
-197.091346
 30
0.0
 10
187.159850
 20
-194.838237
 30
0.0
 10
184.609098
 20
-194.557109
 30
0.0
  0
SPLINE
  5
17f
100
AcDbEntity
  8
0
 62
7
100
AcDbSpline
 70
8
 71
3
 72
8
 73
4
 74
0
 40
0
 40
0
 40
0
 40
0
 40
1
 40
1
 40
1
 40
1
 10
184.609098
 20
-194.557109
 30
0.0
 10
181.593944
 20
-194.225004
 30
0.0
 10
179.040436
 20
-196.577326
 30
0.0
 10
179.040436
 20
-199.526345
 30
0.0
  0
LWPOLYLINE
  5
180
100
AcDbEntity
  8
0
 62
7
100
AcDbPolyline
 90
2
 70
0
 10
189.040875
 20
-201.410113
 30
0.0
 10
189.040875
 20
-199.657257
 30
0.0
  0
SPLINE
  5
181
100
AcDbEntity
  8
0
 62
7
100
AcDbSpline
 70
8
 71
3
 72
8
 73
4
 74
0
 40
0
 40
0
 40
0
 40
0
 40
1
 40
1
 40
1
 40
1
 10
179.040436
 20
-201.408741
 30
0.0
 10
179.040436
 20
-201.665053
 30
0.0
 10
179.007383
 20
-202.449152
 30
0.0
 10
178.445123
 20
-203.202949
 30
0.0
  0
SPLINE
  5
182
100
AcDbEntity
  8
0
 62
7
100
AcDbSpline
 70
8
 71
3
 72
8
 73
4
 74
0
 40
0
 40
0
 40
0
 40
0
 40
1
 40
1
 40
1
 40
1
 10
178.445123
 20
-203.202949
 30
0.0
 10
178.243932
 20
-203.471656
 30
0.0
 10
178.435494
 20
-203.854764
 30
0.0
 10
178.770342
 20
-203.854764
 30
0.0
  0
LWPOLYLINE
  5
183
100
AcDbEntity
  8
0
 62
7
100
AcDbPolyline
 90
2
 70
0
 10
179.040436
 20
-199.526345
 30
0.0
 10
179.040436
 20
-201.408741
 30
0.0
  0
SPLINE
  5
184
100
AcDbEntity
  8
0
 62
7
100
AcDbSpline
 70
8
 71
3
 72
8
 73
4
 74
0
 40
0
 40
0
 40
0
 40
0
 40
1
 40
1
 40
1
 40
1
 10
196.103327
 20
-199.693071
 30
0.0
 10
196.103327
 20
-198.244761
 30
0.0
 10
197.287063
 20
-197.073414
 30
0.0
 10
198.739515
 20
-197.092718
 30
0.0
  0
SPLINE
  5
185
100
AcDbEntity
  8
0
 62
7
100
AcDbSpline
 70
8
 71
3
 72
8
 73
4
 74
0
 40
0
 40
0
 40
0
 40
0
 40
1
 40
1
 40
1
 40
1
 10
198.739515
 20
-197.092718
 30
0.0
 10
200.120314
 20
-197.112022
 30
0.0
 10
201.283376
 20
-198.275064
 30
0.0
 10
201.302670
 20
-199.655860
 30
0.0
  0
SPLINE
  5
186
100
AcDbEntity
  8
0
 62
7
100
AcDbSpline
 70
8
 71
3
 72
8
 73
4
 74
0
 40
0
 40
0
 40
0
 40
0
 40
1
 40
1
 40
1
 40
1
 10
201.302670
 20
-199.655860
 30
0.0
 10
201.323343
 20
-201.108335
 30
0.0
 10
200.152006
 20
-202.293450
 30
0.0
 10
198.702307
 20
-202.293450
 30
0.0
  0
SPLINE
  5
187
100
AcDbEntity
  8
0
 62
7
100
AcDbSpline
 70
8
 71
3
 72
8
 73
4
 74
0
 40
0
 40
0
 40
0
 40
0
 40
1
 40
1
 40
1
 40
1
 10
198.702307
 20
-202.293450
 30
0.0
 10
197.267769
 20
-202.293450
 30
0.0
 10
196.103327
 20
-201.128986
 30
0.0
 10
196.103327
 20
-199.693071
 30
0.0
  0
LWPOLYLINE
  5
188
100
AcDbEntity
  8
0
 62
7
100
AcDbPolyline
 90
2
 70
0
 10
178.770342
 20
-203.854764
 30
0.0
 10
189.148357
 20
-203.858879
 30
0.0
  0
SPLINE
  5
189
100
AcDbEntity
  8
0
 62
7
100
AcDbSpline
 70
8
 71
3
 72
8
 73
4
 74
0
 40
0
 40
0
 40
0
 40
0
 40
1
 40
1
 40
1
 40
1
 10
203.810702
 20
-204.025630
 30
0.0
 10
204.210336
 20
-204.025630
 30
0.0
 10
204.458380
 20
-203.575008
 30
0.0
 10
204.228251
 20
-203.249786
 30
0.0
  0
SPLINE
  5
18a
100
AcDbEntity
  8
0
 62
7
100
AcDbSpline
 70
8
 71
3
 72
8
 73
4
 74
0
 40
0
 40
0
 40
0
 40
0
 40
1
 40
1
 40
1
 40
1
 10
204.228251
 20
-203.249786
 30
0.0
 10
204.071151
 20
-203.027942
 30
0.0
 10
203.933349
 20
-202.768862
 30
0.0
 10
203.838264
 20
-202.469828
 30
0.0
  0
SPLINE
  5
18b
100
AcDbEntity
  8
0
 62
7
100
AcDbSpline
 70
8
 71
3
 72
8
 73
4
 74
0
 40
0
 40
0
 40
0
 40
0
 40
1
 40
1
 40
1
 40
1
 10
203.838264
 20
-202.469828
 30
0.0
 10
203.732155
 20
-202.137722
 30
0.0
 10
203.701837
 20
-201.830407
 30
0.0
 10
203.703217
 20
-201.578236
 30
0.0
  0
LWPOLYLINE
  5
18c
100
AcDbEntity
  8
0
 62
7
100
AcDbPolyline
 90
1
 70
1
 10
196.103327
 20
-199.693071
 30
0.0
  0
SPLINE
  5
18d
100
AcDbEntity
  8
0
 62
7
100
AcDbSpline
 70
8
 71
3
 72
8
 73
4
 74
0
 40
0
 40
0
 40
0
 40
0
 40
1
 40
1
 40
1
 40
1
 10
203.703217
 20
-199.823983
 30
0.0
 10
203.703217
 20
-197.258072
 30
0.0
 10
201.822190
 20
-195.006359
 30
0.0
 10
199.271440
 20
-194.723860
 30
0.0
  0
SPLINE
  5
18e
100
AcDbEntity
  8
0
 62
7
100
AcDbSpline
 70
8
 71
3
 72
8
 73
4
 74
0
 40
0
 40
0
 40
0
 40
0
 40
1
 40
1
 40
1
 40
1
 10
199.271440
 20
-194.723860
 30
0.0
 10
196.256289
 20
-194.391755
 30
0.0
 10
193.702781
 20
-196.744077
 30
0.0
 10
193.702781
 20
-199.693071
 30
0.0
  0
LWPOLYLINE
  5
18f
100
AcDbEntity
  8
0
 62
7
100
AcDbPolyline
 90
2
 70
0
 10
203.703217
 20
-201.578236
 30
0.0
 10
203.703217
 20
-199.823983
 30
0.0
  0
SPLINE
  5
190
100
AcDbEntity
  8
0
 62
7
100
AcDbSpline
 70
8
 71
3
 72
8
 73
4
 74
0
 40
0
 40
0
 40
0
 40
0
 40
1
 40
1
 40
1
 40
1
 10
193.702781
 20
-201.575493
 30
0.0
 10
193.702781
 20
-201.831804
 30
0.0
 10
193.669725
 20
-202.615903
 30
0.0
 10
193.107468
 20
-203.371071
 30
0.0
  0
SPLINE
  5
191
100
AcDbEntity
  8
0
 62
7
100
AcDbSpline
 70
8
 71
3
 72
8
 73
4
 74
0
 40
0
 40
0
 40
0
 40
0
 40
1
 40
1
 40
1
 40
1
 10
193.107468
 20
-203.371071
 30
0.0
 10
192.906274
 20
-203.638407
 30
0.0
 10
193.097836
 20
-204.021490
 30
0.0
 10
193.432682
 20
-204.021490
 30
0.0
  0
LWPOLYLINE
  5
192
100
AcDbEntity
  8
0
 62
7
100
AcDbPolyline
 90
2
 70
0
 10
193.702781
 20
-199.693071
 30
0.0
 10
193.702781
 20
-201.575493
 30
0.0
  0
SPLINE
  5
193
100
AcDbEntity
  8
0
 62
7
100
AcDbSpline
 70
8
 71
3
 72
8
 73
4
 74
0
 40
0
 40
0
 40
0
 40
0
 40
1
 40
1
 40
1
 40
1
 10
210.626487
 20
-200.026573
 30
0.0
 10
210.626487
 20
-198.578238
 30
0.0
 10
211.811602
 20
-197.406916
 30
0.0
 10
213.264057
 20
-197.427566
 30
0.0
  0
SPLINE
  5
194
100
AcDbEntity
  8
0
 62
7
100
AcDbSpline
 70
8
 71
3
 72
8
 73
4
 74
0
 40
0
 40
0
 40
0
 40
0
 40
1
 40
1
 40
1
 40
1
 10
213.264057
 20
-197.427566
 30
0.0
 10
214.644851
 20
-197.446870
 30
0.0
 10
215.807918
 20
-198.608566
 30
0.0
 10
215.827207
 20
-199.990734
 30
0.0
  0
SPLINE
  5
195
100
AcDbEntity
  8
0
 62
7
100
AcDbSpline
 70
8
 71
3
 72
8
 73
4
 74
0
 40
0
 40
0
 40
0
 40
0
 40
1
 40
1
 40
1
 40
1
 10
215.827207
 20
-199.990734
 30
0.0
 10
215.846506
 20
-201.443184
 30
0.0
 10
214.675168
 20
-202.626927
 30
0.0
 10
213.226848
 20
-202.626927
 30
0.0
  0
SPLINE
  5
196
100
AcDbEntity
  8
0
 62
7
100
AcDbSpline
 70
8
 71
3
 72
8
 73
4
 74
0
 40
0
 40
0
 40
0
 40
0
 40
1
 40
1
 40
1
 40
1
 10
213.226848
 20
-202.626927
 30
0.0
 10
211.790931
 20
-202.626927
 30
0.0
 10
210.626487
 20
-201.462488
 30
0.0
 10
210.626487
 20
-200.026573
 30
0.0
  0
LWPOLYLINE
  5
197
100
AcDbEntity
  8
0
 62
7
100
AcDbPolyline
 90
2
 70
0
 10
193.432682
 20
-204.021490
 30
0.0
 10
203.810702
 20
-204.025630
 30
0.0
  0
SPLINE
  5
198
100
AcDbEntity
  8
0
 62
7
100
AcDbSpline
 70
8
 71
3
 72
8
 73
4
 74
0
 40
0
 40
0
 40
0
 40
0
 40
1
 40
1
 40
1
 40
1
 10
218.335241
 20
-204.359133
 30
0.0
 10
218.733493
 20
-204.359133
 30
0.0
 10
218.981542
 20
-203.909882
 30
0.0
 10
218.751411
 20
-203.583289
 30
0.0
  0
SPLINE
  5
199
100
AcDbEntity
  8
0
 62
7
100
AcDbSpline
 70
8
 71
3
 72
8
 73
4
 74
0
 40
0
 40
0
 40
0
 40
0
 40
1
 40
1
 40
1
 40
1
 10
218.751411
 20
-203.583289
 30
0.0
 10
218.595691
 20
-203.361419
 30
0.0
 10
218.457885
 20
-203.103736
 30
0.0
 10
218.361426
 20
-202.803305
 30
0.0
  0
SPLINE
  5
19a
100
AcDbEntity
  8
0
 62
7
100
AcDbSpline
 70
8
 71
3
 72
8
 73
4
 74
0
 40
0
 40
0
 40
0
 40
0
 40
1
 40
1
 40
1
 40
1
 10
218.361426
 20
-202.803305
 30
0.0
 10
218.255318
 20
-202.471199
 30
0.0
 10
218.226374
 20
-202.163910
 30
0.0
 10
218.226374
 20
-201.911713
 30
0.0
  0
LWPOLYLINE
  5
19b
100
AcDbEntity
  8
0
 62
7
100
AcDbPolyline
 90
1
 70
1
 10
210.626487
 20
-200.026573
 30
0.0
  0
SPLINE
  5
19c
100
AcDbEntity
  8
0
 62
7
100
AcDbSpline
 70
8
 71
3
 72
8
 73
4
 74
0
 40
0
 40
0
 40
0
 40
0
 40
1
 40
1
 40
1
 40
1
 10
218.226374
 20
-200.157485
 30
0.0
 10
218.226374
 20
-197.591574
 30
0.0
 10
216.346731
 20
-195.339836
 30
0.0
 10
213.795979
 20
-195.058734
 30
0.0
  0
SPLINE
  5
19d
100
AcDbEntity
  8
0
 62
7
100
AcDbSpline
 70
8
 71
3
 72
8
 73
4
 74
0
 40
0
 40
0
 40
0
 40
0
 40
1
 40
1
 40
1
 40
1
 10
213.795979
 20
-195.058734
 30
0.0
 10
210.779449
 20
-194.725257
 30
0.0
 10
208.227317
 20
-197.077554
 30
0.0
 10
208.227317
 20
-200.026573
 30
0.0
  0
LWPOLYLINE
  5
19e
100
AcDbEntity
  8
0
 62
7
100
AcDbPolyline
 90
2
 70
0
 10
218.226374
 20
-201.911713
 30
0.0
 10
218.226374
 20
-200.157485
 30
0.0
  0
SPLINE
  5
19f
100
AcDbEntity
  8
0
 62
7
100
AcDbSpline
 70
8
 71
3
 72
8
 73
4
 74
0
 40
0
 40
0
 40
0
 40
0
 40
1
 40
1
 40
1
 40
1
 10
208.227317
 20
-201.908970
 30
0.0
 10
208.227317
 20
-202.165281
 30
0.0
 10
208.192852
 20
-202.950752
 30
0.0
 10
207.630630
 20
-203.704548
 30
0.0
  0
SPLINE
  5
1a0
100
AcDbEntity
  8
0
 62
7
100
AcDbSpline
 70
8
 71
3
 72
8
 73
4
 74
0
 40
0
 40
0
 40
0
 40
0
 40
1
 40
1
 40
1
 40
1
 10
207.630630
 20
-203.704548
 30
0.0
 10
207.429437
 20
-203.973281
 30
0.0
 10
207.620998
 20
-204.354992
 30
0.0
 10
207.957224
 20
-204.356364
 30
0.0
  0
LWPOLYLINE
  5
1a1
100
AcDbEntity
  8
0
 62
7
100
AcDbPolyline
 90
2
 70
0
 10
208.227317
 20
-200.026573
 30
0.0
 10
208.227317
 20
-201.908970
 30
0.0
  0
SPLINE
  5
1a2
100
AcDbEntity
  8
0
 62
7
100
AcDbSpline
 70
8
 71
3
 72
8
 73
4
 74
0
 40
0
 40
0
 40
0
 40
0
 40
1
 40
1
 40
1
 40
1
 10
166.668397
 20
-213.090393
 30
0.0
 10
166.668397
 20
-211.642058
 30
0.0
 10
167.852135
 20
-210.470735
 30
0.0
 10
169.304585
 20
-210.491385
 30
0.0
  0
SPLINE
  5
1a3
100
AcDbEntity
  8
0
 62
7
100
AcDbSpline
 70
8
 71
3
 72
8
 73
4
 74
0
 40
0
 40
0
 40
0
 40
0
 40
1
 40
1
 40
1
 40
1
 10
169.304585
 20
-210.491385
 30
0.0
 10
170.685384
 20
-210.510689
 30
0.0
 10
171.848448
 20
-211.672385
 30
0.0
 10
171.867740
 20
-213.053182
 30
0.0
  0
SPLINE
  5
1a4
100
AcDbEntity
  8
0
 62
7
100
AcDbSpline
 70
8
 71
3
 72
8
 73
4
 74
0
 40
0
 40
0
 40
0
 40
0
 40
1
 40
1
 40
1
 40
1
 10
171.867740
 20
-213.053182
 30
0.0
 10
171.888413
 20
-214.507003
 30
0.0
 10
170.717078
 20
-215.690746
 30
0.0
 10
169.267379
 20
-215.690746
 30
0.0
  0
SPLINE
  5
1a5
100
AcDbEntity
  8
0
 62
7
100
AcDbSpline
 70
8
 71
3
 72
8
 73
4
 74
0
 40
0
 40
0
 40
0
 40
0
 40
1
 40
1
 40
1
 40
1
 10
169.267379
 20
-215.690746
 30
0.0
 10
167.832841
 20
-215.690746
 30
0.0
 10
166.668397
 20
-214.526307
 30
0.0
 10
166.668397
 20
-213.090393
 30
0.0
  0
LWPOLYLINE
  5
1a6
100
AcDbEntity
  8
0
 62
7
100
AcDbPolyline
 90
2
 70
0
 10
207.957224
 20
-204.356364
 30
0.0
 10
218.335241
 20
-204.359133
 30
0.0
  0
SPLINE
  5
1a7
100
AcDbEntity
  8
0
 62
7
100
AcDbSpline
 70
8
 71
3
 72
8
 73
4
 74
0
 40
0
 40
0
 40
0
 40
0
 40
1
 40
1
 40
1
 40
1
 10
174.375772
 20
-217.422926
 30
0.0
 10
174.775406
 20
-217.422926
 30
0.0
 10
175.023452
 20
-216.973701
 30
0.0
 10
174.793320
 20
-216.647108
 30
0.0
  0
SPLINE
  5
1a8
100
AcDbEntity
  8
0
 62
7
100
AcDbSpline
 70
8
 71
3
 72
8
 73
4
 74
0
 40
0
 40
0
 40
0
 40
0
 40
1
 40
1
 40
1
 40
1
 10
174.793320
 20
-216.647108
 30
0.0
 10
174.636221
 20
-216.425239
 30
0.0
 10
174.498418
 20
-216.167555
 30
0.0
 10
174.403333
 20
-215.867124
 30
0.0
  0
SPLINE
  5
1a9
100
AcDbEntity
  8
0
 62
7
100
AcDbSpline
 70
8
 71
3
 72
8
 73
4
 74
0
 40
0
 40
0
 40
0
 40
0
 40
1
 40
1
 40
1
 40
1
 10
174.403333
 20
-215.867124
 30
0.0
 10
174.297225
 20
-215.535018
 30
0.0
 10
174.266907
 20
-215.227729
 30
0.0
 10
174.268286
 20
-214.975532
 30
0.0
  0
LWPOLYLINE
  5
1aa
100
AcDbEntity
  8
0
 62
7
100
AcDbPolyline
 90
1
 70
1
 10
166.668397
 20
-213.090393
 30
0.0
  0
SPLINE
  5
1ab
100
AcDbEntity
  8
0
 62
7
100
AcDbSpline
 70
8
 71
3
 72
8
 73
4
 74
0
 40
0
 40
0
 40
0
 40
0
 40
1
 40
1
 40
1
 40
1
 10
174.268286
 20
-213.222676
 30
0.0
 10
174.268286
 20
-210.655393
 30
0.0
 10
172.387259
 20
-208.403655
 30
0.0
 10
169.836512
 20
-208.122553
 30
0.0
  0
SPLINE
  5
1ac
100
AcDbEntity
  8
0
 62
7
100
AcDbSpline
 70
8
 71
3
 72
8
 73
4
 74
0
 40
0
 40
0
 40
0
 40
0
 40
1
 40
1
 40
1
 40
1
 10
169.836512
 20
-208.122553
 30
0.0
 10
166.821358
 20
-207.789051
 30
0.0
 10
164.267850
 20
-210.141373
 30
0.0
 10
164.267850
 20
-213.090393
 30
0.0
  0
LWPOLYLINE
  5
1ad
100
AcDbEntity
  8
0
 62
7
100
AcDbPolyline
 90
2
 70
0
 10
174.268286
 20
-214.975532
 30
0.0
 10
174.268286
 20
-213.222676
 30
0.0
  0
SPLINE
  5
1ae
100
AcDbEntity
  8
0
 62
7
100
AcDbSpline
 70
8
 71
3
 72
8
 73
4
 74
0
 40
0
 40
0
 40
0
 40
0
 40
1
 40
1
 40
1
 40
1
 10
164.267850
 20
-214.972789
 30
0.0
 10
164.267850
 20
-215.229100
 30
0.0
 10
164.234795
 20
-216.014571
 30
0.0
 10
163.672537
 20
-216.768368
 30
0.0
  0
SPLINE
  5
1af
100
AcDbEntity
  8
0
 62
7
100
AcDbSpline
 70
8
 71
3
 72
8
 73
4
 74
0
 40
0
 40
0
 40
0
 40
0
 40
1
 40
1
 40
1
 40
1
 10
163.672537
 20
-216.768368
 30
0.0
 10
163.471344
 20
-217.037075
 30
0.0
 10
163.662908
 20
-217.418812
 30
0.0
 10
163.997754
 20
-217.420183
 30
0.0
  0
LWPOLYLINE
  5
1b0
100
AcDbEntity
  8
0
 62
7
100
AcDbPolyline
 90
2
 70
0
 10
164.267850
 20
-213.090393
 30
0.0
 10
164.267850
 20
-214.972789
 30
0.0
  0
SPLINE
  5
1b1
100
AcDbEntity
  8
0
 62
7
100
AcDbSpline
 70
8
 71
3
 72
8
 73
4
 74
0
 40
0
 40
0
 40
0
 40
0
 40
1
 40
1
 40
1
 40
1
 10
181.191560
 20
-213.423870
 30
0.0
 10
181.191560
 20
-211.975535
 30
0.0
 10
182.375292
 20
-210.804212
 30
0.0
 10
183.829127
 20
-210.824888
 30
0.0
  0
SPLINE
  5
1b2
100
AcDbEntity
  8
0
 62
7
100
AcDbSpline
 70
8
 71
3
 72
8
 73
4
 74
0
 40
0
 40
0
 40
0
 40
0
 40
1
 40
1
 40
1
 40
1
 10
183.829127
 20
-210.824888
 30
0.0
 10
185.209920
 20
-210.844192
 30
0.0
 10
186.372988
 20
-212.007234
 30
0.0
 10
186.392279
 20
-213.388030
 30
0.0
  0
SPLINE
  5
1b3
100
AcDbEntity
  8
0
 62
7
100
AcDbSpline
 70
8
 71
3
 72
8
 73
4
 74
0
 40
0
 40
0
 40
0
 40
0
 40
1
 40
1
 40
1
 40
1
 10
186.392279
 20
-213.388030
 30
0.0
 10
186.411575
 20
-214.840480
 30
0.0
 10
185.240238
 20
-216.024223
 30
0.0
 10
183.791918
 20
-216.024223
 30
0.0
  0
SPLINE
  5
1b4
100
AcDbEntity
  8
0
 62
7
100
AcDbSpline
 70
8
 71
3
 72
8
 73
4
 74
0
 40
0
 40
0
 40
0
 40
0
 40
1
 40
1
 40
1
 40
1
 10
183.791918
 20
-216.024223
 30
0.0
 10
182.356001
 20
-216.024223
 30
0.0
 10
181.191560
 20
-214.859784
 30
0.0
 10
181.191560
 20
-213.423870
 30
0.0
  0
LWPOLYLINE
  5
1b5
100
AcDbEntity
  8
0
 62
7
100
AcDbPolyline
 90
2
 70
0
 10
163.997754
 20
-217.420183
 30
0.0
 10
174.375772
 20
-217.422926
 30
0.0
  0
SPLINE
  5
1b6
100
AcDbEntity
  8
0
 62
7
100
AcDbSpline
 70
8
 71
3
 72
8
 73
4
 74
0
 40
0
 40
0
 40
0
 40
0
 40
1
 40
1
 40
1
 40
1
 10
188.900313
 20
-217.756429
 30
0.0
 10
189.298563
 20
-217.756429
 30
0.0
 10
189.546612
 20
-217.307178
 30
0.0
 10
189.316480
 20
-216.980585
 30
0.0
  0
SPLINE
  5
1b7
100
AcDbEntity
  8
0
 62
7
100
AcDbSpline
 70
8
 71
3
 72
8
 73
4
 74
0
 40
0
 40
0
 40
0
 40
0
 40
1
 40
1
 40
1
 40
1
 10
189.316480
 20
-216.980585
 30
0.0
 10
189.160763
 20
-216.760087
 30
0.0
 10
189.022955
 20
-216.501032
 30
0.0
 10
188.926496
 20
-216.201998
 30
0.0
  0
SPLINE
  5
1b8
100
AcDbEntity
  8
0
 62
7
100
AcDbSpline
 70
8
 71
3
 72
8
 73
4
 74
0
 40
0
 40
0
 40
0
 40
0
 40
1
 40
1
 40
1
 40
1
 10
188.926496
 20
-216.201998
 30
0.0
 10
188.820387
 20
-215.868521
 30
0.0
 10
188.791446
 20
-215.561206
 30
0.0
 10
188.791446
 20
-215.309034
 30
0.0
  0
LWPOLYLINE
  5
1b9
100
AcDbEntity
  8
0
 62
7
100
AcDbPolyline
 90
1
 70
1
 10
181.191560
 20
-213.423870
 30
0.0
  0
SPLINE
  5
1ba
100
AcDbEntity
  8
0
 62
7
100
AcDbSpline
 70
8
 71
3
 72
8
 73
4
 74
0
 40
0
 40
0
 40
0
 40
0
 40
1
 40
1
 40
1
 40
1
 10
188.791446
 20
-213.556153
 30
0.0
 10
188.791446
 20
-210.988870
 30
0.0
 10
186.911801
 20
-208.737158
 30
0.0
 10
184.361049
 20
-208.456030
 30
0.0
  0
SPLINE
  5
1bb
100
AcDbEntity
  8
0
 62
7
100
AcDbSpline
 70
8
 71
3
 72
8
 73
4
 74
0
 40
0
 40
0
 40
0
 40
0
 40
1
 40
1
 40
1
 40
1
 10
184.361049
 20
-208.456030
 30
0.0
 10
181.344521
 20
-208.122553
 30
0.0
 10
178.792390
 20
-210.476247
 30
0.0
 10
178.792390
 20
-213.423870
 30
0.0
  0
LWPOLYLINE
  5
1bc
100
AcDbEntity
  8
0
 62
7
100
AcDbPolyline
 90
2
 70
0
 10
188.791446
 20
-215.309034
 30
0.0
 10
188.791446
 20
-213.556153
 30
0.0
  0
SPLINE
  5
1bd
100
AcDbEntity
  8
0
 62
7
100
AcDbSpline
 70
8
 71
3
 72
8
 73
4
 74
0
 40
0
 40
0
 40
0
 40
0
 40
1
 40
1
 40
1
 40
1
 10
178.792390
 20
-215.306266
 30
0.0
 10
178.790977
 20
-215.562577
 30
0.0
 10
178.757957
 20
-216.348073
 30
0.0
 10
178.195700
 20
-217.101845
 30
0.0
  0
SPLINE
  5
1be
100
AcDbEntity
  8
0
 62
7
100
AcDbSpline
 70
8
 71
3
 72
8
 73
4
 74
0
 40
0
 40
0
 40
0
 40
0
 40
1
 40
1
 40
1
 40
1
 10
178.195700
 20
-217.101845
 30
0.0
 10
177.994506
 20
-217.370577
 30
0.0
 10
178.186068
 20
-217.753660
 30
0.0
 10
178.522293
 20
-217.753660
 30
0.0
  0
LWPOLYLINE
  5
1bf
100
AcDbEntity
  8
0
 62
7
100
AcDbPolyline
 90
2
 70
0
 10
178.792390
 20
-213.423870
 30
0.0
 10
178.792390
 20
-215.306266
 30
0.0
  0
SPLINE
  5
1c0
100
AcDbEntity
  8
0
 62
7
100
AcDbSpline
 70
8
 71
3
 72
8
 73
4
 74
0
 40
0
 40
0
 40
0
 40
0
 40
1
 40
1
 40
1
 40
1
 10
195.853902
 20
-213.591992
 30
0.0
 10
195.853902
 20
-212.143657
 30
0.0
 10
197.039014
 20
-210.970963
 30
0.0
 10
198.491469
 20
-210.991614
 30
0.0
  0
SPLINE
  5
1c1
100
AcDbEntity
  8
0
 62
7
100
AcDbSpline
 70
8
 71
3
 72
8
 73
4
 74
0
 40
0
 40
0
 40
0
 40
0
 40
1
 40
1
 40
1
 40
1
 10
198.491469
 20
-210.991614
 30
0.0
 10
199.872265
 20
-211.010918
 30
0.0
 10
201.035332
 20
-212.173985
 30
0.0
 10
201.054621
 20
-213.554781
 30
0.0
  0
SPLINE
  5
1c2
100
AcDbEntity
  8
0
 62
7
100
AcDbSpline
 70
8
 71
3
 72
8
 73
4
 74
0
 40
0
 40
0
 40
0
 40
0
 40
1
 40
1
 40
1
 40
1
 10
201.054621
 20
-213.554781
 30
0.0
 10
201.073917
 20
-215.007231
 30
0.0
 10
199.902582
 20
-216.190974
 30
0.0
 10
198.454263
 20
-216.190974
 30
0.0
  0
SPLINE
  5
1c3
100
AcDbEntity
  8
0
 62
7
100
AcDbSpline
 70
8
 71
3
 72
8
 73
4
 74
0
 40
0
 40
0
 40
0
 40
0
 40
1
 40
1
 40
1
 40
1
 10
198.454263
 20
-216.190974
 30
0.0
 10
197.018346
 20
-216.190974
 30
0.0
 10
195.853902
 20
-215.027907
 30
0.0
 10
195.853902
 20
-213.591992
 30
0.0
  0
LWPOLYLINE
  5
1c4
100
AcDbEntity
  8
0
 62
7
100
AcDbPolyline
 90
2
 70
0
 10
178.522293
 20
-217.753660
 30
0.0
 10
188.900313
 20
-217.756429
 30
0.0
  0
SPLINE
  5
1c5
100
AcDbEntity
  8
0
 62
7
100
AcDbSpline
 70
8
 71
3
 72
8
 73
4
 74
0
 40
0
 40
0
 40
0
 40
0
 40
1
 40
1
 40
1
 40
1
 10
203.562655
 20
-217.923155
 30
0.0
 10
203.960908
 20
-217.923155
 30
0.0
 10
204.208957
 20
-217.473930
 30
0.0
 10
203.978825
 20
-217.148708
 30
0.0
  0
SPLINE
  5
1c6
100
AcDbEntity
  8
0
 62
7
100
AcDbSpline
 70
8
 71
3
 72
8
 73
4
 74
0
 40
0
 40
0
 40
0
 40
0
 40
1
 40
1
 40
1
 40
1
 10
203.978825
 20
-217.148708
 30
0.0
 10
203.823105
 20
-216.926838
 30
0.0
 10
203.685300
 20
-216.667783
 30
0.0
 10
203.588838
 20
-216.368749
 30
0.0
  0
SPLINE
  5
1c7
100
AcDbEntity
  8
0
 62
7
100
AcDbSpline
 70
8
 71
3
 72
8
 73
4
 74
0
 40
0
 40
0
 40
0
 40
0
 40
1
 40
1
 40
1
 40
1
 10
203.588838
 20
-216.368749
 30
0.0
 10
203.482729
 20
-216.035247
 30
0.0
 10
203.453788
 20
-215.727957
 30
0.0
 10
203.455168
 20
-215.475760
 30
0.0
  0
LWPOLYLINE
  5
1c8
100
AcDbEntity
  8
0
 62
7
100
AcDbPolyline
 90
1
 70
1
 10
195.853902
 20
-213.591992
 30
0.0
  0
SPLINE
  5
1c9
100
AcDbEntity
  8
0
 62
7
100
AcDbSpline
 70
8
 71
3
 72
8
 73
4
 74
0
 40
0
 40
0
 40
0
 40
0
 40
1
 40
1
 40
1
 40
1
 10
203.455168
 20
-213.722904
 30
0.0
 10
203.455168
 20
-211.155622
 30
0.0
 10
201.574143
 20
-208.903884
 30
0.0
 10
199.023391
 20
-208.622781
 30
0.0
  0
SPLINE
  5
1ca
100
AcDbEntity
  8
0
 62
7
100
AcDbSpline
 70
8
 71
3
 72
8
 73
4
 74
0
 40
0
 40
0
 40
0
 40
0
 40
1
 40
1
 40
1
 40
1
 10
199.023391
 20
-208.622781
 30
0.0
 10
196.006863
 20
-208.290676
 30
0.0
 10
193.454732
 20
-210.642973
 30
0.0
 10
193.454732
 20
-213.591992
 30
0.0
  0
LWPOLYLINE
  5
1cb
100
AcDbEntity
  8
0
 62
7
100
AcDbPolyline
 90
2
 70
0
 10
203.455168
 20
-215.475760
 30
0.0
 10
203.455168
 20
-213.722904
 30
0.0
  0
SPLINE
  5
1cc
100
AcDbEntity
  8
0
 62
7
100
AcDbSpline
 70
8
 71
3
 72
8
 73
4
 74
0
 40
0
 40
0
 40
0
 40
0
 40
1
 40
1
 40
1
 40
1
 10
193.454732
 20
-215.474389
 30
0.0
 10
193.454732
 20
-215.730700
 30
0.0
 10
193.420266
 20
-216.514799
 30
0.0
 10
192.858042
 20
-217.268596
 30
0.0
  0
SPLINE
  5
1cd
100
AcDbEntity
  8
0
 62
7
100
AcDbSpline
 70
8
 71
3
 72
8
 73
4
 74
0
 40
0
 40
0
 40
0
 40
0
 40
1
 40
1
 40
1
 40
1
 10
192.858042
 20
-217.268596
 30
0.0
 10
192.656851
 20
-217.537303
 30
0.0
 10
192.848413
 20
-217.920411
 30
0.0
 10
193.184638
 20
-217.920411
 30
0.0
  0
LWPOLYLINE
  5
1ce
100
AcDbEntity
  8
0
 62
7
100
AcDbPolyline
 90
2
 70
0
 10
193.454732
 20
-213.591992
 30
0.0
 10
193.454732
 20
-215.474389
 30
0.0
  0
SPLINE
  5
1cf
100
AcDbEntity
  8
0
 62
7
100
AcDbSpline
 70
8
 71
3
 72
8
 73
4
 74
0
 40
0
 40
0
 40
0
 40
0
 40
1
 40
1
 40
1
 40
1
 10
210.378441
 20
-213.925469
 30
0.0
 10
210.378441
 20
-212.477160
 30
0.0
 10
211.562176
 20
-211.305812
 30
0.0
 10
213.016008
 20
-211.325116
 30
0.0
  0
SPLINE
  5
1d0
100
AcDbEntity
  8
0
 62
7
100
AcDbSpline
 70
8
 71
3
 72
8
 73
4
 74
0
 40
0
 40
0
 40
0
 40
0
 40
1
 40
1
 40
1
 40
1
 10
213.016008
 20
-211.325116
 30
0.0
 10
214.395425
 20
-211.344395
 30
0.0
 10
215.558490
 20
-212.507462
 30
0.0
 10
215.577784
 20
-213.888258
 30
0.0
  0
SPLINE
  5
1d1
100
AcDbEntity
  8
0
 62
7
100
AcDbSpline
 70
8
 71
3
 72
8
 73
4
 74
0
 40
0
 40
0
 40
0
 40
0
 40
1
 40
1
 40
1
 40
1
 10
215.577784
 20
-213.888258
 30
0.0
 10
215.598457
 20
-215.340708
 30
0.0
 10
214.427119
 20
-216.525823
 30
0.0
 10
212.978799
 20
-216.525823
 30
0.0
  0
SPLINE
  5
1d2
100
AcDbEntity
  8
0
 62
7
100
AcDbSpline
 70
8
 71
3
 72
8
 73
4
 74
0
 40
0
 40
0
 40
0
 40
0
 40
1
 40
1
 40
1
 40
1
 10
212.978799
 20
-216.525823
 30
0.0
 10
211.542882
 20
-216.525823
 30
0.0
 10
210.378441
 20
-215.361384
 30
0.0
 10
210.378441
 20
-213.925469
 30
0.0
  0
LWPOLYLINE
  5
1d3
100
AcDbEntity
  8
0
 62
7
100
AcDbPolyline
 90
2
 70
0
 10
193.184638
 20
-217.920411
 30
0.0
 10
203.562655
 20
-217.923155
 30
0.0
  0
SPLINE
  5
1d4
100
AcDbEntity
  8
0
 62
7
100
AcDbSpline
 70
8
 71
3
 72
8
 73
4
 74
0
 40
0
 40
0
 40
0
 40
0
 40
1
 40
1
 40
1
 40
1
 10
218.085818
 20
-218.258029
 30
0.0
 10
218.485447
 20
-218.258029
 30
0.0
 10
218.733493
 20
-217.807407
 30
0.0
 10
218.503362
 20
-217.482185
 30
0.0
  0
SPLINE
  5
1d5
100
AcDbEntity
  8
0
 62
7
100
AcDbSpline
 70
8
 71
3
 72
8
 73
4
 74
0
 40
0
 40
0
 40
0
 40
0
 40
1
 40
1
 40
1
 40
1
 10
218.503362
 20
-217.482185
 30
0.0
 10
218.346267
 20
-217.260315
 30
0.0
 10
218.208460
 20
-217.001260
 30
0.0
 10
218.113377
 20
-216.702226
 30
0.0
  0
SPLINE
  5
1d6
100
AcDbEntity
  8
0
 62
7
100
AcDbSpline
 70
8
 71
3
 72
8
 73
4
 74
0
 40
0
 40
0
 40
0
 40
0
 40
1
 40
1
 40
1
 40
1
 10
218.113377
 20
-216.702226
 30
0.0
 10
218.007268
 20
-216.370121
 30
0.0
 10
217.976951
 20
-216.062806
 30
0.0
 10
217.978330
 20
-215.810634
 30
0.0
  0
LWPOLYLINE
  5
1d7
100
AcDbEntity
  8
0
 62
7
100
AcDbPolyline
 90
1
 70
1
 10
210.378441
 20
-213.925469
 30
0.0
  0
SPLINE
  5
1d8
100
AcDbEntity
  8
0
 62
7
100
AcDbSpline
 70
8
 71
3
 72
8
 73
4
 74
0
 40
0
 40
0
 40
0
 40
0
 40
1
 40
1
 40
1
 40
1
 10
217.978330
 20
-214.056381
 30
0.0
 10
217.978330
 20
-211.490470
 30
0.0
 10
216.098682
 20
-209.238758
 30
0.0
 10
213.546553
 20
-208.956258
 30
0.0
  0
SPLINE
  5
1d9
100
AcDbEntity
  8
0
 62
7
100
AcDbSpline
 70
8
 71
3
 72
8
 73
4
 74
0
 40
0
 40
0
 40
0
 40
0
 40
1
 40
1
 40
1
 40
1
 10
213.546553
 20
-208.956258
 30
0.0
 10
210.531400
 20
-208.624153
 30
0.0
 10
207.977894
 20
-210.976475
 30
0.0
 10
207.977894
 20
-213.925469
 30
0.0
  0
LWPOLYLINE
  5
1da
100
AcDbEntity
  8
0
 62
7
100
AcDbPolyline
 90
2
 70
0
 10
217.978330
 20
-215.810634
 30
0.0
 10
217.978330
 20
-214.056381
 30
0.0
  0
SPLINE
  5
1db
100
AcDbEntity
  8
0
 62
7
100
AcDbSpline
 70
8
 71
3
 72
8
 73
4
 74
0
 40
0
 40
0
 40
0
 40
0
 40
1
 40
1
 40
1
 40
1
 10
207.977894
 20
-215.807866
 30
0.0
 10
207.977894
 20
-216.064203
 30
0.0
 10
207.944839
 20
-216.848302
 30
0.0
 10
207.382581
 20
-217.602073
 30
0.0
  0
SPLINE
  5
1dc
100
AcDbEntity
  8
0
 62
7
100
AcDbSpline
 70
8
 71
3
 72
8
 73
4
 74
0
 40
0
 40
0
 40
0
 40
0
 40
1
 40
1
 40
1
 40
1
 10
207.382581
 20
-217.602073
 30
0.0
 10
207.181387
 20
-217.870805
 30
0.0
 10
207.372949
 20
-218.253888
 30
0.0
 10
207.707801
 20
-218.253888
 30
0.0
  0
LWPOLYLINE
  5
1dd
100
AcDbEntity
  8
0
 62
7
100
AcDbPolyline
 90
2
 70
0
 10
207.977894
 20
-213.925469
 30
0.0
 10
207.977894
 20
-215.807866
 30
0.0
  0
SPLINE
  5
1de
100
AcDbEntity
  8
0
 62
7
100
AcDbSpline
 70
8
 71
3
 72
8
 73
4
 74
0
 40
0
 40
0
 40
0
 40
0
 40
1
 40
1
 40
1
 40
1
 10
353.310696
 20
-203.153116
 30
0.0
 10
353.310696
 20
-201.704807
 30
0.0
 10
354.494439
 20
-200.532087
 30
0.0
 10
355.948286
 20
-200.552763
 30
0.0
  0
SPLINE
  5
1df
100
AcDbEntity
  8
0
 62
7
100
AcDbSpline
 70
8
 71
3
 72
8
 73
4
 74
0
 40
0
 40
0
 40
0
 40
0
 40
1
 40
1
 40
1
 40
1
 10
355.948286
 20
-200.552763
 30
0.0
 10
357.329082
 20
-200.572067
 30
0.0
 10
358.492124
 20
-201.735109
 30
0.0
 10
358.510057
 20
-203.115905
 30
0.0
  0
SPLINE
  5
1e0
100
AcDbEntity
  8
0
 62
7
100
AcDbSpline
 70
8
 71
3
 72
8
 73
4
 74
0
 40
0
 40
0
 40
0
 40
0
 40
1
 40
1
 40
1
 40
1
 10
358.510057
 20
-203.115905
 30
0.0
 10
358.530732
 20
-204.568381
 30
0.0
 10
357.359384
 20
-205.752098
 30
0.0
 10
355.911075
 20
-205.752098
 30
0.0
  0
SPLINE
  5
1e1
100
AcDbEntity
  8
0
 62
7
100
AcDbSpline
 70
8
 71
3
 72
8
 73
4
 74
0
 40
0
 40
0
 40
0
 40
0
 40
1
 40
1
 40
1
 40
1
 10
355.911075
 20
-205.752098
 30
0.0
 10
354.475160
 20
-205.752098
 30
0.0
 10
353.310696
 20
-204.589031
 30
0.0
 10
353.310696
 20
-203.153116
 30
0.0
  0
LWPOLYLINE
  5
1e2
100
AcDbEntity
  8
0
 62
7
100
AcDbPolyline
 90
2
 70
0
 10
207.707801
 20
-218.253888
 30
0.0
 10
218.085818
 20
-218.258029
 30
0.0
  0
SPLINE
  5
1e3
100
AcDbEntity
  8
0
 62
7
100
AcDbSpline
 70
8
 71
3
 72
8
 73
4
 74
0
 40
0
 40
0
 40
0
 40
0
 40
1
 40
1
 40
1
 40
1
 10
361.019452
 20
-207.484304
 30
0.0
 10
361.417725
 20
-207.484304
 30
0.0
 10
361.665756
 20
-207.035054
 30
0.0
 10
361.435632
 20
-206.708460
 30
0.0
  0
SPLINE
  5
1e4
100
AcDbEntity
  8
0
 62
7
100
AcDbSpline
 70
8
 71
3
 72
8
 73
4
 74
0
 40
0
 40
0
 40
0
 40
0
 40
1
 40
1
 40
1
 40
1
 10
361.435632
 20
-206.708460
 30
0.0
 10
361.279904
 20
-206.487988
 30
0.0
 10
361.142109
 20
-206.228907
 30
0.0
 10
361.045640
 20
-205.929873
 30
0.0
  0
SPLINE
  5
1e5
100
AcDbEntity
  8
0
 62
7
100
AcDbSpline
 70
8
 71
3
 72
8
 73
4
 74
0
 40
0
 40
0
 40
0
 40
0
 40
1
 40
1
 40
1
 40
1
 10
361.045640
 20
-205.929873
 30
0.0
 10
360.939544
 20
-205.596396
 30
0.0
 10
360.909216
 20
-205.289081
 30
0.0
 10
360.910588
 20
-205.036910
 30
0.0
  0
LWPOLYLINE
  5
1e6
100
AcDbEntity
  8
0
 62
7
100
AcDbPolyline
 90
1
 70
1
 10
353.310696
 20
-203.153116
 30
0.0
  0
SPLINE
  5
1e7
100
AcDbEntity
  8
0
 62
7
100
AcDbSpline
 70
8
 71
3
 72
8
 73
4
 74
0
 40
0
 40
0
 40
0
 40
0
 40
1
 40
1
 40
1
 40
1
 10
360.910588
 20
-203.284028
 30
0.0
 10
360.910588
 20
-200.716746
 30
0.0
 10
359.030960
 20
-198.465033
 30
0.0
 10
356.480188
 20
-198.183905
 30
0.0
  0
SPLINE
  5
1e8
100
AcDbEntity
  8
0
 62
7
100
AcDbSpline
 70
8
 71
3
 72
8
 73
4
 74
0
 40
0
 40
0
 40
0
 40
0
 40
1
 40
1
 40
1
 40
1
 10
356.480188
 20
-198.183905
 30
0.0
 10
353.463680
 20
-197.851800
 30
0.0
 10
350.911536
 20
-200.204122
 30
0.0
 10
350.911536
 20
-203.153116
 30
0.0
  0
LWPOLYLINE
  5
1e9
100
AcDbEntity
  8
0
 62
7
100
AcDbPolyline
 90
2
 70
0
 10
360.910588
 20
-205.036910
 30
0.0
 10
360.910588
 20
-203.284028
 30
0.0
  0
SPLINE
  5
1ea
100
AcDbEntity
  8
0
 62
7
100
AcDbSpline
 70
8
 71
3
 72
8
 73
4
 74
0
 40
0
 40
0
 40
0
 40
0
 40
1
 40
1
 40
1
 40
1
 10
350.911536
 20
-205.034141
 30
0.0
 10
350.911536
 20
-205.290453
 30
0.0
 10
350.877068
 20
-206.075949
 30
0.0
 10
350.314839
 20
-206.829720
 30
0.0
  0
SPLINE
  5
1eb
100
AcDbEntity
  8
0
 62
7
100
AcDbSpline
 70
8
 71
3
 72
8
 73
4
 74
0
 40
0
 40
0
 40
0
 40
0
 40
1
 40
1
 40
1
 40
1
 10
350.314839
 20
-206.829720
 30
0.0
 10
350.113645
 20
-207.098452
 30
0.0
 10
350.305212
 20
-207.481535
 30
0.0
 10
350.641458
 20
-207.481535
 30
0.0
  0
LWPOLYLINE
  5
1ec
100
AcDbEntity
  8
0
 62
7
100
AcDbPolyline
 90
2
 70
0
 10
350.911536
 20
-203.153116
 30
0.0
 10
350.911536
 20
-205.034141
 30
0.0
  0
SPLINE
  5
1ed
100
AcDbEntity
  8
0
 62
7
100
AcDbSpline
 70
8
 71
3
 72
8
 73
4
 74
0
 40
0
 40
0
 40
0
 40
0
 40
1
 40
1
 40
1
 40
1
 10
367.835245
 20
-203.486619
 30
0.0
 10
367.835245
 20
-202.038284
 30
0.0
 10
369.018988
 20
-200.866961
 30
0.0
 10
370.471438
 20
-200.886240
 30
0.0
  0
SPLINE
  5
1ee
100
AcDbEntity
  8
0
 62
7
100
AcDbSpline
 70
8
 71
3
 72
8
 73
4
 74
0
 40
0
 40
0
 40
0
 40
0
 40
1
 40
1
 40
1
 40
1
 10
370.471438
 20
-200.886240
 30
0.0
 10
371.852235
 20
-200.905544
 30
0.0
 10
373.015302
 20
-202.068611
 30
0.0
 10
373.034581
 20
-203.449408
 30
0.0
  0
SPLINE
  5
1ef
100
AcDbEntity
  8
0
 62
7
100
AcDbSpline
 70
8
 71
3
 72
8
 73
4
 74
0
 40
0
 40
0
 40
0
 40
0
 40
1
 40
1
 40
1
 40
1
 10
373.034581
 20
-203.449408
 30
0.0
 10
373.055256
 20
-204.901858
 30
0.0
 10
371.882537
 20
-206.086972
 30
0.0
 10
370.434227
 20
-206.086972
 30
0.0
  0
SPLINE
  5
1f0
100
AcDbEntity
  8
0
 62
7
100
AcDbSpline
 70
8
 71
3
 72
8
 73
4
 74
0
 40
0
 40
0
 40
0
 40
0
 40
1
 40
1
 40
1
 40
1
 10
370.434227
 20
-206.086972
 30
0.0
 10
368.998313
 20
-206.086972
 30
0.0
 10
367.835245
 20
-204.922533
 30
0.0
 10
367.835245
 20
-203.486619
 30
0.0
  0
LWPOLYLINE
  5
1f1
100
AcDbEntity
  8
0
 62
7
100
AcDbPolyline
 90
2
 70
0
 10
350.641458
 20
-207.481535
 30
0.0
 10
361.019452
 20
-207.484304
 30
0.0
  0
SPLINE
  5
1f2
100
AcDbEntity
  8
0
 62
7
100
AcDbSpline
 70
8
 71
3
 72
8
 73
4
 74
0
 40
0
 40
0
 40
0
 40
0
 40
1
 40
1
 40
1
 40
1
 10
375.542630
 20
-207.819153
 30
0.0
 10
375.942249
 20
-207.819153
 30
0.0
 10
376.190306
 20
-207.368556
 30
0.0
 10
375.960156
 20
-207.043334
 30
0.0
  0
SPLINE
  5
1f3
100
AcDbEntity
  8
0
 62
7
100
AcDbSpline
 70
8
 71
3
 72
8
 73
4
 74
0
 40
0
 40
0
 40
0
 40
0
 40
1
 40
1
 40
1
 40
1
 10
375.960156
 20
-207.043334
 30
0.0
 10
375.803057
 20
-206.821465
 30
0.0
 10
375.665262
 20
-206.562384
 30
0.0
 10
375.570189
 20
-206.263350
 30
0.0
  0
SPLINE
  5
1f4
100
AcDbEntity
  8
0
 62
7
100
AcDbSpline
 70
8
 71
3
 72
8
 73
4
 74
0
 40
0
 40
0
 40
0
 40
0
 40
1
 40
1
 40
1
 40
1
 10
375.570189
 20
-206.263350
 30
0.0
 10
375.464068
 20
-205.931245
 30
0.0
 10
375.433766
 20
-205.622558
 30
0.0
 10
375.435137
 20
-205.370387
 30
0.0
  0
LWPOLYLINE
  5
1f5
100
AcDbEntity
  8
0
 62
7
100
AcDbPolyline
 90
1
 70
1
 10
367.835245
 20
-203.486619
 30
0.0
  0
SPLINE
  5
1f6
100
AcDbEntity
  8
0
 62
7
100
AcDbSpline
 70
8
 71
3
 72
8
 73
4
 74
0
 40
0
 40
0
 40
0
 40
0
 40
1
 40
1
 40
1
 40
1
 10
375.435137
 20
-203.617530
 30
0.0
 10
375.435137
 20
-201.051620
 30
0.0
 10
373.554113
 20
-198.798510
 30
0.0
 10
371.003366
 20
-198.517382
 30
0.0
  0
SPLINE
  5
1f7
100
AcDbEntity
  8
0
 62
7
100
AcDbSpline
 70
8
 71
3
 72
8
 73
4
 74
0
 40
0
 40
0
 40
0
 40
0
 40
1
 40
1
 40
1
 40
1
 10
371.003366
 20
-198.517382
 30
0.0
 10
367.988204
 20
-198.185277
 30
0.0
 10
365.434689
 20
-200.537599
 30
0.0
 10
365.434689
 20
-203.486619
 30
0.0
  0
LWPOLYLINE
  5
1f8
100
AcDbEntity
  8
0
 62
7
100
AcDbPolyline
 90
2
 70
0
 10
375.435137
 20
-205.370387
 30
0.0
 10
375.435137
 20
-203.617530
 30
0.0
  0
SPLINE
  5
1f9
100
AcDbEntity
  8
0
 62
7
100
AcDbSpline
 70
8
 71
3
 72
8
 73
4
 74
0
 40
0
 40
0
 40
0
 40
0
 40
1
 40
1
 40
1
 40
1
 10
365.434689
 20
-205.369015
 30
0.0
 10
365.434689
 20
-205.625327
 30
0.0
 10
365.401643
 20
-206.409425
 30
0.0
 10
364.839388
 20
-207.163222
 30
0.0
  0
SPLINE
  5
1fa
100
AcDbEntity
  8
0
 62
7
100
AcDbSpline
 70
8
 71
3
 72
8
 73
4
 74
0
 40
0
 40
0
 40
0
 40
0
 40
1
 40
1
 40
1
 40
1
 10
364.839388
 20
-207.163222
 30
0.0
 10
364.638195
 20
-207.431929
 30
0.0
 10
364.829762
 20
-207.815038
 30
0.0
 10
365.164610
 20
-207.815038
 30
0.0
  0
LWPOLYLINE
  5
1fb
100
AcDbEntity
  8
0
 62
7
100
AcDbPolyline
 90
2
 70
0
 10
365.434689
 20
-203.486619
 30
0.0
 10
365.434689
 20
-205.369015
 30
0.0
  0
SPLINE
  5
1fc
100
AcDbEntity
  8
0
 62
7
100
AcDbSpline
 70
8
 71
3
 72
8
 73
4
 74
0
 40
0
 40
0
 40
0
 40
0
 40
1
 40
1
 40
1
 40
1
 10
382.497590
 20
-203.653345
 30
0.0
 10
382.497590
 20
-202.205035
 30
0.0
 10
383.681333
 20
-201.033687
 30
0.0
 10
385.133783
 20
-201.052991
 30
0.0
  0
SPLINE
  5
1fd
100
AcDbEntity
  8
0
 62
7
100
AcDbSpline
 70
8
 71
3
 72
8
 73
4
 74
0
 40
0
 40
0
 40
0
 40
0
 40
1
 40
1
 40
1
 40
1
 10
385.133783
 20
-201.052991
 30
0.0
 10
386.514579
 20
-201.072295
 30
0.0
 10
387.677647
 20
-202.235337
 30
0.0
 10
387.696925
 20
-203.616133
 30
0.0
  0
SPLINE
  5
1fe
100
AcDbEntity
  8
0
 62
7
100
AcDbSpline
 70
8
 71
3
 72
8
 73
4
 74
0
 40
0
 40
0
 40
0
 40
0
 40
1
 40
1
 40
1
 40
1
 10
387.696925
 20
-203.616133
 30
0.0
 10
387.717601
 20
-205.068609
 30
0.0
 10
386.546279
 20
-206.253723
 30
0.0
 10
385.096572
 20
-206.253723
 30
0.0
  0
SPLINE
  5
1ff
100
AcDbEntity
  8
0
 62
7
100
AcDbSpline
 70
8
 71
3
 72
8
 73
4
 74
0
 40
0
 40
0
 40
0
 40
0
 40
1
 40
1
 40
1
 40
1
 10
385.096572
 20
-206.253723
 30
0.0
 10
383.662029
 20
-206.253723
 30
0.0
 10
382.497590
 20
-205.089259
 30
0.0
 10
382.497590
 20
-203.653345
 30
0.0
  0
LWPOLYLINE
  5
200
100
AcDbEntity
  8
0
 62
7
100
AcDbPolyline
 90
2
 70
0
 10
365.164610
 20
-207.815038
 30
0.0
 10
375.542630
 20
-207.819153
 30
0.0
  0
SPLINE
  5
201
100
AcDbEntity
  8
0
 62
7
100
AcDbSpline
 70
8
 71
3
 72
8
 73
4
 74
0
 40
0
 40
0
 40
0
 40
0
 40
1
 40
1
 40
1
 40
1
 10
390.204975
 20
-207.985904
 30
0.0
 10
390.604594
 20
-207.985904
 30
0.0
 10
390.852650
 20
-207.535282
 30
0.0
 10
390.622526
 20
-207.210060
 30
0.0
  0
SPLINE
  5
202
100
AcDbEntity
  8
0
 62
7
100
AcDbSpline
 70
8
 71
3
 72
8
 73
4
 74
0
 40
0
 40
0
 40
0
 40
0
 40
1
 40
1
 40
1
 40
1
 10
390.622526
 20
-207.210060
 30
0.0
 10
390.465401
 20
-206.988216
 30
0.0
 10
390.327606
 20
-206.729136
 30
0.0
 10
390.232534
 20
-206.430101
 30
0.0
  0
SPLINE
  5
203
100
AcDbEntity
  8
0
 62
7
100
AcDbSpline
 70
8
 71
3
 72
8
 73
4
 74
0
 40
0
 40
0
 40
0
 40
0
 40
1
 40
1
 40
1
 40
1
 10
390.232534
 20
-206.430101
 30
0.0
 10
390.126413
 20
-206.097996
 30
0.0
 10
390.096110
 20
-205.790681
 30
0.0
 10
390.097482
 20
-205.538509
 30
0.0
  0
LWPOLYLINE
  5
204
100
AcDbEntity
  8
0
 62
7
100
AcDbPolyline
 90
1
 70
1
 10
382.497590
 20
-203.653345
 30
0.0
  0
SPLINE
  5
205
100
AcDbEntity
  8
0
 62
7
100
AcDbSpline
 70
8
 71
3
 72
8
 73
4
 74
0
 40
0
 40
0
 40
0
 40
0
 40
1
 40
1
 40
1
 40
1
 10
390.097482
 20
-203.784256
 30
0.0
 10
390.097482
 20
-201.218345
 30
0.0
 10
388.216457
 20
-198.966633
 30
0.0
 10
385.665710
 20
-198.684134
 30
0.0
  0
SPLINE
  5
206
100
AcDbEntity
  8
0
 62
7
100
AcDbSpline
 70
8
 71
3
 72
8
 73
4
 74
0
 40
0
 40
0
 40
0
 40
0
 40
1
 40
1
 40
1
 40
1
 10
385.665710
 20
-198.684134
 30
0.0
 10
382.650549
 20
-198.352028
 30
0.0
 10
380.097033
 20
-200.704350
 30
0.0
 10
380.097033
 20
-203.653345
 30
0.0
  0
LWPOLYLINE
  5
207
100
AcDbEntity
  8
0
 62
7
100
AcDbPolyline
 90
2
 70
0
 10
390.097482
 20
-205.538509
 30
0.0
 10
390.097482
 20
-203.784256
 30
0.0
  0
SPLINE
  5
208
100
AcDbEntity
  8
0
 62
7
100
AcDbSpline
 70
8
 71
3
 72
8
 73
4
 74
0
 40
0
 40
0
 40
0
 40
0
 40
1
 40
1
 40
1
 40
1
 10
380.097033
 20
-205.535766
 30
0.0
 10
380.097033
 20
-205.792078
 30
0.0
 10
380.063988
 20
-206.576177
 30
0.0
 10
379.501733
 20
-207.331345
 30
0.0
  0
SPLINE
  5
209
100
AcDbEntity
  8
0
 62
7
100
AcDbSpline
 70
8
 71
3
 72
8
 73
4
 74
0
 40
0
 40
0
 40
0
 40
0
 40
1
 40
1
 40
1
 40
1
 10
379.501733
 20
-207.331345
 30
0.0
 10
379.300539
 20
-207.598680
 30
0.0
 10
379.492106
 20
-207.981763
 30
0.0
 10
379.826955
 20
-207.981763
 30
0.0
  0
LWPOLYLINE
  5
20a
100
AcDbEntity
  8
0
 62
7
100
AcDbPolyline
 90
2
 70
0
 10
380.097033
 20
-203.653345
 30
0.0
 10
380.097033
 20
-205.535766
 30
0.0
  0
SPLINE
  5
20b
100
AcDbEntity
  8
0
 62
7
100
AcDbSpline
 70
8
 71
3
 72
8
 73
4
 74
0
 40
0
 40
0
 40
0
 40
0
 40
1
 40
1
 40
1
 40
1
 10
397.020743
 20
-203.986847
 30
0.0
 10
397.020743
 20
-202.538512
 30
0.0
 10
398.205857
 20
-201.367190
 30
0.0
 10
399.658307
 20
-201.387840
 30
0.0
  0
SPLINE
  5
20c
100
AcDbEntity
  8
0
 62
7
100
AcDbSpline
 70
8
 71
3
 72
8
 73
4
 74
0
 40
0
 40
0
 40
0
 40
0
 40
1
 40
1
 40
1
 40
1
 10
399.658307
 20
-201.387840
 30
0.0
 10
401.039103
 20
-201.407144
 30
0.0
 10
402.202171
 20
-202.568839
 30
0.0
 10
402.221475
 20
-203.951007
 30
0.0
  0
SPLINE
  5
20d
100
AcDbEntity
  8
0
 62
7
100
AcDbSpline
 70
8
 71
3
 72
8
 73
4
 74
0
 40
0
 40
0
 40
0
 40
0
 40
1
 40
1
 40
1
 40
1
 10
402.221475
 20
-203.951007
 30
0.0
 10
402.240779
 20
-205.403457
 30
0.0
 10
401.069431
 20
-206.587200
 30
0.0
 10
399.621121
 20
-206.587200
 30
0.0
  0
SPLINE
  5
20e
100
AcDbEntity
  8
0
 62
7
100
AcDbSpline
 70
8
 71
3
 72
8
 73
4
 74
0
 40
0
 40
0
 40
0
 40
0
 40
1
 40
1
 40
1
 40
1
 10
399.621121
 20
-206.587200
 30
0.0
 10
398.185181
 20
-206.587200
 30
0.0
 10
397.020743
 20
-205.422761
 30
0.0
 10
397.020743
 20
-203.986847
 30
0.0
  0
LWPOLYLINE
  5
20f
100
AcDbEntity
  8
0
 62
7
100
AcDbPolyline
 90
2
 70
0
 10
379.826955
 20
-207.981763
 30
0.0
 10
390.204975
 20
-207.985904
 30
0.0
  0
SPLINE
  5
210
100
AcDbEntity
  8
0
 62
7
100
AcDbSpline
 70
8
 71
3
 72
8
 73
4
 74
0
 40
0
 40
0
 40
0
 40
0
 40
1
 40
1
 40
1
 40
1
 10
404.729499
 20
-208.319406
 30
0.0
 10
405.127746
 20
-208.319406
 30
0.0
 10
405.375803
 20
-207.870156
 30
0.0
 10
405.145678
 20
-207.543562
 30
0.0
  0
SPLINE
  5
211
100
AcDbEntity
  8
0
 62
7
100
AcDbSpline
 70
8
 71
3
 72
8
 73
4
 74
0
 40
0
 40
0
 40
0
 40
0
 40
1
 40
1
 40
1
 40
1
 10
405.145678
 20
-207.543562
 30
0.0
 10
404.989951
 20
-207.321693
 30
0.0
 10
404.852156
 20
-207.064010
 30
0.0
 10
404.755686
 20
-206.763578
 30
0.0
  0
SPLINE
  5
212
100
AcDbEntity
  8
0
 62
7
100
AcDbSpline
 70
8
 71
3
 72
8
 73
4
 74
0
 40
0
 40
0
 40
0
 40
0
 40
1
 40
1
 40
1
 40
1
 10
404.755686
 20
-206.763578
 30
0.0
 10
404.649590
 20
-206.431473
 30
0.0
 10
404.620634
 20
-206.124183
 30
0.0
 10
404.620634
 20
-205.871986
 30
0.0
  0
LWPOLYLINE
  5
213
100
AcDbEntity
  8
0
 62
7
100
AcDbPolyline
 90
1
 70
1
 10
397.020743
 20
-203.986847
 30
0.0
  0
SPLINE
  5
214
100
AcDbEntity
  8
0
 62
7
100
AcDbSpline
 70
8
 71
3
 72
8
 73
4
 74
0
 40
0
 40
0
 40
0
 40
0
 40
1
 40
1
 40
1
 40
1
 10
404.620634
 20
-204.117759
 30
0.0
 10
404.620634
 20
-201.551848
 30
0.0
 10
402.741007
 20
-199.300110
 30
0.0
 10
400.190234
 20
-199.019008
 30
0.0
  0
SPLINE
  5
215
100
AcDbEntity
  8
0
 62
7
100
AcDbSpline
 70
8
 71
3
 72
8
 73
4
 74
0
 40
0
 40
0
 40
0
 40
0
 40
1
 40
1
 40
1
 40
1
 10
400.190234
 20
-199.019008
 30
0.0
 10
397.173701
 20
-198.685531
 30
0.0
 10
394.621583
 20
-201.037827
 30
0.0
 10
394.621583
 20
-203.986847
 30
0.0
  0
LWPOLYLINE
  5
216
100
AcDbEntity
  8
0
 62
7
100
AcDbPolyline
 90
2
 70
0
 10
404.620634
 20
-205.871986
 30
0.0
 10
404.620634
 20
-204.117759
 30
0.0
  0
SPLINE
  5
217
100
AcDbEntity
  8
0
 62
7
100
AcDbSpline
 70
8
 71
3
 72
8
 73
4
 74
0
 40
0
 40
0
 40
0
 40
0
 40
1
 40
1
 40
1
 40
1
 10
394.621583
 20
-205.869243
 30
0.0
 10
394.621583
 20
-206.125555
 30
0.0
 10
394.587115
 20
-206.911025
 30
0.0
 10
394.024885
 20
-207.664822
 30
0.0
  0
SPLINE
  5
218
100
AcDbEntity
  8
0
 62
7
100
AcDbSpline
 70
8
 71
3
 72
8
 73
4
 74
0
 40
0
 40
0
 40
0
 40
0
 40
1
 40
1
 40
1
 40
1
 10
394.024885
 20
-207.664822
 30
0.0
 10
393.823692
 20
-207.933554
 30
0.0
 10
394.015259
 20
-208.315266
 30
0.0
 10
394.351479
 20
-208.316637
 30
0.0
  0
LWPOLYLINE
  5
219
100
AcDbEntity
  8
0
 62
7
100
AcDbPolyline
 90
2
 70
0
 10
394.621583
 20
-203.986847
 30
0.0
 10
394.621583
 20
-205.869243
 30
0.0
  0
SPLINE
  5
21a
100
AcDbEntity
  8
0
 62
7
100
AcDbSpline
 70
8
 71
3
 72
8
 73
4
 74
0
 40
0
 40
0
 40
0
 40
0
 40
1
 40
1
 40
1
 40
1
 10
353.062665
 20
-217.050666
 30
0.0
 10
353.062665
 20
-215.602331
 30
0.0
 10
354.246408
 20
-214.431009
 30
0.0
 10
355.698858
 20
-214.451659
 30
0.0
  0
SPLINE
  5
21b
100
AcDbEntity
  8
0
 62
7
100
AcDbSpline
 70
8
 71
3
 72
8
 73
4
 74
0
 40
0
 40
0
 40
0
 40
0
 40
1
 40
1
 40
1
 40
1
 10
355.698858
 20
-214.451659
 30
0.0
 10
357.079654
 20
-214.470963
 30
0.0
 10
358.242721
 20
-215.632659
 30
0.0
 10
358.262000
 20
-217.013455
 30
0.0
  0
SPLINE
  5
21c
100
AcDbEntity
  8
0
 62
7
100
AcDbSpline
 70
8
 71
3
 72
8
 73
4
 74
0
 40
0
 40
0
 40
0
 40
0
 40
1
 40
1
 40
1
 40
1
 10
358.262000
 20
-217.013455
 30
0.0
 10
358.282676
 20
-218.467276
 30
0.0
 10
357.111328
 20
-219.651019
 30
0.0
 10
355.661647
 20
-219.651019
 30
0.0
  0
SPLINE
  5
21d
100
AcDbEntity
  8
0
 62
7
100
AcDbSpline
 70
8
 71
3
 72
8
 73
4
 74
0
 40
0
 40
0
 40
0
 40
0
 40
1
 40
1
 40
1
 40
1
 10
355.661647
 20
-219.651019
 30
0.0
 10
354.227104
 20
-219.651019
 30
0.0
 10
353.062665
 20
-218.486581
 30
0.0
 10
353.062665
 20
-217.050666
 30
0.0
  0
LWPOLYLINE
  5
21e
100
AcDbEntity
  8
0
 62
7
100
AcDbPolyline
 90
2
 70
0
 10
394.351479
 20
-208.316637
 30
0.0
 10
404.729499
 20
-208.319406
 30
0.0
  0
SPLINE
  5
21f
100
AcDbEntity
  8
0
 62
7
100
AcDbSpline
 70
8
 71
3
 72
8
 73
4
 74
0
 40
0
 40
0
 40
0
 40
0
 40
1
 40
1
 40
1
 40
1
 10
360.770024
 20
-221.383200
 30
0.0
 10
361.169668
 20
-221.383200
 30
0.0
 10
361.417725
 20
-220.933975
 30
0.0
 10
361.187575
 20
-220.607381
 30
0.0
  0
SPLINE
  5
220
100
AcDbEntity
  8
0
 62
7
100
AcDbSpline
 70
8
 71
3
 72
8
 73
4
 74
0
 40
0
 40
0
 40
0
 40
0
 40
1
 40
1
 40
1
 40
1
 10
361.187575
 20
-220.607381
 30
0.0
 10
361.030476
 20
-220.385512
 30
0.0
 10
360.892681
 20
-220.127829
 30
0.0
 10
360.797609
 20
-219.827397
 30
0.0
  0
SPLINE
  5
221
100
AcDbEntity
  8
0
 62
7
100
AcDbSpline
 70
8
 71
3
 72
8
 73
4
 74
0
 40
0
 40
0
 40
0
 40
0
 40
1
 40
1
 40
1
 40
1
 10
360.797609
 20
-219.827397
 30
0.0
 10
360.691487
 20
-219.495292
 30
0.0
 10
360.661160
 20
-219.188002
 30
0.0
 10
360.662557
 20
-218.935805
 30
0.0
  0
LWPOLYLINE
  5
222
100
AcDbEntity
  8
0
 62
7
100
AcDbPolyline
 90
1
 70
1
 10
353.062665
 20
-217.050666
 30
0.0
  0
SPLINE
  5
223
100
AcDbEntity
  8
0
 62
7
100
AcDbSpline
 70
8
 71
3
 72
8
 73
4
 74
0
 40
0
 40
0
 40
0
 40
0
 40
1
 40
1
 40
1
 40
1
 10
360.662557
 20
-217.182949
 30
0.0
 10
360.662557
 20
-214.615667
 30
0.0
 10
358.781532
 20
-212.363929
 30
0.0
 10
356.230785
 20
-212.082827
 30
0.0
  0
SPLINE
  5
224
100
AcDbEntity
  8
0
 62
7
100
AcDbSpline
 70
8
 71
3
 72
8
 73
4
 74
0
 40
0
 40
0
 40
0
 40
0
 40
1
 40
1
 40
1
 40
1
 10
356.230785
 20
-212.082827
 30
0.0
 10
353.215624
 20
-211.749324
 30
0.0
 10
350.662108
 20
-214.101646
 30
0.0
 10
350.662108
 20
-217.050666
 30
0.0
  0
LWPOLYLINE
  5
225
100
AcDbEntity
  8
0
 62
7
100
AcDbPolyline
 90
2
 70
0
 10
360.662557
 20
-218.935805
 30
0.0
 10
360.662557
 20
-217.182949
 30
0.0
  0
SPLINE
  5
226
100
AcDbEntity
  8
0
 62
7
100
AcDbSpline
 70
8
 71
3
 72
8
 73
4
 74
0
 40
0
 40
0
 40
0
 40
0
 40
1
 40
1
 40
1
 40
1
 10
350.662108
 20
-218.933062
 30
0.0
 10
350.662108
 20
-219.189374
 30
0.0
 10
350.629063
 20
-219.974844
 30
0.0
 10
350.066808
 20
-220.728641
 30
0.0
  0
SPLINE
  5
227
100
AcDbEntity
  8
0
 62
7
100
AcDbSpline
 70
8
 71
3
 72
8
 73
4
 74
0
 40
0
 40
0
 40
0
 40
0
 40
1
 40
1
 40
1
 40
1
 10
350.066808
 20
-220.728641
 30
0.0
 10
349.865614
 20
-220.997348
 30
0.0
 10
350.057181
 20
-221.379085
 30
0.0
 10
350.392030
 20
-221.380457
 30
0.0
  0
LWPOLYLINE
  5
228
100
AcDbEntity
  8
0
 62
7
100
AcDbPolyline
 90
2
 70
0
 10
350.662108
 20
-217.050666
 30
0.0
 10
350.662108
 20
-218.933062
 30
0.0
  0
SPLINE
  5
229
100
AcDbEntity
  8
0
 62
7
100
AcDbSpline
 70
8
 71
3
 72
8
 73
4
 74
0
 40
0
 40
0
 40
0
 40
0
 40
1
 40
1
 40
1
 40
1
 10
367.585817
 20
-217.384143
 30
0.0
 10
367.585817
 20
-215.935808
 30
0.0
 10
368.769560
 20
-214.764486
 30
0.0
 10
370.223382
 20
-214.785161
 30
0.0
  0
SPLINE
  5
22a
100
AcDbEntity
  8
0
 62
7
100
AcDbSpline
 70
8
 71
3
 72
8
 73
4
 74
0
 40
0
 40
0
 40
0
 40
0
 40
1
 40
1
 40
1
 40
1
 10
370.223382
 20
-214.785161
 30
0.0
 10
371.604178
 20
-214.804465
 30
0.0
 10
372.767245
 20
-215.967507
 30
0.0
 10
372.786549
 20
-217.348304
 30
0.0
  0
SPLINE
  5
22b
100
AcDbEntity
  8
0
 62
7
100
AcDbSpline
 70
8
 71
3
 72
8
 73
4
 74
0
 40
0
 40
0
 40
0
 40
0
 40
1
 40
1
 40
1
 40
1
 10
372.786549
 20
-217.348304
 30
0.0
 10
372.805828
 20
-218.800753
 30
0.0
 10
371.634506
 20
-219.984496
 30
0.0
 10
370.186171
 20
-219.984496
 30
0.0
  0
SPLINE
  5
22c
100
AcDbEntity
  8
0
 62
7
100
AcDbSpline
 70
8
 71
3
 72
8
 73
4
 74
0
 40
0
 40
0
 40
0
 40
0
 40
1
 40
1
 40
1
 40
1
 10
370.186171
 20
-219.984496
 30
0.0
 10
368.750256
 20
-219.984496
 30
0.0
 10
367.585817
 20
-218.820058
 30
0.0
 10
367.585817
 20
-217.384143
 30
0.0
  0
LWPOLYLINE
  5
22d
100
AcDbEntity
  8
0
 62
7
100
AcDbPolyline
 90
2
 70
0
 10
350.392030
 20
-221.380457
 30
0.0
 10
360.770024
 20
-221.383200
 30
0.0
  0
SPLINE
  5
22e
100
AcDbEntity
  8
0
 62
7
100
AcDbSpline
 70
8
 71
3
 72
8
 73
4
 74
0
 40
0
 40
0
 40
0
 40
0
 40
1
 40
1
 40
1
 40
1
 10
375.294574
 20
-221.716702
 30
0.0
 10
375.692821
 20
-221.716702
 30
0.0
 10
375.940877
 20
-221.267452
 30
0.0
 10
375.710753
 20
-220.940858
 30
0.0
  0
SPLINE
  5
22f
100
AcDbEntity
  8
0
 62
7
100
AcDbSpline
 70
8
 71
3
 72
8
 73
4
 74
0
 40
0
 40
0
 40
0
 40
0
 40
1
 40
1
 40
1
 40
1
 10
375.710753
 20
-220.940858
 30
0.0
 10
375.555026
 20
-220.720361
 30
0.0
 10
375.417230
 20
-220.461306
 30
0.0
 10
375.320761
 20
-220.162271
 30
0.0
  0
SPLINE
  5
230
100
AcDbEntity
  8
0
 62
7
100
AcDbSpline
 70
8
 71
3
 72
8
 73
4
 74
0
 40
0
 40
0
 40
0
 40
0
 40
1
 40
1
 40
1
 40
1
 10
375.320761
 20
-220.162271
 30
0.0
 10
375.214640
 20
-219.828794
 30
0.0
 10
375.185709
 20
-219.521479
 30
0.0
 10
375.185709
 20
-219.269308
 30
0.0
  0
LWPOLYLINE
  5
231
100
AcDbEntity
  8
0
 62
7
100
AcDbPolyline
 90
1
 70
1
 10
367.585817
 20
-217.384143
 30
0.0
  0
SPLINE
  5
232
100
AcDbEntity
  8
0
 62
7
100
AcDbSpline
 70
8
 71
3
 72
8
 73
4
 74
0
 40
0
 40
0
 40
0
 40
0
 40
1
 40
1
 40
1
 40
1
 10
375.185709
 20
-217.516426
 30
0.0
 10
375.185709
 20
-214.949144
 30
0.0
 10
373.306056
 20
-212.697431
 30
0.0
 10
370.755309
 20
-212.416304
 30
0.0
  0
SPLINE
  5
233
100
AcDbEntity
  8
0
 62
7
100
AcDbSpline
 70
8
 71
3
 72
8
 73
4
 74
0
 40
0
 40
0
 40
0
 40
0
 40
1
 40
1
 40
1
 40
1
 10
370.755309
 20
-212.416304
 30
0.0
 10
367.738776
 20
-212.082827
 30
0.0
 10
365.186657
 20
-214.436520
 30
0.0
 10
365.186657
 20
-217.384143
 30
0.0
  0
LWPOLYLINE
  5
234
100
AcDbEntity
  8
0
 62
7
100
AcDbPolyline
 90
2
 70
0
 10
375.185709
 20
-219.269308
 30
0.0
 10
375.185709
 20
-217.516426
 30
0.0
  0
SPLINE
  5
235
100
AcDbEntity
  8
0
 62
7
100
AcDbSpline
 70
8
 71
3
 72
8
 73
4
 74
0
 40
0
 40
0
 40
0
 40
0
 40
1
 40
1
 40
1
 40
1
 10
365.186657
 20
-219.266539
 30
0.0
 10
365.185235
 20
-219.522851
 30
0.0
 10
365.152215
 20
-220.308347
 30
0.0
 10
364.589960
 20
-221.062118
 30
0.0
  0
SPLINE
  5
236
100
AcDbEntity
  8
0
 62
7
100
AcDbSpline
 70
8
 71
3
 72
8
 73
4
 74
0
 40
0
 40
0
 40
0
 40
0
 40
1
 40
1
 40
1
 40
1
 10
364.589960
 20
-221.062118
 30
0.0
 10
364.388766
 20
-221.330850
 30
0.0
 10
364.580333
 20
-221.713934
 30
0.0
 10
364.916554
 20
-221.713934
 30
0.0
  0
LWPOLYLINE
  5
237
100
AcDbEntity
  8
0
 62
7
100
AcDbPolyline
 90
2
 70
0
 10
365.186657
 20
-217.384143
 30
0.0
 10
365.186657
 20
-219.266539
 30
0.0
  0
SPLINE
  5
238
100
AcDbEntity
  8
0
 62
7
100
AcDbSpline
 70
8
 71
3
 72
8
 73
4
 74
0
 40
0
 40
0
 40
0
 40
0
 40
1
 40
1
 40
1
 40
1
 10
382.248162
 20
-217.552266
 30
0.0
 10
382.248162
 20
-216.103931
 30
0.0
 10
383.433276
 20
-214.931237
 30
0.0
 10
384.885726
 20
-214.951887
 30
0.0
  0
SPLINE
  5
239
100
AcDbEntity
  8
0
 62
7
100
AcDbSpline
 70
8
 71
3
 72
8
 73
4
 74
0
 40
0
 40
0
 40
0
 40
0
 40
1
 40
1
 40
1
 40
1
 10
384.885726
 20
-214.951887
 30
0.0
 10
386.266523
 20
-214.971191
 30
0.0
 10
387.429590
 20
-216.134258
 30
0.0
 10
387.448894
 20
-217.515055
 30
0.0
  0
SPLINE
  5
23a
100
AcDbEntity
  8
0
 62
7
100
AcDbSpline
 70
8
 71
3
 72
8
 73
4
 74
0
 40
0
 40
0
 40
0
 40
0
 40
1
 40
1
 40
1
 40
1
 10
387.448894
 20
-217.515055
 30
0.0
 10
387.468173
 20
-218.967505
 30
0.0
 10
386.296850
 20
-220.151248
 30
0.0
 10
384.848515
 20
-220.151248
 30
0.0
  0
SPLINE
  5
23b
100
AcDbEntity
  8
0
 62
7
100
AcDbSpline
 70
8
 71
3
 72
8
 73
4
 74
0
 40
0
 40
0
 40
0
 40
0
 40
1
 40
1
 40
1
 40
1
 10
384.848515
 20
-220.151248
 30
0.0
 10
383.412601
 20
-220.151248
 30
0.0
 10
382.248162
 20
-218.988180
 30
0.0
 10
382.248162
 20
-217.552266
 30
0.0
  0
LWPOLYLINE
  5
23c
100
AcDbEntity
  8
0
 62
7
100
AcDbPolyline
 90
2
 70
0
 10
364.916554
 20
-221.713934
 30
0.0
 10
375.294574
 20
-221.716702
 30
0.0
  0
SPLINE
  5
23d
100
AcDbEntity
  8
0
 62
7
100
AcDbSpline
 70
8
 71
3
 72
8
 73
4
 74
0
 40
0
 40
0
 40
0
 40
0
 40
1
 40
1
 40
1
 40
1
 10
389.956918
 20
-221.883428
 30
0.0
 10
390.355165
 20
-221.883428
 30
0.0
 10
390.603222
 20
-221.434203
 30
0.0
 10
390.373098
 20
-221.108981
 30
0.0
  0
SPLINE
  5
23e
100
AcDbEntity
  8
0
 62
7
100
AcDbSpline
 70
8
 71
3
 72
8
 73
4
 74
0
 40
0
 40
0
 40
0
 40
0
 40
1
 40
1
 40
1
 40
1
 10
390.373098
 20
-221.108981
 30
0.0
 10
390.217370
 20
-220.887112
 30
0.0
 10
390.079575
 20
-220.628057
 30
0.0
 10
389.983106
 20
-220.329022
 30
0.0
  0
SPLINE
  5
23f
100
AcDbEntity
  8
0
 62
7
100
AcDbSpline
 70
8
 71
3
 72
8
 73
4
 74
0
 40
0
 40
0
 40
0
 40
0
 40
1
 40
1
 40
1
 40
1
 10
389.983106
 20
-220.329022
 30
0.0
 10
389.876984
 20
-219.995520
 30
0.0
 10
389.848054
 20
-219.688230
 30
0.0
 10
389.849425
 20
-219.436034
 30
0.0
  0
LWPOLYLINE
  5
240
100
AcDbEntity
  8
0
 62
7
100
AcDbPolyline
 90
1
 70
1
 10
382.248162
 20
-217.552266
 30
0.0
  0
SPLINE
  5
241
100
AcDbEntity
  8
0
 62
7
100
AcDbSpline
 70
8
 71
3
 72
8
 73
4
 74
0
 40
0
 40
0
 40
0
 40
0
 40
1
 40
1
 40
1
 40
1
 10
389.849425
 20
-217.683178
 30
0.0
 10
389.849425
 20
-215.115895
 30
0.0
 10
387.968401
 20
-212.864157
 30
0.0
 10
385.417654
 20
-212.583055
 30
0.0
  0
SPLINE
  5
242
100
AcDbEntity
  8
0
 62
7
100
AcDbSpline
 70
8
 71
3
 72
8
 73
4
 74
0
 40
0
 40
0
 40
0
 40
0
 40
1
 40
1
 40
1
 40
1
 10
385.417654
 20
-212.583055
 30
0.0
 10
382.401121
 20
-212.250950
 30
0.0
 10
379.849002
 20
-214.603246
 30
0.0
 10
379.849002
 20
-217.552266
 30
0.0
  0
LWPOLYLINE
  5
243
100
AcDbEntity
  8
0
 62
7
100
AcDbPolyline
 90
2
 70
0
 10
389.849425
 20
-219.436034
 30
0.0
 10
389.849425
 20
-217.683178
 30
0.0
  0
SPLINE
  5
244
100
AcDbEntity
  8
0
 62
7
100
AcDbSpline
 70
8
 71
3
 72
8
 73
4
 74
0
 40
0
 40
0
 40
0
 40
0
 40
1
 40
1
 40
1
 40
1
 10
379.849002
 20
-219.434662
 30
0.0
 10
379.849002
 20
-219.690974
 30
0.0
 10
379.814534
 20
-220.475073
 30
0.0
 10
379.252305
 20
-221.228869
 30
0.0
  0
SPLINE
  5
245
100
AcDbEntity
  8
0
 62
7
100
AcDbSpline
 70
8
 71
3
 72
8
 73
4
 74
0
 40
0
 40
0
 40
0
 40
0
 40
1
 40
1
 40
1
 40
1
 10
379.252305
 20
-221.228869
 30
0.0
 10
379.051111
 20
-221.497576
 30
0.0
 10
379.242678
 20
-221.880685
 30
0.0
 10
379.578898
 20
-221.880685
 30
0.0
  0
LWPOLYLINE
  5
246
100
AcDbEntity
  8
0
 62
7
100
AcDbPolyline
 90
2
 70
0
 10
379.849002
 20
-217.552266
 30
0.0
 10
379.849002
 20
-219.434662
 30
0.0
  0
SPLINE
  5
247
100
AcDbEntity
  8
0
 62
7
100
AcDbSpline
 70
8
 71
3
 72
8
 73
4
 74
0
 40
0
 40
0
 40
0
 40
0
 40
1
 40
1
 40
1
 40
1
 10
396.772711
 20
-217.885743
 30
0.0
 10
396.772711
 20
-216.437433
 30
0.0
 10
397.956429
 20
-215.266085
 30
0.0
 10
399.410276
 20
-215.285389
 30
0.0
  0
SPLINE
  5
248
100
AcDbEntity
  8
0
 62
7
100
AcDbSpline
 70
8
 71
3
 72
8
 73
4
 74
0
 40
0
 40
0
 40
0
 40
0
 40
1
 40
1
 40
1
 40
1
 10
399.410276
 20
-215.285389
 30
0.0
 10
400.789700
 20
-215.304668
 30
0.0
 10
401.952742
 20
-216.467735
 30
0.0
 10
401.972046
 20
-217.848532
 30
0.0
  0
SPLINE
  5
249
100
AcDbEntity
  8
0
 62
7
100
AcDbSpline
 70
8
 71
3
 72
8
 73
4
 74
0
 40
0
 40
0
 40
0
 40
0
 40
1
 40
1
 40
1
 40
1
 10
401.972046
 20
-217.848532
 30
0.0
 10
401.992722
 20
-219.300982
 30
0.0
 10
400.821374
 20
-220.486096
 30
0.0
 10
399.373065
 20
-220.486096
 30
0.0
  0
SPLINE
  5
24a
100
AcDbEntity
  8
0
 62
7
100
AcDbSpline
 70
8
 71
3
 72
8
 73
4
 74
0
 40
0
 40
0
 40
0
 40
0
 40
1
 40
1
 40
1
 40
1
 10
399.373065
 20
-220.486096
 30
0.0
 10
397.937150
 20
-220.486096
 30
0.0
 10
396.772711
 20
-219.321657
 30
0.0
 10
396.772711
 20
-217.885743
 30
0.0
  0
LWPOLYLINE
  5
24b
100
AcDbEntity
  8
0
 62
7
100
AcDbPolyline
 90
2
 70
0
 10
379.578898
 20
-221.880685
 30
0.0
 10
389.956918
 20
-221.883428
 30
0.0
  0
SPLINE
  5
24c
100
AcDbEntity
  8
0
 62
7
100
AcDbSpline
 70
8
 71
3
 72
8
 73
4
 74
0
 40
0
 40
0
 40
0
 40
0
 40
1
 40
1
 40
1
 40
1
 10
404.480071
 20
-222.218302
 30
0.0
 10
404.879715
 20
-222.218302
 30
0.0
 10
405.127746
 20
-221.767680
 30
0.0
 10
404.897622
 20
-221.442458
 30
0.0
  0
SPLINE
  5
24d
100
AcDbEntity
  8
0
 62
7
100
AcDbSpline
 70
8
 71
3
 72
8
 73
4
 74
0
 40
0
 40
0
 40
0
 40
0
 40
1
 40
1
 40
1
 40
1
 10
404.897622
 20
-221.442458
 30
0.0
 10
404.740523
 20
-221.220589
 30
0.0
 10
404.602727
 20
-220.961534
 30
0.0
 10
404.507630
 20
-220.662499
 30
0.0
  0
SPLINE
  5
24e
100
AcDbEntity
  8
0
 62
7
100
AcDbSpline
 70
8
 71
3
 72
8
 73
4
 74
0
 40
0
 40
0
 40
0
 40
0
 40
1
 40
1
 40
1
 40
1
 10
404.507630
 20
-220.662499
 30
0.0
 10
404.401534
 20
-220.330394
 30
0.0
 10
404.371206
 20
-220.023079
 30
0.0
 10
404.372603
 20
-219.770908
 30
0.0
  0
LWPOLYLINE
  5
24f
100
AcDbEntity
  8
0
 62
7
100
AcDbPolyline
 90
1
 70
1
 10
396.772711
 20
-217.885743
 30
0.0
  0
SPLINE
  5
250
100
AcDbEntity
  8
0
 62
7
100
AcDbSpline
 70
8
 71
3
 72
8
 73
4
 74
0
 40
0
 40
0
 40
0
 40
0
 40
1
 40
1
 40
1
 40
1
 10
404.372603
 20
-218.016655
 30
0.0
 10
404.372603
 20
-215.450744
 30
0.0
 10
402.492950
 20
-213.199031
 30
0.0
 10
399.940806
 20
-212.916532
 30
0.0
  0
SPLINE
  5
251
100
AcDbEntity
  8
0
 62
7
100
AcDbSpline
 70
8
 71
3
 72
8
 73
4
 74
0
 40
0
 40
0
 40
0
 40
0
 40
1
 40
1
 40
1
 40
1
 10
399.940806
 20
-212.916532
 30
0.0
 10
396.925670
 20
-212.584427
 30
0.0
 10
394.372154
 20
-214.936749
 30
0.0
 10
394.372154
 20
-217.885743
 30
0.0
  0
LWPOLYLINE
  5
252
100
AcDbEntity
  8
0
 62
7
100
AcDbPolyline
 90
2
 70
0
 10
404.372603
 20
-219.770908
 30
0.0
 10
404.372603
 20
-218.016655
 30
0.0
  0
SPLINE
  5
253
100
AcDbEntity
  8
0
 62
7
100
AcDbSpline
 70
8
 71
3
 72
8
 73
4
 74
0
 40
0
 40
0
 40
0
 40
0
 40
1
 40
1
 40
1
 40
1
 10
394.372154
 20
-219.768139
 30
0.0
 10
394.372154
 20
-220.024476
 30
0.0
 10
394.339109
 20
-220.808575
 30
0.0
 10
393.776854
 20
-221.562346
 30
0.0
  0
SPLINE
  5
254
100
AcDbEntity
  8
0
 62
7
100
AcDbSpline
 70
8
 71
3
 72
8
 73
4
 74
0
 40
0
 40
0
 40
0
 40
0
 40
1
 40
1
 40
1
 40
1
 10
393.776854
 20
-221.562346
 30
0.0
 10
393.575660
 20
-221.831079
 30
0.0
 10
393.767202
 20
-222.214162
 30
0.0
 10
394.102051
 20
-222.214162
 30
0.0
  0
LWPOLYLINE
  5
255
100
AcDbEntity
  8
0
 62
7
100
AcDbPolyline
 90
2
 70
0
 10
394.372154
 20
-217.885743
 30
0.0
 10
394.372154
 20
-219.768139
 30
0.0
  0
LWPOLYLINE
  5
256
100
AcDbEntity
  8
0
 62
7
100
AcDbPolyline
 90
2
 70
0
 10
394.102051
 20
-222.214162
 30
0.0
 10
404.480071
 20
-222.218302
 30
0.0
  0
SPLINE
  5
257
100
AcDbEntity
  8
0
 62
7
100
AcDbSpline
 70
8
 71
3
 72
8
 73
4
 74
0
 40
0
 40
0
 40
0
 40
0
 40
1
 40
1
 40
1
 40
1
 10
232.815463
 20
-134.423861
 30
0.0
 10
231.987262
 20
-132.978294
 30
0.0
 10
230.140690
 20
-132.486321
 30
0.0
 10
228.702012
 20
-133.325564
 30
0.0
  0
LWPOLYLINE
  5
258
100
AcDbEntity
  8
0
 62
7
100
AcDbPolyline
 90
3
 70
0
 10
234.144384
 20
-136.706917
 30
0.0
 10
234.072876
 20
-136.513567
 30
0.0
 10
232.815463
 20
-134.423861
 30
0.0
  0
SPLINE
  5
259
100
AcDbEntity
  8
0
 62
7
100
AcDbSpline
 70
8
 71
3
 72
8
 73
4
 74
0
 40
0
 40
0
 40
0
 40
0
 40
1
 40
1
 40
1
 40
1
 10
227.093842
 20
-134.264019
 30
0.0
 10
224.702945
 20
-135.644790
 30
0.0
 10
221.643695
 20
-134.824877
 30
0.0
 10
220.264279
 20
-132.433972
 30
0.0
  0
SPLINE
  5
25a
100
AcDbEntity
  8
0
 62
7
100
AcDbSpline
 70
8
 71
3
 72
8
 73
4
 74
0
 40
0
 40
0
 40
0
 40
0
 40
1
 40
1
 40
1
 40
1
 10
220.264279
 20
-132.433972
 30
0.0
 10
218.883481
 20
-130.043093
 30
0.0
 10
219.702039
 20
-126.985208
 30
0.0
 10
222.092937
 20
-125.604412
 30
0.0
  0
LWPOLYLINE
  5
25b
100
AcDbEntity
  8
0
 62
7
100
AcDbPolyline
 90
2
 70
0
 10
228.702012
 20
-133.325564
 30
0.0
 10
227.093842
 20
-134.264019
 30
0.0
  0
SPLINE
  5
25c
100
AcDbEntity
  8
0
 62
7
100
AcDbSpline
 70
8
 71
3
 72
8
 73
4
 74
0
 40
0
 40
0
 40
0
 40
0
 40
1
 40
1
 40
1
 40
1
 10
223.746585
 20
-124.635655
 30
0.0
 10
225.164585
 20
-123.803296
 30
0.0
 10
225.648275
 20
-121.984298
 30
0.0
 10
224.832477
 20
-120.558036
 30
0.0
  0
LWPOLYLINE
  5
25d
100
AcDbEntity
  8
0
 62
7
100
AcDbPolyline
 90
2
 70
0
 10
222.092937
 20
-125.604412
 30
0.0
 10
223.746585
 20
-124.635655
 30
0.0
  0
SPLINE
  5
25e
100
AcDbEntity
  8
0
 62
7
100
AcDbSpline
 70
8
 71
3
 72
8
 73
4
 74
0
 40
0
 40
0
 40
0
 40
0
 40
1
 40
1
 40
1
 40
1
 10
223.833332
 20
-118.817727
 30
0.0
 10
223.179116
 20
-117.731800
 30
0.0
 10
223.734271
 20
-116.816215
 30
0.0
 10
223.734271
 20
-116.816215
 30
0.0
  0
LWPOLYLINE
  5
25f
100
AcDbEntity
  8
0
 62
7
100
AcDbPolyline
 90
2
 70
0
 10
224.832477
 20
-120.558036
 30
0.0
 10
223.833332
 20
-118.817727
 30
0.0
  0
SPLINE
  5
260
100
AcDbEntity
  8
0
 62
7
100
AcDbSpline
 70
8
 71
3
 72
8
 73
4
 74
0
 40
0
 40
0
 40
0
 40
0
 40
1
 40
1
 40
1
 40
1
 10
229.533098
 20
-106.066923
 30
0.0
 10
229.715295
 20
-105.722041
 30
0.0
 10
229.822303
 20
-105.262276
 30
0.0
 10
229.807418
 20
-104.817242
 30
0.0
  0
LWPOLYLINE
  5
261
100
AcDbEntity
  8
0
 62
7
100
AcDbPolyline
 90
2
 70
0
 10
223.734271
 20
-116.816215
 30
0.0
 10
229.533098
 20
-106.066923
 30
0.0
  0
SPLINE
  5
262
100
AcDbEntity
  8
0
 62
7
100
AcDbSpline
 70
8
 71
3
 72
8
 73
4
 74
0
 40
0
 40
0
 40
0
 40
0
 40
1
 40
1
 40
1
 40
1
 10
229.839422
 20
-87.773568
 30
0.0
 10
229.839422
 20
-87.221285
 30
0.0
 10
230.287136
 20
-86.773571
 30
0.0
 10
230.839041
 20
-86.773315
 30
0.0
  0
LWPOLYLINE
  5
263
100
AcDbEntity
  8
0
 62
7
100
AcDbPolyline
 90
2
 70
0
 10
229.807418
 20
-104.817242
 30
0.0
 10
229.839422
 20
-87.773568
 30
0.0
  0
SPLINE
  5
264
100
AcDbEntity
  8
0
 62
7
100
AcDbSpline
 70
8
 71
3
 72
8
 73
4
 74
0
 40
0
 40
0
 40
0
 40
0
 40
1
 40
1
 40
1
 40
1
 10
251.533206
 20
-86.773315
 30
0.0
 10
251.799564
 20
-86.773569
 30
0.0
 10
252.053917
 20
-86.668212
 30
0.0
 10
252.241453
 20
-86.480676
 30
0.0
  0
SPLINE
  5
265
100
AcDbEntity
  8
0
 62
7
100
AcDbSpline
 70
8
 71
3
 72
8
 73
4
 74
0
 40
0
 40
0
 40
0
 40
0
 40
1
 40
1
 40
1
 40
1
 10
252.241453
 20
-86.480676
 30
0.0
 10
252.428989
 20
-86.293140
 30
0.0
 10
252.534346
 20
-86.038787
 30
0.0
 10
252.533586
 20
-85.772935
 30
0.0
  0
LWPOLYLINE
  5
266
100
AcDbEntity
  8
0
 62
7
100
AcDbPolyline
 90
2
 70
0
 10
230.839041
 20
-86.773315
 30
0.0
 10
251.533206
 20
-86.773315
 30
0.0
  0
SPLINE
  5
267
100
AcDbEntity
  8
0
 62
7
100
AcDbSpline
 70
8
 71
3
 72
8
 73
4
 74
0
 40
0
 40
0
 40
0
 40
0
 40
1
 40
1
 40
1
 40
1
 10
252.532824
 20
-28.017714
 30
0.0
 10
252.507973
 20
-26.854176
 30
0.0
 10
253.357175
 20
-26.906742
 30
0.0
 10
253.932366
 20
-26.872172
 30
0.0
  0
LWPOLYLINE
  5
268
100
AcDbEntity
  8
0
 62
7
100
AcDbPolyline
 90
2
 70
0
 10
252.533586
 20
-85.772935
 30
0.0
 10
252.532824
 20
-28.017714
 30
0.0
  0
SPLINE
  5
269
100
AcDbEntity
  8
0
 62
7
100
AcDbSpline
 70
8
 71
3
 72
8
 73
4
 74
0
 40
0
 40
0
 40
0
 40
0
 40
1
 40
1
 40
1
 40
1
 10
254.712825
 20
-26.808543
 30
0.0
 10
256.377459
 20
-26.741390
 30
0.0
 10
257.666495
 20
-25.330640
 30
0.0
 10
257.586389
 20
-23.667009
 30
0.0
  0
LWPOLYLINE
  5
26a
100
AcDbEntity
  8
0
 62
7
100
AcDbPolyline
 90
2
 70
0
 10
253.932366
 20
-26.872172
 30
0.0
 10
254.712825
 20
-26.808543
 30
0.0
  0
SPLINE
  5
26b
100
AcDbEntity
  8
0
 62
7
100
AcDbSpline
 70
8
 71
3
 72
8
 73
4
 74
0
 40
0
 40
0
 40
0
 40
0
 40
1
 40
1
 40
1
 40
1
 10
257.496557
 20
-21.807203
 30
0.0
 10
257.375757
 20
-19.048877
 30
0.0
 10
259.515651
 20
-16.713883
 30
0.0
 10
262.273367
 20
-16.594340
 30
0.0
  0
SPLINE
  5
26c
100
AcDbEntity
  8
0
 62
7
100
AcDbSpline
 70
8
 71
3
 72
8
 73
4
 74
0
 40
0
 40
0
 40
0
 40
0
 40
1
 40
1
 40
1
 40
1
 10
262.273367
 20
-16.594340
 30
0.0
 10
265.031668
 20
-16.473533
 30
0.0
 10
267.366086
 20
-18.611585
 30
0.0
 10
267.486876
 20
-21.369924
 30
0.0
  0
LWPOLYLINE
  5
26d
100
AcDbEntity
  8
0
 62
7
100
AcDbPolyline
 90
2
 70
0
 10
257.586389
 20
-23.667009
 30
0.0
 10
257.496557
 20
-21.807203
 30
0.0
  0
SPLINE
  5
26e
100
AcDbEntity
  8
0
 62
7
100
AcDbSpline
 70
8
 71
3
 72
8
 73
4
 74
0
 40
0
 40
0
 40
0
 40
0
 40
1
 40
1
 40
1
 40
1
 10
267.582611
 20
-23.284037
 30
0.0
 10
267.666164
 20
-24.926164
 30
0.0
 10
269.056300
 20
-26.195130
 30
0.0
 10
270.698100
 20
-26.130075
 30
0.0
  0
LWPOLYLINE
  5
26f
100
AcDbEntity
  8
0
 62
7
100
AcDbPolyline
 90
2
 70
0
 10
267.486876
 20
-21.369924
 30
0.0
 10
267.582611
 20
-23.284037
 30
0.0
  0
SPLINE
  5
270
100
AcDbEntity
  8
0
 62
7
100
AcDbSpline
 70
8
 71
3
 72
8
 73
4
 74
0
 40
0
 40
0
 40
0
 40
0
 40
1
 40
1
 40
1
 40
1
 10
366.009994
 20
-33.862260
 30
0.0
 10
367.004883
 20
-34.052250
 30
0.0
 10
366.970857
 20
-34.567967
 30
0.0
 10
366.977735
 20
-35.000182
 30
0.0
  0
LWPOLYLINE
  5
271
100
AcDbEntity
  8
0
 62
7
100
AcDbPolyline
 90
6
 70
0
 10
270.698100
 20
-26.130075
 30
0.0
 10
272.233087
 20
-26.144462
 30
0.0
 10
281.383447
 20
-25.780606
 30
0.0
 10
290.533808
 20
-25.416751
 30
0.0
 10
312.484513
 20
-25.416751
 30
0.0
 10
366.009994
 20
-33.862260
 30
0.0
  0
SPLINE
  5
272
100
AcDbEntity
  8
0
 62
7
100
AcDbSpline
 70
8
 71
3
 72
8
 73
4
 74
0
 40
0
 40
0
 40
0
 40
0
 40
1
 40
1
 40
1
 40
1
 10
367.015305
 20
-36.487079
 30
0.0
 10
367.009783
 20
-38.153059
 30
0.0
 10
368.362967
 20
-39.502411
 30
0.0
 10
370.028508
 20
-39.494940
 30
0.0
  0
LWPOLYLINE
  5
273
100
AcDbEntity
  8
0
 62
7
100
AcDbPolyline
 90
2
 70
0
 10
366.977735
 20
-35.000182
 30
0.0
 10
367.015305
 20
-36.487079
 30
0.0
  0
SPLINE
  5
274
100
AcDbEntity
  8
0
 62
7
100
AcDbSpline
 70
8
 71
3
 72
8
 73
4
 74
0
 40
0
 40
0
 40
0
 40
0
 40
1
 40
1
 40
1
 40
1
 10
371.890462
 20
-39.486320
 30
0.0
 10
374.651430
 20
-39.485951
 30
0.0
 10
376.890861
 20
-41.725660
 30
0.0
 10
376.890000
 20
-44.485965
 30
0.0
  0
SPLINE
  5
275
100
AcDbEntity
  8
0
 62
7
100
AcDbSpline
 70
8
 71
3
 72
8
 73
4
 74
0
 40
0
 40
0
 40
0
 40
0
 40
1
 40
1
 40
1
 40
1
 10
376.890000
 20
-44.485965
 30
0.0
 10
376.890376
 20
-47.246912
 30
0.0
 10
374.652535
 20
-49.485846
 30
0.0
 10
371.891551
 20
-49.486207
 30
0.0
  0
LWPOLYLINE
  5
276
100
AcDbEntity
  8
0
 62
7
100
AcDbPolyline
 90
2
 70
0
 10
370.028508
 20
-39.494940
 30
0.0
 10
371.890462
 20
-39.486320
 30
0.0
  0
SPLINE
  5
277
100
AcDbEntity
  8
0
 62
7
100
AcDbSpline
 70
8
 71
3
 72
8
 73
4
 74
0
 40
0
 40
0
 40
0
 40
0
 40
1
 40
1
 40
1
 40
1
 10
369.975086
 20
-49.498356
 30
0.0
 10
368.330876
 20
-49.510200
 30
0.0
 10
367.002480
 20
-50.843666
 30
0.0
 10
366.995861
 20
-52.486735
 30
0.0
  0
LWPOLYLINE
  5
278
100
AcDbEntity
  8
0
 62
7
100
AcDbPolyline
 90
2
 70
0
 10
371.891551
 20
-49.486207
 30
0.0
 10
369.975086
 20
-49.498356
 30
0.0
  0
SPLINE
  5
279
100
AcDbEntity
  8
0
 62
7
100
AcDbSpline
 70
8
 71
3
 72
8
 73
4
 74
0
 40
0
 40
0
 40
0
 40
0
 40
1
 40
1
 40
1
 40
1
 10
367.020286
 20
-91.804670
 30
0.0
 10
367.014764
 20
-93.470650
 30
0.0
 10
368.367948
 20
-94.820001
 30
0.0
 10
370.033488
 20
-94.812531
 30
0.0
  0
LWPOLYLINE
  5
27a
100
AcDbEntity
  8
0
 62
7
100
AcDbPolyline
 90
11
 70
0
 10
366.995861
 20
-52.486735
 30
0.0
 10
366.984085
 20
-53.729528
 30
0.0
 10
366.985673
 20
-58.411863
 30
0.0
 10
366.987260
 20
-63.094201
 30
0.0
 10
366.988848
 20
-67.776537
 30
0.0
 10
366.990435
 20
-72.458875
 30
0.0
 10
366.992023
 20
-77.141210
 30
0.0
 10
366.993610
 20
-81.823548
 30
0.0
 10
366.995198
 20
-86.505883
 30
0.0
 10
366.996785
 20
-91.188221
 30
0.0
 10
367.020286
 20
-91.804670
 30
0.0
  0
SPLINE
  5
27b
100
AcDbEntity
  8
0
 62
7
100
AcDbSpline
 70
8
 71
3
 72
8
 73
4
 74
0
 40
0
 40
0
 40
0
 40
0
 40
1
 40
1
 40
1
 40
1
 10
371.895443
 20
-94.803910
 30
0.0
 10
374.656411
 20
-94.803542
 30
0.0
 10
376.895842
 20
-97.043250
 30
0.0
 10
376.894981
 20
-99.803555
 30
0.0
  0
SPLINE
  5
27c
100
AcDbEntity
  8
0
 62
7
100
AcDbSpline
 70
8
 71
3
 72
8
 73
4
 74
0
 40
0
 40
0
 40
0
 40
0
 40
1
 40
1
 40
1
 40
1
 10
376.894981
 20
-99.803555
 30
0.0
 10
376.895357
 20
-102.564503
 30
0.0
 10
374.657516
 20
-104.803437
 30
0.0
 10
371.896532
 20
-104.803797
 30
0.0
  0
LWPOLYLINE
  5
27d
100
AcDbEntity
  8
0
 62
7
100
AcDbPolyline
 90
2
 70
0
 10
370.033488
 20
-94.812531
 30
0.0
 10
371.895443
 20
-94.803910
 30
0.0
  0
SPLINE
  5
27e
100
AcDbEntity
  8
0
 62
7
100
AcDbSpline
 70
8
 71
3
 72
8
 73
4
 74
0
 40
0
 40
0
 40
0
 40
0
 40
1
 40
1
 40
1
 40
1
 10
369.980067
 20
-104.815946
 30
0.0
 10
368.335857
 20
-104.827790
 30
0.0
 10
367.007461
 20
-106.161256
 30
0.0
 10
367.000842
 20
-107.804326
 30
0.0
  0
LWPOLYLINE
  5
27f
100
AcDbEntity
  8
0
 62
7
100
AcDbPolyline
 90
2
 70
0
 10
371.896532
 20
-104.803797
 30
0.0
 10
369.980067
 20
-104.815946
 30
0.0
  0
SPLINE
  5
280
100
AcDbEntity
  8
0
 62
7
100
AcDbSpline
 70
8
 71
3
 72
8
 73
4
 74
0
 40
0
 40
0
 40
0
 40
0
 40
1
 40
1
 40
1
 40
1
 10
49.259899
 20
-112.047345
 30
0.0
 10
49.259899
 20
-111.358374
 30
0.0
 10
48.700392
 20
-110.798862
 30
0.0
 10
48.011416
 20
-110.798862
 30
0.0
  0
SPLINE
  5
281
100
AcDbEntity
  8
0
 62
7
100
AcDbSpline
 70
8
 71
3
 72
8
 73
4
 74
0
 40
0
 40
0
 40
0
 40
0
 40
1
 40
1
 40
1
 40
1
 10
48.011416
 20
-110.798862
 30
0.0
 10
47.322440
 20
-110.798862
 30
0.0
 10
46.763287
 20
-111.358374
 30
0.0
 10
46.763287
 20
-112.047345
 30
0.0
  0
SPLINE
  5
282
100
AcDbEntity
  8
0
 62
7
100
AcDbSpline
 70
8
 71
3
 72
8
 73
4
 74
0
 40
0
 40
0
 40
0
 40
0
 40
1
 40
1
 40
1
 40
1
 10
46.763287
 20
-112.047345
 30
0.0
 10
46.763287
 20
-112.736326
 30
0.0
 10
47.322440
 20
-113.295825
 30
0.0
 10
48.011416
 20
-113.295825
 30
0.0
  0
SPLINE
  5
283
100
AcDbEntity
  8
0
 62
7
100
AcDbSpline
 70
8
 71
3
 72
8
 73
4
 74
0
 40
0
 40
0
 40
0
 40
0
 40
1
 40
1
 40
1
 40
1
 10
48.011416
 20
-113.295825
 30
0.0
 10
48.700392
 20
-113.295825
 30
0.0
 10
49.259899
 20
-112.736326
 30
0.0
 10
49.259899
 20
-112.047345
 30
0.0
  0
LWPOLYLINE
  5
284
100
AcDbEntity
  8
0
 62
7
100
AcDbPolyline
 90
2
 70
0
 10
367.000842
 20
-107.804326
 30
0.0
 10
367.003135
 20
-109.917567
 30
0.0
  0
SPLINE
  5
285
100
AcDbEntity
  8
0
 62
7
100
AcDbSpline
 70
8
 71
3
 72
8
 73
4
 74
0
 40
0
 40
0
 40
0
 40
0
 40
1
 40
1
 40
1
 40
1
 10
152.259987
 20
-93.047102
 30
0.0
 10
152.259987
 20
-92.358131
 30
0.0
 10
151.700480
 20
-91.798619
 30
0.0
 10
151.011504
 20
-91.798619
 30
0.0
  0
SPLINE
  5
286
100
AcDbEntity
  8
0
 62
7
100
AcDbSpline
 70
8
 71
3
 72
8
 73
4
 74
0
 40
0
 40
0
 40
0
 40
0
 40
1
 40
1
 40
1
 40
1
 10
151.011504
 20
-91.798619
 30
0.0
 10
150.322528
 20
-91.798619
 30
0.0
 10
149.763375
 20
-92.358131
 30
0.0
 10
149.763375
 20
-93.047102
 30
0.0
  0
SPLINE
  5
287
100
AcDbEntity
  8
0
 62
7
100
AcDbSpline
 70
8
 71
3
 72
8
 73
4
 74
0
 40
0
 40
0
 40
0
 40
0
 40
1
 40
1
 40
1
 40
1
 10
149.763375
 20
-93.047102
 30
0.0
 10
149.763375
 20
-93.736083
 30
0.0
 10
150.322528
 20
-94.295582
 30
0.0
 10
151.011504
 20
-94.295582
 30
0.0
  0
SPLINE
  5
288
100
AcDbEntity
  8
0
 62
7
100
AcDbSpline
 70
8
 71
3
 72
8
 73
4
 74
0
 40
0
 40
0
 40
0
 40
0
 40
1
 40
1
 40
1
 40
1
 10
151.011504
 20
-94.295582
 30
0.0
 10
151.700480
 20
-94.295582
 30
0.0
 10
152.259987
 20
-93.736083
 30
0.0
 10
152.259987
 20
-93.047102
 30
0.0
  0
LWPOLYLINE
  5
289
100
AcDbEntity
  8
0
 62
7
100
AcDbPolyline
 90
1
 70
1
 10
49.259899
 20
-112.047345
 30
0.0
  0
SPLINE
  5
28a
100
AcDbEntity
  8
0
 62
7
100
AcDbSpline
 70
8
 71
3
 72
8
 73
4
 74
0
 40
0
 40
0
 40
0
 40
0
 40
1
 40
1
 40
1
 40
1
 10
76.260052
 20
-90.547231
 30
0.0
 10
76.260052
 20
-89.858260
 30
0.0
 10
75.700545
 20
-89.298748
 30
0.0
 10
75.011569
 20
-89.298748
 30
0.0
  0
SPLINE
  5
28b
100
AcDbEntity
  8
0
 62
7
100
AcDbSpline
 70
8
 71
3
 72
8
 73
4
 74
0
 40
0
 40
0
 40
0
 40
0
 40
1
 40
1
 40
1
 40
1
 10
75.011569
 20
-89.298748
 30
0.0
 10
74.322593
 20
-89.298748
 30
0.0
 10
73.763440
 20
-89.858260
 30
0.0
 10
73.763440
 20
-90.547231
 30
0.0
  0
SPLINE
  5
28c
100
AcDbEntity
  8
0
 62
7
100
AcDbSpline
 70
8
 71
3
 72
8
 73
4
 74
0
 40
0
 40
0
 40
0
 40
0
 40
1
 40
1
 40
1
 40
1
 10
73.763440
 20
-90.547231
 30
0.0
 10
73.763440
 20
-91.236212
 30
0.0
 10
74.322593
 20
-91.795711
 30
0.0
 10
75.011569
 20
-91.795711
 30
0.0
  0
SPLINE
  5
28d
100
AcDbEntity
  8
0
 62
7
100
AcDbSpline
 70
8
 71
3
 72
8
 73
4
 74
0
 40
0
 40
0
 40
0
 40
0
 40
1
 40
1
 40
1
 40
1
 10
75.011569
 20
-91.795711
 30
0.0
 10
75.700545
 20
-91.795711
 30
0.0
 10
76.260052
 20
-91.236212
 30
0.0
 10
76.260052
 20
-90.547231
 30
0.0
  0
LWPOLYLINE
  5
28e
100
AcDbEntity
  8
0
 62
7
100
AcDbPolyline
 90
1
 70
1
 10
152.259987
 20
-93.047102
 30
0.0
  0
SPLINE
  5
28f
100
AcDbEntity
  8
0
 62
7
100
AcDbSpline
 70
8
 71
3
 72
8
 73
4
 74
0
 40
0
 40
0
 40
0
 40
0
 40
1
 40
1
 40
1
 40
1
 10
76.260052
 20
-50.047138
 30
0.0
 10
76.260052
 20
-49.358167
 30
0.0
 10
75.700547
 20
-48.798655
 30
0.0
 10
75.011572
 20
-48.798655
 30
0.0
  0
SPLINE
  5
290
100
AcDbEntity
  8
0
 62
7
100
AcDbSpline
 70
8
 71
3
 72
8
 73
4
 74
0
 40
0
 40
0
 40
0
 40
0
 40
1
 40
1
 40
1
 40
1
 10
75.011572
 20
-48.798655
 30
0.0
 10
74.322596
 20
-48.798655
 30
0.0
 10
73.763442
 20
-49.358167
 30
0.0
 10
73.763442
 20
-50.047138
 30
0.0
  0
SPLINE
  5
291
100
AcDbEntity
  8
0
 62
7
100
AcDbSpline
 70
8
 71
3
 72
8
 73
4
 74
0
 40
0
 40
0
 40
0
 40
0
 40
1
 40
1
 40
1
 40
1
 10
73.763442
 20
-50.047138
 30
0.0
 10
73.763442
 20
-50.736118
 30
0.0
 10
74.322596
 20
-51.295618
 30
0.0
 10
75.011572
 20
-51.295618
 30
0.0
  0
SPLINE
  5
292
100
AcDbEntity
  8
0
 62
7
100
AcDbSpline
 70
8
 71
3
 72
8
 73
4
 74
0
 40
0
 40
0
 40
0
 40
0
 40
1
 40
1
 40
1
 40
1
 10
75.011572
 20
-51.295618
 30
0.0
 10
75.700547
 20
-51.295618
 30
0.0
 10
76.260052
 20
-50.736118
 30
0.0
 10
76.260052
 20
-50.047138
 30
0.0
  0
LWPOLYLINE
  5
293
100
AcDbEntity
  8
0
 62
7
100
AcDbPolyline
 90
1
 70
1
 10
76.260052
 20
-90.547231
 30
0.0
  0
SPLINE
  5
294
100
AcDbEntity
  8
0
 62
7
100
AcDbSpline
 70
8
 71
3
 72
8
 73
4
 74
0
 40
0
 40
0
 40
0
 40
0
 40
1
 40
1
 40
1
 40
1
 10
152.259987
 20
-54.547262
 30
0.0
 10
152.259987
 20
-53.858291
 30
0.0
 10
151.700480
 20
-53.298779
 30
0.0
 10
151.011504
 20
-53.298779
 30
0.0
  0
SPLINE
  5
295
100
AcDbEntity
  8
0
 62
7
100
AcDbSpline
 70
8
 71
3
 72
8
 73
4
 74
0
 40
0
 40
0
 40
0
 40
0
 40
1
 40
1
 40
1
 40
1
 10
151.011504
 20
-53.298779
 30
0.0
 10
150.322528
 20
-53.298779
 30
0.0
 10
149.763375
 20
-53.858291
 30
0.0
 10
149.763375
 20
-54.547262
 30
0.0
  0
SPLINE
  5
296
100
AcDbEntity
  8
0
 62
7
100
AcDbSpline
 70
8
 71
3
 72
8
 73
4
 74
0
 40
0
 40
0
 40
0
 40
0
 40
1
 40
1
 40
1
 40
1
 10
149.763375
 20
-54.547262
 30
0.0
 10
149.763375
 20
-55.236243
 30
0.0
 10
150.322528
 20
-55.795742
 30
0.0
 10
151.011504
 20
-55.795742
 30
0.0
  0
SPLINE
  5
297
100
AcDbEntity
  8
0
 62
7
100
AcDbSpline
 70
8
 71
3
 72
8
 73
4
 74
0
 40
0
 40
0
 40
0
 40
0
 40
1
 40
1
 40
1
 40
1
 10
151.011504
 20
-55.795742
 30
0.0
 10
151.700480
 20
-55.795742
 30
0.0
 10
152.259987
 20
-55.236243
 30
0.0
 10
152.259987
 20
-54.547262
 30
0.0
  0
LWPOLYLINE
  5
298
100
AcDbEntity
  8
0
 62
7
100
AcDbPolyline
 90
1
 70
1
 10
76.260052
 20
-50.047138
 30
0.0
  0
SPLINE
  5
299
100
AcDbEntity
  8
0
 62
7
100
AcDbSpline
 70
8
 71
3
 72
8
 73
4
 74
0
 40
0
 40
0
 40
0
 40
0
 40
1
 40
1
 40
1
 40
1
 10
175.373284
 20
-105.032674
 30
0.0
 10
176.808731
 20
-105.032413
 30
0.0
 10
177.972614
 20
-103.868116
 30
0.0
 10
177.972350
 20
-102.432646
 30
0.0
  0
SPLINE
  5
29a
100
AcDbEntity
  8
0
 62
7
100
AcDbSpline
 70
8
 71
3
 72
8
 73
4
 74
0
 40
0
 40
0
 40
0
 40
0
 40
1
 40
1
 40
1
 40
1
 10
177.972350
 20
-102.432646
 30
0.0
 10
177.972881
 20
-100.996023
 30
0.0
 10
176.808467
 20
-99.832118
 30
0.0
 10
175.373015
 20
-99.832407
 30
0.0
  0
SPLINE
  5
29b
100
AcDbEntity
  8
0
 62
7
100
AcDbSpline
 70
8
 71
3
 72
8
 73
4
 74
0
 40
0
 40
0
 40
0
 40
0
 40
1
 40
1
 40
1
 40
1
 10
175.373015
 20
-99.832407
 30
0.0
 10
173.936392
 20
-99.831876
 30
0.0
 10
172.772507
 20
-100.996270
 30
0.0
 10
172.772776
 20
-102.431739
 30
0.0
  0
SPLINE
  5
29c
100
AcDbEntity
  8
0
 62
7
100
AcDbSpline
 70
8
 71
3
 72
8
 73
4
 74
0
 40
0
 40
0
 40
0
 40
0
 40
1
 40
1
 40
1
 40
1
 10
172.772776
 20
-102.431739
 30
0.0
 10
172.772247
 20
-103.868370
 30
0.0
 10
173.936648
 20
-105.032281
 30
0.0
 10
175.373284
 20
-105.032674
 30
0.0
  0
LWPOLYLINE
  5
29d
100
AcDbEntity
  8
0
 62
7
100
AcDbPolyline
 90
1
 70
1
 10
152.259987
 20
-54.547262
 30
0.0
  0
SPLINE
  5
29e
100
AcDbEntity
  8
0
 62
7
100
AcDbSpline
 70
8
 71
3
 72
8
 73
4
 74
0
 40
0
 40
0
 40
0
 40
0
 40
1
 40
1
 40
1
 40
1
 10
26.770366
 20
-130.311170
 30
0.0
 10
25.527372
 20
-131.029129
 30
0.0
 10
25.101557
 20
-132.619374
 30
0.0
 10
25.819521
 20
-133.862411
 30
0.0
  0
SPLINE
  5
29f
100
AcDbEntity
  8
0
 62
7
100
AcDbSpline
 70
8
 71
3
 72
8
 73
4
 74
0
 40
0
 40
0
 40
0
 40
0
 40
1
 40
1
 40
1
 40
1
 10
25.819521
 20
-133.862411
 30
0.0
 10
26.537478
 20
-135.106748
 30
0.0
 10
28.127736
 20
-135.532595
 30
0.0
 10
29.370727
 20
-134.814623
 30
0.0
  0
SPLINE
  5
2a0
100
AcDbEntity
  8
0
 62
7
100
AcDbSpline
 70
8
 71
3
 72
8
 73
4
 74
0
 40
0
 40
0
 40
0
 40
0
 40
1
 40
1
 40
1
 40
1
 10
29.370727
 20
-134.814623
 30
0.0
 10
30.615097
 20
-134.096676
 30
0.0
 10
31.040908
 20
-132.506395
 30
0.0
 10
30.322953
 20
-131.263394
 30
0.0
  0
SPLINE
  5
2a1
100
AcDbEntity
  8
0
 62
7
100
AcDbSpline
 70
8
 71
3
 72
8
 73
4
 74
0
 40
0
 40
0
 40
0
 40
0
 40
1
 40
1
 40
1
 40
1
 10
30.322953
 20
-131.263394
 30
0.0
 10
29.604994
 20
-130.019021
 30
0.0
 10
28.014736
 20
-129.593215
 30
0.0
 10
26.770366
 20
-130.311170
 30
0.0
  0
LWPOLYLINE
  5
2a2
100
AcDbEntity
  8
0
 62
7
100
AcDbPolyline
 90
1
 70
1
 10
175.373284
 20
-105.032674
 30
0.0
  0
SPLINE
  5
2a3
100
AcDbEntity
  8
0
 62
7
100
AcDbSpline
 70
8
 71
3
 72
8
 73
4
 74
0
 40
0
 40
0
 40
0
 40
0
 40
1
 40
1
 40
1
 40
1
 10
175.368306
 20
-49.715081
 30
0.0
 10
176.803748
 20
-49.714822
 30
0.0
 10
177.967633
 20
-48.550526
 30
0.0
 10
177.967371
 20
-47.115056
 30
0.0
  0
SPLINE
  5
2a4
100
AcDbEntity
  8
0
 62
7
100
AcDbSpline
 70
8
 71
3
 72
8
 73
4
 74
0
 40
0
 40
0
 40
0
 40
0
 40
1
 40
1
 40
1
 40
1
 10
177.967371
 20
-47.115056
 30
0.0
 10
177.967900
 20
-45.678433
 30
0.0
 10
176.803486
 20
-44.514527
 30
0.0
 10
175.368034
 20
-44.514817
 30
0.0
  0
SPLINE
  5
2a5
100
AcDbEntity
  8
0
 62
7
100
AcDbSpline
 70
8
 71
3
 72
8
 73
4
 74
0
 40
0
 40
0
 40
0
 40
0
 40
1
 40
1
 40
1
 40
1
 10
175.368034
 20
-44.514817
 30
0.0
 10
173.931411
 20
-44.514288
 30
0.0
 10
172.767528
 20
-45.678682
 30
0.0
 10
172.767795
 20
-47.114149
 30
0.0
  0
SPLINE
  5
2a6
100
AcDbEntity
  8
0
 62
7
100
AcDbSpline
 70
8
 71
3
 72
8
 73
4
 74
0
 40
0
 40
0
 40
0
 40
0
 40
1
 40
1
 40
1
 40
1
 10
172.767795
 20
-47.114149
 30
0.0
 10
172.767267
 20
-48.550780
 30
0.0
 10
173.931670
 20
-49.714690
 30
0.0
 10
175.368306
 20
-49.715081
 30
0.0
  0
LWPOLYLINE
  5
2a7
100
AcDbEntity
  8
0
 62
7
100
AcDbPolyline
 90
1
 70
1
 10
26.770366
 20
-130.311170
 30
0.0
  0
SPLINE
  5
2a8
100
AcDbEntity
  8
0
 62
7
100
AcDbSpline
 70
8
 71
3
 72
8
 73
4
 74
0
 40
0
 40
0
 40
0
 40
0
 40
1
 40
1
 40
1
 40
1
 10
68.566520
 20
-24.103699
 30
0.0
 10
68.503640
 20
-22.669631
 30
0.0
 10
67.289688
 20
-21.557644
 30
0.0
 10
65.855595
 20
-21.620522
 30
0.0
  0
SPLINE
  5
2a9
100
AcDbEntity
  8
0
 62
7
100
AcDbSpline
 70
8
 71
3
 72
8
 73
4
 74
0
 40
0
 40
0
 40
0
 40
0
 40
1
 40
1
 40
1
 40
1
 10
65.855595
 20
-21.620522
 30
0.0
 10
64.420321
 20
-21.682780
 30
0.0
 10
63.308310
 20
-22.896733
 30
0.0
 10
63.371211
 20
-24.330800
 30
0.0
  0
SPLINE
  5
2aa
100
AcDbEntity
  8
0
 62
7
100
AcDbSpline
 70
8
 71
3
 72
8
 73
4
 74
0
 40
0
 40
0
 40
0
 40
0
 40
1
 40
1
 40
1
 40
1
 10
63.371211
 20
-24.330800
 30
0.0
 10
63.433456
 20
-25.766075
 30
0.0
 10
64.647400
 20
-26.878068
 30
0.0
 10
66.081493
 20
-26.815187
 30
0.0
  0
SPLINE
  5
2ab
100
AcDbEntity
  8
0
 62
7
100
AcDbSpline
 70
8
 71
3
 72
8
 73
4
 74
0
 40
0
 40
0
 40
0
 40
0
 40
1
 40
1
 40
1
 40
1
 10
66.081493
 20
-26.815187
 30
0.0
 10
67.516772
 20
-26.752945
 30
0.0
 10
68.628788
 20
-25.538986
 30
0.0
 10
68.566520
 20
-24.103699
 30
0.0
  0
LWPOLYLINE
  5
2ac
100
AcDbEntity
  8
0
 62
7
100
AcDbPolyline
 90
1
 70
1
 10
175.368306
 20
-49.715081
 30
0.0
  0
SPLINE
  5
2ad
100
AcDbEntity
  8
0
 62
7
100
AcDbSpline
 70
8
 71
3
 72
8
 73
4
 74
0
 40
0
 40
0
 40
0
 40
0
 40
1
 40
1
 40
1
 40
1
 10
46.377786
 20
-141.859384
 30
0.0
 10
46.377786
 20
-141.170413
 30
0.0
 10
45.818282
 20
-140.610902
 30
0.0
 10
45.129306
 20
-140.610902
 30
0.0
  0
SPLINE
  5
2ae
100
AcDbEntity
  8
0
 62
7
100
AcDbSpline
 70
8
 71
3
 72
8
 73
4
 74
0
 40
0
 40
0
 40
0
 40
0
 40
1
 40
1
 40
1
 40
1
 10
45.129306
 20
-140.610902
 30
0.0
 10
44.440330
 20
-140.610902
 30
0.0
 10
43.881174
 20
-141.170413
 30
0.0
 10
43.881174
 20
-141.859384
 30
0.0
  0
SPLINE
  5
2af
100
AcDbEntity
  8
0
 62
7
100
AcDbSpline
 70
8
 71
3
 72
8
 73
4
 74
0
 40
0
 40
0
 40
0
 40
0
 40
1
 40
1
 40
1
 40
1
 10
43.881174
 20
-141.859384
 30
0.0
 10
43.881174
 20
-142.548365
 30
0.0
 10
44.440330
 20
-143.107864
 30
0.0
 10
45.129306
 20
-143.107864
 30
0.0
  0
SPLINE
  5
2b0
100
AcDbEntity
  8
0
 62
7
100
AcDbSpline
 70
8
 71
3
 72
8
 73
4
 74
0
 40
0
 40
0
 40
0
 40
0
 40
1
 40
1
 40
1
 40
1
 10
45.129306
 20
-143.107864
 30
0.0
 10
45.818282
 20
-143.107864
 30
0.0
 10
46.377786
 20
-142.548365
 30
0.0
 10
46.377786
 20
-141.859384
 30
0.0
  0
LWPOLYLINE
  5
2b1
100
AcDbEntity
  8
0
 62
7
100
AcDbPolyline
 90
1
 70
1
 10
68.566520
 20
-24.103699
 30
0.0
  0
SPLINE
  5
2b2
100
AcDbEntity
  8
0
 62
7
100
AcDbSpline
 70
8
 71
3
 72
8
 73
4
 74
0
 40
0
 40
0
 40
0
 40
0
 40
1
 40
1
 40
1
 40
1
 10
149.385054
 20
-192.812892
 30
0.0
 10
149.385054
 20
-192.123922
 30
0.0
 10
148.825547
 20
-191.564410
 30
0.0
 10
148.136571
 20
-191.564410
 30
0.0
  0
SPLINE
  5
2b3
100
AcDbEntity
  8
0
 62
7
100
AcDbSpline
 70
8
 71
3
 72
8
 73
4
 74
0
 40
0
 40
0
 40
0
 40
0
 40
1
 40
1
 40
1
 40
1
 10
148.136571
 20
-191.564410
 30
0.0
 10
147.447596
 20
-191.564410
 30
0.0
 10
146.888442
 20
-192.123922
 30
0.0
 10
146.888442
 20
-192.812892
 30
0.0
  0
SPLINE
  5
2b4
100
AcDbEntity
  8
0
 62
7
100
AcDbSpline
 70
8
 71
3
 72
8
 73
4
 74
0
 40
0
 40
0
 40
0
 40
0
 40
1
 40
1
 40
1
 40
1
 10
146.888442
 20
-192.812892
 30
0.0
 10
146.888442
 20
-193.501873
 30
0.0
 10
147.447596
 20
-194.061372
 30
0.0
 10
148.136571
 20
-194.061372
 30
0.0
  0
SPLINE
  5
2b5
100
AcDbEntity
  8
0
 62
7
100
AcDbSpline
 70
8
 71
3
 72
8
 73
4
 74
0
 40
0
 40
0
 40
0
 40
0
 40
1
 40
1
 40
1
 40
1
 10
148.136571
 20
-194.061372
 30
0.0
 10
148.825547
 20
-194.061372
 30
0.0
 10
149.385054
 20
-193.501873
 30
0.0
 10
149.385054
 20
-192.812892
 30
0.0
  0
LWPOLYLINE
  5
2b6
100
AcDbEntity
  8
0
 62
7
100
AcDbPolyline
 90
1
 70
1
 10
46.377786
 20
-141.859384
 30
0.0
  0
LWPOLYLINE
  5
2b7
100
AcDbEntity
  8
0
 62
7
100
AcDbPolyline
 90
1
 70
1
 10
149.385054
 20
-192.812892
 30
0.0
  0
SPLINE
  5
2b8
100
AcDbEntity
  8
0
 62
7
100
AcDbSpline
 70
8
 71
3
 72
8
 73
4
 74
0
 40
0
 40
0
 40
0
 40
0
 40
1
 40
1
 40
1
 40
1
 10
155.215788
 20
-194.948935
 30
0.0
 10
155.215788
 20
-194.948935
 30
0.0
 10
154.852466
 20
-196.787562
 30
0.0
 10
153.084538
 20
-198.535886
 30
0.0
  0
SPLINE
  5
2b9
100
AcDbEntity
  8
0
 62
7
100
AcDbSpline
 70
8
 71
3
 72
8
 73
4
 74
0
 40
0
 40
0
 40
0
 40
0
 40
1
 40
1
 40
1
 40
1
 10
153.084538
 20
-198.535886
 30
0.0
 10
151.316609
 20
-200.284211
 30
0.0
 10
143.672712
 20
-199.852469
 30
0.0
 10
143.672712
 20
-199.852469
 30
0.0
  0
LWPOLYLINE
  5
2ba
100
AcDbEntity
  8
0
 62
7
100
AcDbPolyline
 90
2
 70
0
 10
170.480329
 20
-112.546237
 30
0.0
 10
155.215788
 20
-194.948935
 30
0.0
  0
LWPOLYLINE
  5
2bb
100
AcDbEntity
  8
0
 62
7
100
AcDbPolyline
 90
2
 70
0
 10
170.477957
 20
-110.433000
 30
0.0
 10
170.480339
 20
-112.546242
 30
0.0
  0
SPLINE
  5
2bc
100
AcDbEntity
  8
0
 62
7
100
AcDbSpline
 70
8
 71
3
 72
8
 73
4
 74
0
 40
0
 40
0
 40
0
 40
0
 40
1
 40
1
 40
1
 40
1
 10
33.010256
 20
-108.695618
 30
0.0
 10
33.192453
 20
-108.350736
 30
0.0
 10
33.299461
 20
-107.890970
 30
0.0
 10
33.284577
 20
-107.445936
 30
0.0
  0
LWPOLYLINE
  5
2bd
100
AcDbEntity
  8
0
 62
7
100
AcDbPolyline
 90
2
 70
0
 10
27.211430
 20
-119.444908
 30
0.0
 10
33.010256
 20
-108.695618
 30
0.0
  0
SPLINE
  5
2be
100
AcDbEntity
  8
0
 62
7
100
AcDbSpline
 70
8
 71
3
 72
8
 73
4
 74
0
 40
0
 40
0
 40
0
 40
0
 40
1
 40
1
 40
1
 40
1
 10
33.268130
 20
-90.355306
 30
0.0
 10
33.355534
 20
-72.071456
 30
0.0
 10
33.251518
 20
-51.030247
 30
0.0
 10
33.288435
 20
-31.531955
 30
0.0
  0
SPLINE
  5
2bf
100
AcDbEntity
  8
0
 62
7
100
AcDbSpline
 70
8
 71
3
 72
8
 73
4
 74
0
 40
0
 40
0
 40
0
 40
0
 40
1
 40
1
 40
1
 40
1
 10
33.288435
 20
-31.531955
 30
0.0
 10
33.287975
 20
-31.441480
 30
0.0
 10
33.272730
 20
-31.031618
 30
0.0
 10
33.334958
 20
-30.788575
 30
0.0
  0
SPLINE
  5
2c0
100
AcDbEntity
  8
0
 62
7
100
AcDbSpline
 70
8
 71
3
 72
8
 73
4
 74
0
 40
0
 40
0
 40
0
 40
0
 40
1
 40
1
 40
1
 40
1
 10
33.334958
 20
-30.788575
 30
0.0
 10
33.418856
 20
-30.460884
 30
0.0
 10
33.524680
 20
-30.364852
 30
0.0
 10
34.249196
 20
-30.380559
 30
0.0
  0
SPLINE
  5
2c1
100
AcDbEntity
  8
0
 62
7
100
AcDbSpline
 70
8
 71
3
 72
8
 73
4
 74
0
 40
0
 40
0
 40
0
 40
0
 40
1
 40
1
 40
1
 40
1
 10
34.249196
 20
-30.380559
 30
0.0
 10
42.789521
 20
-30.017415
 30
0.0
 10
44.113328
 20
-30.055632
 30
0.0
 10
58.189948
 20
-29.437237
 30
0.0
  0
SPLINE
  5
2c2
100
AcDbEntity
  8
0
 62
7
100
AcDbSpline
 70
8
 71
3
 72
8
 73
4
 74
0
 40
0
 40
0
 40
0
 40
0
 40
1
 40
1
 40
1
 40
1
 10
58.189948
 20
-29.437237
 30
0.0
 10
59.854584
 20
-29.370082
 30
0.0
 10
61.143621
 20
-27.959334
 30
0.0
 10
61.063511
 20
-26.295703
 30
0.0
  0
LWPOLYLINE
  5
2c3
100
AcDbEntity
  8
0
 62
7
100
AcDbPolyline
 90
2
 70
0
 10
33.284577
 20
-107.445936
 30
0.0
 10
33.268130
 20
-90.355306
 30
0.0
  0
SPLINE
  5
2c4
100
AcDbEntity
  8
0
 62
7
100
AcDbSpline
 70
8
 71
3
 72
8
 73
4
 74
0
 40
0
 40
0
 40
0
 40
0
 40
1
 40
1
 40
1
 40
1
 10
60.973682
 20
-24.435898
 30
0.0
 10
60.852879
 20
-21.677573
 30
0.0
 10
62.992773
 20
-19.342578
 30
0.0
 10
65.750492
 20
-19.223036
 30
0.0
  0
SPLINE
  5
2c5
100
AcDbEntity
  8
0
 62
7
100
AcDbSpline
 70
8
 71
3
 72
8
 73
4
 74
0
 40
0
 40
0
 40
0
 40
0
 40
1
 40
1
 40
1
 40
1
 10
65.750492
 20
-19.223036
 30
0.0
 10
68.508793
 20
-19.102228
 30
0.0
 10
70.843211
 20
-21.240281
 30
0.0
 10
70.964001
 20
-23.998616
 30
0.0
  0
LWPOLYLINE
  5
2c6
100
AcDbEntity
  8
0
 62
7
100
AcDbPolyline
 90
2
 70
0
 10
61.063511
 20
-26.295703
 30
0.0
 10
60.973682
 20
-24.435898
 30
0.0
  0
SPLINE
  5
2c7
100
AcDbEntity
  8
0
 62
7
100
AcDbSpline
 70
8
 71
3
 72
8
 73
4
 74
0
 40
0
 40
0
 40
0
 40
0
 40
1
 40
1
 40
1
 40
1
 10
71.059736
 20
-25.912732
 30
0.0
 10
71.143289
 20
-27.554859
 30
0.0
 10
72.533423
 20
-28.823824
 30
0.0
 10
74.175225
 20
-28.758767
 30
0.0
  0
LWPOLYLINE
  5
2c8
100
AcDbEntity
  8
0
 62
7
100
AcDbPolyline
 90
2
 70
0
 10
70.964001
 20
-23.998616
 30
0.0
 10
71.059736
 20
-25.912732
 30
0.0
  0
SPLINE
  5
2c9
100
AcDbEntity
  8
0
 62
7
100
AcDbSpline
 70
8
 71
3
 72
8
 73
4
 74
0
 40
0
 40
0
 40
0
 40
0
 40
1
 40
1
 40
1
 40
1
 10
169.487119
 20
-36.490960
 30
0.0
 10
170.482006
 20
-36.680950
 30
0.0
 10
170.447980
 20
-37.196667
 30
0.0
 10
170.454861
 20
-37.628881
 30
0.0
  0
LWPOLYLINE
  5
2ca
100
AcDbEntity
  8
0
 62
7
100
AcDbPolyline
 90
6
 70
0
 10
74.175225
 20
-28.758767
 30
0.0
 10
75.710212
 20
-28.773161
 30
0.0
 10
84.860570
 20
-28.409306
 30
0.0
 10
94.010931
 20
-28.045451
 30
0.0
 10
115.961636
 20
-28.045451
 30
0.0
 10
169.487119
 20
-36.490960
 30
0.0
  0
SPLINE
  5
2cb
100
AcDbEntity
  8
0
 62
7
100
AcDbSpline
 70
8
 71
3
 72
8
 73
4
 74
0
 40
0
 40
0
 40
0
 40
0
 40
1
 40
1
 40
1
 40
1
 10
170.492427
 20
-39.115779
 30
0.0
 10
170.486898
 20
-40.781759
 30
0.0
 10
171.840089
 20
-42.131110
 30
0.0
 10
173.505630
 20
-42.123640
 30
0.0
  0
LWPOLYLINE
  5
2cc
100
AcDbEntity
  8
0
 62
7
100
AcDbPolyline
 90
2
 70
0
 10
170.454861
 20
-37.628881
 30
0.0
 10
170.492427
 20
-39.115779
 30
0.0
  0
SPLINE
  5
2cd
100
AcDbEntity
  8
0
 62
7
100
AcDbSpline
 70
8
 71
3
 72
8
 73
4
 74
0
 40
0
 40
0
 40
0
 40
0
 40
1
 40
1
 40
1
 40
1
 10
175.367584
 20
-42.115014
 30
0.0
 10
178.128555
 20
-42.114750
 30
0.0
 10
180.367986
 20
-44.354355
 30
0.0
 10
180.367125
 20
-47.114660
 30
0.0
  0
SPLINE
  5
2ce
100
AcDbEntity
  8
0
 62
7
100
AcDbSpline
 70
8
 71
3
 72
8
 73
4
 74
0
 40
0
 40
0
 40
0
 40
0
 40
1
 40
1
 40
1
 40
1
 10
180.367125
 20
-47.114660
 30
0.0
 10
180.367390
 20
-49.875607
 30
0.0
 10
178.129657
 20
-52.114543
 30
0.0
 10
175.368677
 20
-52.114902
 30
0.0
  0
LWPOLYLINE
  5
2cf
100
AcDbEntity
  8
0
 62
7
100
AcDbPolyline
 90
2
 70
0
 10
173.505630
 20
-42.123640
 30
0.0
 10
175.367584
 20
-42.115014
 30
0.0
  0
SPLINE
  5
2d0
100
AcDbEntity
  8
0
 62
7
100
AcDbSpline
 70
8
 71
3
 72
8
 73
4
 74
0
 40
0
 40
0
 40
0
 40
0
 40
1
 40
1
 40
1
 40
1
 10
173.452211
 20
-52.127045
 30
0.0
 10
171.808001
 20
-52.138900
 30
0.0
 10
170.479603
 20
-53.472353
 30
0.0
 10
170.472986
 20
-55.115422
 30
0.0
  0
LWPOLYLINE
  5
2d1
100
AcDbEntity
  8
0
 62
7
100
AcDbPolyline
 90
2
 70
0
 10
175.368677
 20
-52.114902
 30
0.0
 10
173.452211
 20
-52.127045
 30
0.0
  0
SPLINE
  5
2d2
100
AcDbEntity
  8
0
 62
7
100
AcDbSpline
 70
8
 71
3
 72
8
 73
4
 74
0
 40
0
 40
0
 40
0
 40
0
 40
1
 40
1
 40
1
 40
1
 10
170.497408
 20
-94.433357
 30
0.0
 10
170.491879
 20
-96.099339
 30
0.0
 10
171.845070
 20
-97.448691
 30
0.0
 10
173.510611
 20
-97.441220
 30
0.0
  0
LWPOLYLINE
  5
2d3
100
AcDbEntity
  8
0
 62
7
100
AcDbPolyline
 90
11
 70
0
 10
170.472986
 20
-55.115422
 30
0.0
 10
170.461213
 20
-56.358218
 30
0.0
 10
170.462801
 20
-61.040551
 30
0.0
 10
170.464388
 20
-65.722891
 30
0.0
 10
170.465976
 20
-70.405226
 30
0.0
 10
170.467563
 20
-75.087564
 30
0.0
 10
170.469151
 20
-79.769900
 30
0.0
 10
170.470738
 20
-84.452237
 30
0.0
 10
170.472326
 20
-89.134573
 30
0.0
 10
170.473913
 20
-93.816911
 30
0.0
 10
170.497408
 20
-94.433357
 30
0.0
  0
SPLINE
  5
2d4
100
AcDbEntity
  8
0
 62
7
100
AcDbSpline
 70
8
 71
3
 72
8
 73
4
 74
0
 40
0
 40
0
 40
0
 40
0
 40
1
 40
1
 40
1
 40
1
 10
175.372565
 20
-97.432595
 30
0.0
 10
178.133531
 20
-97.432330
 30
0.0
 10
180.372965
 20
-99.671937
 30
0.0
 10
180.372104
 20
-102.432242
 30
0.0
  0
SPLINE
  5
2d5
100
AcDbEntity
  8
0
 62
7
100
AcDbSpline
 70
8
 71
3
 72
8
 73
4
 74
0
 40
0
 40
0
 40
0
 40
0
 40
1
 40
1
 40
1
 40
1
 10
180.372104
 20
-102.432242
 30
0.0
 10
180.372368
 20
-105.193187
 30
0.0
 10
178.134638
 20
-107.432124
 30
0.0
 10
175.373655
 20
-107.432484
 30
0.0
  0
LWPOLYLINE
  5
2d6
100
AcDbEntity
  8
0
 62
7
100
AcDbPolyline
 90
2
 70
0
 10
173.510611
 20
-97.441220
 30
0.0
 10
175.372565
 20
-97.432595
 30
0.0
  0
SPLINE
  5
2d7
100
AcDbEntity
  8
0
 62
7
100
AcDbSpline
 70
8
 71
3
 72
8
 73
4
 74
0
 40
0
 40
0
 40
0
 40
0
 40
1
 40
1
 40
1
 40
1
 10
173.457187
 20
-107.444628
 30
0.0
 10
171.812977
 20
-107.456482
 30
0.0
 10
170.484584
 20
-108.789938
 30
0.0
 10
170.477964
 20
-110.433008
 30
0.0
  0
SPLINE
  5
2d8
100
AcDbEntity
  8
0
 62
7
100
AcDbSpline
 70
8
 71
3
 72
8
 73
4
 74
0
 40
0
 40
0
 40
0
 40
0
 40
1
 40
1
 40
1
 40
1
 10
37.375909
 20
-139.198718
 30
0.0
 10
36.716799
 20
-137.753477
 30
0.0
 10
36.768114
 20
-137.869441
 30
0.0
 10
36.292618
 20
-137.052551
 30
0.0
  0
SPLINE
  5
2d9
100
AcDbEntity
  8
0
 62
7
100
AcDbSpline
 70
8
 71
3
 72
8
 73
4
 74
0
 40
0
 40
0
 40
0
 40
0
 40
1
 40
1
 40
1
 40
1
 10
36.292618
 20
-137.052551
 30
0.0
 10
35.464420
 20
-135.606997
 30
0.0
 10
33.617848
 20
-135.115003
 30
0.0
 10
32.179170
 20
-135.954263
 30
0.0
  0
LWPOLYLINE
  5
2da
100
AcDbEntity
  8
0
 62
7
100
AcDbPolyline
 90
2
 70
0
 10
175.373655
 20
-107.432484
 30
0.0
 10
173.457187
 20
-107.444628
 30
0.0
  0
SPLINE
  5
2db
100
AcDbEntity
  8
0
 62
7
100
AcDbSpline
 70
8
 71
3
 72
8
 73
4
 74
0
 40
0
 40
0
 40
0
 40
0
 40
1
 40
1
 40
1
 40
1
 10
30.570997
 20
-136.892716
 30
0.0
 10
28.180100
 20
-138.273472
 30
0.0
 10
25.120851
 20
-137.453579
 30
0.0
 10
23.741437
 20
-135.062669
 30
0.0
  0
SPLINE
  5
2dc
100
AcDbEntity
  8
0
 62
7
100
AcDbSpline
 70
8
 71
3
 72
8
 73
4
 74
0
 40
0
 40
0
 40
0
 40
0
 40
1
 40
1
 40
1
 40
1
 10
23.741437
 20
-135.062669
 30
0.0
 10
22.360638
 20
-132.671775
 30
0.0
 10
23.179197
 20
-129.613890
 30
0.0
 10
25.570095
 20
-128.233094
 30
0.0
  0
LWPOLYLINE
  5
2dd
100
AcDbEntity
  8
0
 62
7
100
AcDbPolyline
 90
2
 70
0
 10
32.179170
 20
-135.954263
 30
0.0
 10
30.570997
 20
-136.892716
 30
0.0
  0
SPLINE
  5
2de
100
AcDbEntity
  8
0
 62
7
100
AcDbSpline
 70
8
 71
3
 72
8
 73
4
 74
0
 40
0
 40
0
 40
0
 40
0
 40
1
 40
1
 40
1
 40
1
 10
27.223744
 20
-127.264337
 30
0.0
 10
28.641741
 20
-126.431978
 30
0.0
 10
29.125434
 20
-124.612978
 30
0.0
 10
28.309633
 20
-123.186715
 30
0.0
  0
LWPOLYLINE
  5
2df
100
AcDbEntity
  8
0
 62
7
100
AcDbPolyline
 90
2
 70
0
 10
25.570095
 20
-128.233094
 30
0.0
 10
27.223744
 20
-127.264337
 30
0.0
  0
SPLINE
  5
2e0
100
AcDbEntity
  8
0
 62
7
100
AcDbSpline
 70
8
 71
3
 72
8
 73
4
 74
0
 40
0
 40
0
 40
0
 40
0
 40
1
 40
1
 40
1
 40
1
 10
27.310490
 20
-121.446410
 30
0.0
 10
26.656274
 20
-120.360482
 30
0.0
 10
27.211430
 20
-119.444895
 30
0.0
 10
27.211430
 20
-119.444895
 30
0.0
  0
LWPOLYLINE
  5
2e1
100
AcDbEntity
  8
0
 62
7
100
AcDbPolyline
 90
2
 70
0
 10
28.309633
 20
-123.186715
 30
0.0
 10
27.310490
 20
-121.446410
 30
0.0
  0
SPLINE
  5
2e2
100
AcDbEntity
  8
0
 62
7
100
AcDbSpline
 70
8
 71
3
 72
8
 73
4
 74
0
 40
0
 40
0
 40
0
 40
0
 40
1
 40
1
 40
1
 40
1
 10
63.127025
 20
-207.547052
 30
0.0
 10
63.127025
 20
-207.547052
 30
0.0
 10
64.409285
 20
-210.816912
 30
0.0
 10
65.759522
 20
-211.476421
 30
0.0
  0
SPLINE
  5
2e3
100
AcDbEntity
  8
0
 62
7
100
AcDbSpline
 70
8
 71
3
 72
8
 73
4
 74
0
 40
0
 40
0
 40
0
 40
0
 40
1
 40
1
 40
1
 40
1
 10
65.759522
 20
-211.476421
 30
0.0
 10
67.004708
 20
-212.084623
 30
0.0
 10
70.043021
 20
-210.884375
 30
0.0
 10
70.043021
 20
-210.884375
 30
0.0
  0
LWPOLYLINE
  5
2e4
100
AcDbEntity
  8
0
 62
7
100
AcDbPolyline
 90
2
 70
0
 10
37.380555
 20
-139.185282
 30
0.0
 10
63.127025
 20
-207.547052
 30
0.0
  0
LWPOLYLINE
  5
2e5
100
AcDbEntity
  8
0
 62
7
100
AcDbPolyline
 90
4
 70
0
 10
70.043021
 20
-210.884375
 30
0.0
 10
105.605452
 20
-199.850254
 30
0.0
 10
105.605452
 20
-199.850254
 30
0.0
 10
143.672719
 20
-199.852484
 30
0.0
  0
SPLINE
  5
2e6
100
AcDbEntity
  8
0
 62
7
100
AcDbSpline
 70
8
 71
3
 72
8
 73
4
 74
0
 40
0
 40
0
 40
0
 40
0
 40
1
 40
1
 40
1
 40
1
 10
351.908132
 20
-192.277022
 30
0.0
 10
351.908132
 20
-192.277022
 30
0.0
 10
351.544810
 20
-194.115654
 30
0.0
 10
349.776866
 20
-195.863963
 30
0.0
  0
SPLINE
  5
2e7
100
AcDbEntity
  8
0
 62
7
100
AcDbSpline
 70
8
 71
3
 72
8
 73
4
 74
0
 40
0
 40
0
 40
0
 40
0
 40
1
 40
1
 40
1
 40
1
 10
349.776866
 20
-195.863963
 30
0.0
 10
348.008948
 20
-197.612298
 30
0.0
 10
340.365038
 20
-197.180548
 30
0.0
 10
340.365038
 20
-197.180548
 30
0.0
  0
LWPOLYLINE
  5
2e8
100
AcDbEntity
  8
0
 62
7
100
AcDbPolyline
 90
2
 70
0
 10
367.003141
 20
-109.917367
 30
0.0
 10
351.908132
 20
-192.277022
 30
0.0
  0
SPLINE
  5
2e9
100
AcDbEntity
  8
0
 62
7
100
AcDbSpline
 70
8
 71
3
 72
8
 73
4
 74
0
 40
0
 40
0
 40
0
 40
0
 40
1
 40
1
 40
1
 40
1
 10
259.819361
 20
-204.875132
 30
0.0
 10
259.819361
 20
-204.875132
 30
0.0
 10
261.101631
 20
-208.145004
 30
0.0
 10
262.451871
 20
-208.804516
 30
0.0
  0
SPLINE
  5
2ea
100
AcDbEntity
  8
0
 62
7
100
AcDbSpline
 70
8
 71
3
 72
8
 73
4
 74
0
 40
0
 40
0
 40
0
 40
0
 40
1
 40
1
 40
1
 40
1
 10
262.451871
 20
-208.804516
 30
0.0
 10
263.697057
 20
-209.412694
 30
0.0
 10
266.735357
 20
-208.212467
 30
0.0
 10
266.735357
 20
-208.212467
 30
0.0
  0
LWPOLYLINE
  5
2eb
100
AcDbEntity
  8
0
 62
7
100
AcDbPolyline
 90
2
 70
0
 10
234.072886
 20
-136.513366
 30
0.0
 10
259.819361
 20
-204.875132
 30
0.0
  0
SPLINE
  5
2ec
100
AcDbEntity
  8
0
 62
7
100
AcDbSpline
 70
8
 71
3
 72
8
 73
4
 74
0
 40
0
 40
0
 40
0
 40
0
 40
1
 40
1
 40
1
 40
1
 10
243.070049
 20
-139.187301
 30
0.0
 10
243.070049
 20
-138.498330
 30
0.0
 10
242.510544
 20
-137.938819
 30
0.0
 10
241.821569
 20
-137.938819
 30
0.0
  0
SPLINE
  5
2ed
100
AcDbEntity
  8
0
 62
7
100
AcDbSpline
 70
8
 71
3
 72
8
 73
4
 74
0
 40
0
 40
0
 40
0
 40
0
 40
1
 40
1
 40
1
 40
1
 10
241.821569
 20
-137.938819
 30
0.0
 10
241.132593
 20
-137.938819
 30
0.0
 10
240.573437
 20
-138.498330
 30
0.0
 10
240.573437
 20
-139.187301
 30
0.0
  0
SPLINE
  5
2ee
100
AcDbEntity
  8
0
 62
7
100
AcDbSpline
 70
8
 71
3
 72
8
 73
4
 74
0
 40
0
 40
0
 40
0
 40
0
 40
1
 40
1
 40
1
 40
1
 10
240.573437
 20
-139.187301
 30
0.0
 10
240.573437
 20
-139.876282
 30
0.0
 10
241.132593
 20
-140.435781
 30
0.0
 10
241.821569
 20
-140.435781
 30
0.0
  0
SPLINE
  5
2ef
100
AcDbEntity
  8
0
 62
7
100
AcDbSpline
 70
8
 71
3
 72
8
 73
4
 74
0
 40
0
 40
0
 40
0
 40
0
 40
1
 40
1
 40
1
 40
1
 10
241.821569
 20
-140.435781
 30
0.0
 10
242.510544
 20
-140.435781
 30
0.0
 10
243.070049
 20
-139.876282
 30
0.0
 10
243.070049
 20
-139.187301
 30
0.0
  0
LWPOLYLINE
  5
2f0
100
AcDbEntity
  8
0
 62
7
100
AcDbPolyline
 90
4
 70
0
 10
266.735357
 20
-208.212467
 30
0.0
 10
302.297786
 20
-197.178339
 30
0.0
 10
302.297786
 20
-197.178339
 30
0.0
 10
340.365063
 20
-197.180574
 30
0.0
  0
SPLINE
  5
2f1
100
AcDbEntity
  8
0
 62
7
100
AcDbSpline
 70
8
 71
3
 72
8
 73
4
 74
0
 40
0
 40
0
 40
0
 40
0
 40
1
 40
1
 40
1
 40
1
 10
346.077316
 20
-190.140809
 30
0.0
 10
346.077316
 20
-189.451839
 30
0.0
 10
345.517810
 20
-188.892327
 30
0.0
 10
344.828834
 20
-188.892327
 30
0.0
  0
SPLINE
  5
2f2
100
AcDbEntity
  8
0
 62
7
100
AcDbSpline
 70
8
 71
3
 72
8
 73
4
 74
0
 40
0
 40
0
 40
0
 40
0
 40
1
 40
1
 40
1
 40
1
 10
344.828834
 20
-188.892327
 30
0.0
 10
344.139858
 20
-188.892327
 30
0.0
 10
343.580704
 20
-189.451839
 30
0.0
 10
343.580704
 20
-190.140809
 30
0.0
  0
SPLINE
  5
2f3
100
AcDbEntity
  8
0
 62
7
100
AcDbSpline
 70
8
 71
3
 72
8
 73
4
 74
0
 40
0
 40
0
 40
0
 40
0
 40
1
 40
1
 40
1
 40
1
 10
343.580704
 20
-190.140809
 30
0.0
 10
343.580704
 20
-190.829790
 30
0.0
 10
344.139858
 20
-191.389289
 30
0.0
 10
344.828834
 20
-191.389289
 30
0.0
  0
SPLINE
  5
2f4
100
AcDbEntity
  8
0
 62
7
100
AcDbSpline
 70
8
 71
3
 72
8
 73
4
 74
0
 40
0
 40
0
 40
0
 40
0
 40
1
 40
1
 40
1
 40
1
 10
344.828834
 20
-191.389289
 30
0.0
 10
345.517810
 20
-191.389289
 30
0.0
 10
346.077316
 20
-190.829790
 30
0.0
 10
346.077316
 20
-190.140809
 30
0.0
  0
LWPOLYLINE
  5
2f5
100
AcDbEntity
  8
0
 62
7
100
AcDbPolyline
 90
1
 70
1
 10
243.070049
 20
-139.187301
 30
0.0
  0
LWPOLYLINE
  5
2f6
100
AcDbEntity
  8
0
 62
7
100
AcDbPolyline
 90
1
 70
1
 10
346.077316
 20
-190.140809
 30
0.0
  0
ENDSEC
  0
SECTION
  2
OBJECTS
  0
DICTIONARY
  5
C
330
0
100
AcDbDictionary
  3
ACAD_GROUP
350
D
  3
ACAD_MLINESTYLE
350
17
  0
DICTIONARY
  5
D
330
C
100
AcDbDictionary
  0
DICTIONARY
  5
1A
330
C
100
AcDbDictionary
  0
DICTIONARY
  5
17
330
C
100
AcDbDictionary
  3
STANDARD
350
18
  0
DICTIONARY
  5
19
330
C
100
AcDbDictionary
  0
ENDSEC
  0
EOF
